G04 #@! TF.FileFunction,Copper,L2,Bot,Signal*
%FSLAX46Y46*%
G04 Gerber Fmt 4.6, Leading zero omitted, Abs format (unit mm)*
G04 Created by KiCad (PCBNEW 4.0.1-stable) date 12.01.2016 22:18:14*
%MOMM*%
G01*
G04 APERTURE LIST*
%ADD10C,0.100000*%
%ADD11C,0.300000*%
%ADD12C,0.381000*%
%ADD13R,1.727200X1.727200*%
%ADD14O,1.727200X1.727200*%
%ADD15C,6.000000*%
%ADD16C,3.000000*%
%ADD17C,3.500000*%
%ADD18C,0.800000*%
%ADD19C,0.250000*%
G04 APERTURE END LIST*
D10*
D11*
X59478570Y-74850000D02*
X58764284Y-74850000D01*
X59621427Y-75278571D02*
X59121427Y-73778571D01*
X58621427Y-75278571D01*
X57907141Y-75278571D02*
X58049999Y-75207143D01*
X58121427Y-75064286D01*
X58121427Y-73778571D01*
X56764285Y-75207143D02*
X56907142Y-75278571D01*
X57192856Y-75278571D01*
X57335713Y-75207143D01*
X57407142Y-75064286D01*
X57407142Y-74492857D01*
X57335713Y-74350000D01*
X57192856Y-74278571D01*
X56907142Y-74278571D01*
X56764285Y-74350000D01*
X56692856Y-74492857D01*
X56692856Y-74635714D01*
X57407142Y-74778571D01*
X56192856Y-75278571D02*
X55407142Y-74278571D01*
X56192856Y-74278571D02*
X55407142Y-75278571D01*
X54192856Y-75278571D02*
X54192856Y-74492857D01*
X54264285Y-74350000D01*
X54407142Y-74278571D01*
X54692856Y-74278571D01*
X54835713Y-74350000D01*
X54192856Y-75207143D02*
X54335713Y-75278571D01*
X54692856Y-75278571D01*
X54835713Y-75207143D01*
X54907142Y-75064286D01*
X54907142Y-74921429D01*
X54835713Y-74778571D01*
X54692856Y-74707143D01*
X54335713Y-74707143D01*
X54192856Y-74635714D01*
X53478570Y-74278571D02*
X53478570Y-75278571D01*
X53478570Y-74421429D02*
X53407142Y-74350000D01*
X53264284Y-74278571D01*
X53049999Y-74278571D01*
X52907142Y-74350000D01*
X52835713Y-74492857D01*
X52835713Y-75278571D01*
X51478570Y-75278571D02*
X51478570Y-73778571D01*
X51478570Y-75207143D02*
X51621427Y-75278571D01*
X51907141Y-75278571D01*
X52049999Y-75207143D01*
X52121427Y-75135714D01*
X52192856Y-74992857D01*
X52192856Y-74564286D01*
X52121427Y-74421429D01*
X52049999Y-74350000D01*
X51907141Y-74278571D01*
X51621427Y-74278571D01*
X51478570Y-74350000D01*
X50192856Y-75207143D02*
X50335713Y-75278571D01*
X50621427Y-75278571D01*
X50764284Y-75207143D01*
X50835713Y-75064286D01*
X50835713Y-74492857D01*
X50764284Y-74350000D01*
X50621427Y-74278571D01*
X50335713Y-74278571D01*
X50192856Y-74350000D01*
X50121427Y-74492857D01*
X50121427Y-74635714D01*
X50835713Y-74778571D01*
X49478570Y-75278571D02*
X49478570Y-74278571D01*
X49478570Y-74564286D02*
X49407142Y-74421429D01*
X49335713Y-74350000D01*
X49192856Y-74278571D01*
X49049999Y-74278571D01*
X47478571Y-75207143D02*
X47264285Y-75278571D01*
X46907142Y-75278571D01*
X46764285Y-75207143D01*
X46692856Y-75135714D01*
X46621428Y-74992857D01*
X46621428Y-74850000D01*
X46692856Y-74707143D01*
X46764285Y-74635714D01*
X46907142Y-74564286D01*
X47192856Y-74492857D01*
X47335714Y-74421429D01*
X47407142Y-74350000D01*
X47478571Y-74207143D01*
X47478571Y-74064286D01*
X47407142Y-73921429D01*
X47335714Y-73850000D01*
X47192856Y-73778571D01*
X46835714Y-73778571D01*
X46621428Y-73850000D01*
X45335714Y-75207143D02*
X45478571Y-75278571D01*
X45764285Y-75278571D01*
X45907143Y-75207143D01*
X45978571Y-75135714D01*
X46050000Y-74992857D01*
X46050000Y-74564286D01*
X45978571Y-74421429D01*
X45907143Y-74350000D01*
X45764285Y-74278571D01*
X45478571Y-74278571D01*
X45335714Y-74350000D01*
X44692857Y-75278571D02*
X44692857Y-73778571D01*
X44050000Y-75278571D02*
X44050000Y-74492857D01*
X44121429Y-74350000D01*
X44264286Y-74278571D01*
X44478571Y-74278571D01*
X44621429Y-74350000D01*
X44692857Y-74421429D01*
X43335714Y-75278571D02*
X43335714Y-74278571D01*
X43335714Y-74564286D02*
X43264286Y-74421429D01*
X43192857Y-74350000D01*
X43050000Y-74278571D01*
X42907143Y-74278571D01*
X42192857Y-75278571D02*
X42335715Y-75207143D01*
X42407143Y-75135714D01*
X42478572Y-74992857D01*
X42478572Y-74564286D01*
X42407143Y-74421429D01*
X42335715Y-74350000D01*
X42192857Y-74278571D01*
X41978572Y-74278571D01*
X41835715Y-74350000D01*
X41764286Y-74421429D01*
X41692857Y-74564286D01*
X41692857Y-74992857D01*
X41764286Y-75135714D01*
X41835715Y-75207143D01*
X41978572Y-75278571D01*
X42192857Y-75278571D01*
X42335715Y-73778571D02*
X42264286Y-73850000D01*
X42335715Y-73921429D01*
X42407143Y-73850000D01*
X42335715Y-73778571D01*
X42335715Y-73921429D01*
X41764286Y-73778571D02*
X41692857Y-73850000D01*
X41764286Y-73921429D01*
X41835715Y-73850000D01*
X41764286Y-73778571D01*
X41764286Y-73921429D01*
X40407143Y-75278571D02*
X40407143Y-73778571D01*
X40407143Y-75207143D02*
X40550000Y-75278571D01*
X40835714Y-75278571D01*
X40978572Y-75207143D01*
X41050000Y-75135714D01*
X41121429Y-74992857D01*
X41121429Y-74564286D01*
X41050000Y-74421429D01*
X40978572Y-74350000D01*
X40835714Y-74278571D01*
X40550000Y-74278571D01*
X40407143Y-74350000D01*
X39121429Y-75207143D02*
X39264286Y-75278571D01*
X39550000Y-75278571D01*
X39692857Y-75207143D01*
X39764286Y-75064286D01*
X39764286Y-74492857D01*
X39692857Y-74350000D01*
X39550000Y-74278571D01*
X39264286Y-74278571D01*
X39121429Y-74350000D01*
X39050000Y-74492857D01*
X39050000Y-74635714D01*
X39764286Y-74778571D01*
X38407143Y-75278571D02*
X38407143Y-74278571D01*
X38407143Y-74564286D02*
X38335715Y-74421429D01*
X38264286Y-74350000D01*
X38121429Y-74278571D01*
X37978572Y-74278571D01*
X54228570Y-76321429D02*
X54157141Y-76250000D01*
X54014284Y-76178571D01*
X53657141Y-76178571D01*
X53514284Y-76250000D01*
X53442855Y-76321429D01*
X53371427Y-76464286D01*
X53371427Y-76607143D01*
X53442855Y-76821429D01*
X54299998Y-77678571D01*
X53371427Y-77678571D01*
X52442856Y-76178571D02*
X52299999Y-76178571D01*
X52157142Y-76250000D01*
X52085713Y-76321429D01*
X52014284Y-76464286D01*
X51942856Y-76750000D01*
X51942856Y-77107143D01*
X52014284Y-77392857D01*
X52085713Y-77535714D01*
X52157142Y-77607143D01*
X52299999Y-77678571D01*
X52442856Y-77678571D01*
X52585713Y-77607143D01*
X52657142Y-77535714D01*
X52728570Y-77392857D01*
X52799999Y-77107143D01*
X52799999Y-76750000D01*
X52728570Y-76464286D01*
X52657142Y-76321429D01*
X52585713Y-76250000D01*
X52442856Y-76178571D01*
X50514285Y-77678571D02*
X51371428Y-77678571D01*
X50942856Y-77678571D02*
X50942856Y-76178571D01*
X51085713Y-76392857D01*
X51228571Y-76535714D01*
X51371428Y-76607143D01*
X49157142Y-76178571D02*
X49871428Y-76178571D01*
X49942857Y-76892857D01*
X49871428Y-76821429D01*
X49728571Y-76750000D01*
X49371428Y-76750000D01*
X49228571Y-76821429D01*
X49157142Y-76892857D01*
X49085714Y-77035714D01*
X49085714Y-77392857D01*
X49157142Y-77535714D01*
X49228571Y-77607143D01*
X49371428Y-77678571D01*
X49728571Y-77678571D01*
X49871428Y-77607143D01*
X49942857Y-77535714D01*
X48157143Y-76178571D02*
X48014286Y-76178571D01*
X47871429Y-76250000D01*
X47800000Y-76321429D01*
X47728571Y-76464286D01*
X47657143Y-76750000D01*
X47657143Y-77107143D01*
X47728571Y-77392857D01*
X47800000Y-77535714D01*
X47871429Y-77607143D01*
X48014286Y-77678571D01*
X48157143Y-77678571D01*
X48300000Y-77607143D01*
X48371429Y-77535714D01*
X48442857Y-77392857D01*
X48514286Y-77107143D01*
X48514286Y-76750000D01*
X48442857Y-76464286D01*
X48371429Y-76321429D01*
X48300000Y-76250000D01*
X48157143Y-76178571D01*
X46228572Y-77678571D02*
X47085715Y-77678571D01*
X46657143Y-77678571D02*
X46657143Y-76178571D01*
X46800000Y-76392857D01*
X46942858Y-76535714D01*
X47085715Y-76607143D01*
X44800001Y-77678571D02*
X45657144Y-77678571D01*
X45228572Y-77678571D02*
X45228572Y-76178571D01*
X45371429Y-76392857D01*
X45514287Y-76535714D01*
X45657144Y-76607143D01*
X44228573Y-76321429D02*
X44157144Y-76250000D01*
X44014287Y-76178571D01*
X43657144Y-76178571D01*
X43514287Y-76250000D01*
X43442858Y-76321429D01*
X43371430Y-76464286D01*
X43371430Y-76607143D01*
X43442858Y-76821429D01*
X44300001Y-77678571D01*
X43371430Y-77678571D01*
X57192855Y-79292857D02*
X57692855Y-79292857D01*
X57692855Y-80078571D02*
X57692855Y-78578571D01*
X56978569Y-78578571D01*
X56407141Y-80078571D02*
X56407141Y-79078571D01*
X56407141Y-79364286D02*
X56335713Y-79221429D01*
X56264284Y-79150000D01*
X56121427Y-79078571D01*
X55978570Y-79078571D01*
X54907142Y-80007143D02*
X55049999Y-80078571D01*
X55335713Y-80078571D01*
X55478570Y-80007143D01*
X55549999Y-79864286D01*
X55549999Y-79292857D01*
X55478570Y-79150000D01*
X55335713Y-79078571D01*
X55049999Y-79078571D01*
X54907142Y-79150000D01*
X54835713Y-79292857D01*
X54835713Y-79435714D01*
X55549999Y-79578571D01*
X53621428Y-80007143D02*
X53764285Y-80078571D01*
X54049999Y-80078571D01*
X54192856Y-80007143D01*
X54264285Y-79864286D01*
X54264285Y-79292857D01*
X54192856Y-79150000D01*
X54049999Y-79078571D01*
X53764285Y-79078571D01*
X53621428Y-79150000D01*
X53549999Y-79292857D01*
X53549999Y-79435714D01*
X54264285Y-79578571D01*
X52907142Y-80078571D02*
X52907142Y-78578571D01*
X52549999Y-78578571D01*
X52335714Y-78650000D01*
X52192856Y-78792857D01*
X52121428Y-78935714D01*
X52049999Y-79221429D01*
X52049999Y-79435714D01*
X52121428Y-79721429D01*
X52192856Y-79864286D01*
X52335714Y-80007143D01*
X52549999Y-80078571D01*
X52907142Y-80078571D01*
X51478571Y-80007143D02*
X51264285Y-80078571D01*
X50907142Y-80078571D01*
X50764285Y-80007143D01*
X50692856Y-79935714D01*
X50621428Y-79792857D01*
X50621428Y-79650000D01*
X50692856Y-79507143D01*
X50764285Y-79435714D01*
X50907142Y-79364286D01*
X51192856Y-79292857D01*
X51335714Y-79221429D01*
X51407142Y-79150000D01*
X51478571Y-79007143D01*
X51478571Y-78864286D01*
X51407142Y-78721429D01*
X51335714Y-78650000D01*
X51192856Y-78578571D01*
X50835714Y-78578571D01*
X50621428Y-78650000D01*
X49978571Y-80078571D02*
X49978571Y-78578571D01*
X49407143Y-78578571D01*
X49264285Y-78650000D01*
X49192857Y-78721429D01*
X49121428Y-78864286D01*
X49121428Y-79078571D01*
X49192857Y-79221429D01*
X49264285Y-79292857D01*
X49407143Y-79364286D01*
X49978571Y-79364286D01*
X47335714Y-80078571D02*
X47335714Y-78578571D01*
X46407142Y-79221429D02*
X46550000Y-79150000D01*
X46621428Y-79078571D01*
X46692857Y-78935714D01*
X46692857Y-78864286D01*
X46621428Y-78721429D01*
X46550000Y-78650000D01*
X46407142Y-78578571D01*
X46121428Y-78578571D01*
X45978571Y-78650000D01*
X45907142Y-78721429D01*
X45835714Y-78864286D01*
X45835714Y-78935714D01*
X45907142Y-79078571D01*
X45978571Y-79150000D01*
X46121428Y-79221429D01*
X46407142Y-79221429D01*
X46550000Y-79292857D01*
X46621428Y-79364286D01*
X46692857Y-79507143D01*
X46692857Y-79792857D01*
X46621428Y-79935714D01*
X46550000Y-80007143D01*
X46407142Y-80078571D01*
X46121428Y-80078571D01*
X45978571Y-80007143D01*
X45907142Y-79935714D01*
X45835714Y-79792857D01*
X45835714Y-79507143D01*
X45907142Y-79364286D01*
X45978571Y-79292857D01*
X46121428Y-79221429D01*
X44264286Y-78578571D02*
X43764286Y-80078571D01*
X43264286Y-78578571D01*
X41978572Y-80078571D02*
X42835715Y-80078571D01*
X42407143Y-80078571D02*
X42407143Y-78578571D01*
X42550000Y-78792857D01*
X42692858Y-78935714D01*
X42835715Y-79007143D01*
X41335715Y-79935714D02*
X41264287Y-80007143D01*
X41335715Y-80078571D01*
X41407144Y-80007143D01*
X41335715Y-79935714D01*
X41335715Y-80078571D01*
X40335715Y-78578571D02*
X40192858Y-78578571D01*
X40050001Y-78650000D01*
X39978572Y-78721429D01*
X39907143Y-78864286D01*
X39835715Y-79150000D01*
X39835715Y-79507143D01*
X39907143Y-79792857D01*
X39978572Y-79935714D01*
X40050001Y-80007143D01*
X40192858Y-80078571D01*
X40335715Y-80078571D01*
X40478572Y-80007143D01*
X40550001Y-79935714D01*
X40621429Y-79792857D01*
X40692858Y-79507143D01*
X40692858Y-79150000D01*
X40621429Y-78864286D01*
X40550001Y-78721429D01*
X40478572Y-78650000D01*
X40335715Y-78578571D01*
D12*
X33450000Y-74400000D02*
X33700000Y-74800000D01*
X33700000Y-74800000D02*
X33275000Y-74775000D01*
X33275000Y-74775000D02*
X33400000Y-74450000D01*
X33625000Y-79250000D02*
X33850000Y-79025000D01*
X33850000Y-79025000D02*
X33450000Y-78975000D01*
X33300000Y-79375000D02*
X32875000Y-79750000D01*
X32875000Y-79750000D02*
X32850000Y-79750000D01*
X32800860Y-79900680D02*
X31200660Y-80299460D01*
X31200660Y-80299460D02*
X29699520Y-79999740D01*
X29699520Y-79999740D02*
X28698760Y-79301240D01*
X28698760Y-79301240D02*
X28000260Y-78198880D01*
X28000260Y-78198880D02*
X27700540Y-77200660D01*
X27700540Y-77200660D02*
X27901200Y-75999240D01*
X27901200Y-75999240D02*
X28500640Y-74800360D01*
X28500640Y-74800360D02*
X29498860Y-74000260D01*
X29498860Y-74000260D02*
X30900940Y-73700540D01*
X30900940Y-73700540D02*
X32300480Y-73901200D01*
X32300480Y-73901200D02*
X33199640Y-74500640D01*
X33400300Y-78998980D02*
X32998980Y-79400300D01*
X32998980Y-79400300D02*
X32399540Y-79799080D01*
X32399540Y-79799080D02*
X31800100Y-79999740D01*
X31800100Y-79999740D02*
X31099060Y-80098800D01*
X31099060Y-80098800D02*
X30400560Y-79999740D01*
X30400560Y-79999740D02*
X29699520Y-79799080D01*
X29699520Y-79799080D02*
X29100080Y-79301240D01*
X29100080Y-79301240D02*
X28500640Y-78699260D01*
X28500640Y-78699260D02*
X28200920Y-78198880D01*
X28200920Y-78198880D02*
X27901200Y-77398780D01*
X27901200Y-77398780D02*
X27901200Y-76799340D01*
X27901200Y-76799340D02*
X28000260Y-76199900D01*
X28000260Y-76199900D02*
X28200920Y-75699520D01*
X28200920Y-75699520D02*
X28599700Y-75001020D01*
X28599700Y-75001020D02*
X29100080Y-74599700D01*
X29100080Y-74599700D02*
X29699520Y-74200920D01*
X29699520Y-74200920D02*
X30298960Y-74000260D01*
X30298960Y-74000260D02*
X31000000Y-73901200D01*
X31000000Y-73901200D02*
X31800100Y-74000260D01*
X31800100Y-74000260D02*
X32600200Y-74299980D01*
X32600200Y-74299980D02*
X33199640Y-74800360D01*
X33400300Y-74399040D02*
X32699260Y-73901200D01*
X32699260Y-73901200D02*
X32000760Y-73598940D01*
X32000760Y-73598940D02*
X31099060Y-73499880D01*
X31099060Y-73499880D02*
X30199900Y-73598940D01*
X30199900Y-73598940D02*
X29300740Y-73901200D01*
X29300740Y-73901200D02*
X28200920Y-74800360D01*
X28200920Y-74800360D02*
X27598940Y-76100840D01*
X27598940Y-76100840D02*
X27499880Y-77200660D01*
X27499880Y-77200660D02*
X27901200Y-78501140D01*
X27901200Y-78501140D02*
X28299980Y-79199640D01*
X28299980Y-79199640D02*
X29001020Y-79799080D01*
X29001020Y-79799080D02*
X29699520Y-80200400D01*
X29699520Y-80200400D02*
X30799340Y-80500120D01*
X30799340Y-80500120D02*
X31701040Y-80401060D01*
X31701040Y-80401060D02*
X32501140Y-80200400D01*
X32501140Y-80200400D02*
X33100580Y-79799080D01*
X33100580Y-79799080D02*
X33600960Y-79301240D01*
X31000000Y-71599960D02*
X31500380Y-71599960D01*
X31500380Y-71599960D02*
X32300480Y-71899680D01*
X32300480Y-71899680D02*
X32998980Y-72100340D01*
X32998980Y-72100340D02*
X33700020Y-72301000D01*
X33700020Y-72301000D02*
X34299460Y-72798840D01*
X34299460Y-72798840D02*
X35000500Y-73400820D01*
X35000500Y-73400820D02*
X35500880Y-74000260D01*
X35500880Y-74000260D02*
X36001260Y-74899420D01*
X36001260Y-74899420D02*
X36300980Y-75900180D01*
X36300980Y-75900180D02*
X36400040Y-77099060D01*
X36400040Y-77099060D02*
X36199380Y-78300480D01*
X36199380Y-78300480D02*
X35800600Y-79400300D01*
X35800600Y-79400300D02*
X34799840Y-80898900D01*
X34799840Y-80898900D02*
X33600960Y-81800600D01*
X33600960Y-81800600D02*
X32300480Y-82300980D01*
X32300480Y-82300980D02*
X30900940Y-82300980D01*
X30900940Y-82300980D02*
X29399800Y-82199380D01*
X29399800Y-82199380D02*
X28399040Y-81699000D01*
X28399040Y-81699000D02*
X26798840Y-80401060D01*
X26798840Y-80401060D02*
X25998740Y-78800860D01*
X25998740Y-78800860D02*
X25599960Y-77299720D01*
X25599960Y-77299720D02*
X25800620Y-75600460D01*
X25800620Y-75600460D02*
X26301000Y-74500640D01*
X26301000Y-74500640D02*
X27598940Y-72900440D01*
X27598940Y-72900440D02*
X28599700Y-72199400D01*
X28599700Y-72199400D02*
X29600460Y-71800620D01*
X29600460Y-71800620D02*
X31000000Y-71699020D01*
X36180604Y-77000000D02*
G75*
G03X36180604Y-77000000I-5180604J0D01*
G01*
X36588000Y-77000000D02*
G75*
G03X36588000Y-77000000I-5588000J0D01*
G01*
X18398780Y-77299720D02*
X18398780Y-80299460D01*
X18398780Y-80299460D02*
X18200660Y-80299460D01*
X18200660Y-80299460D02*
X18200660Y-77299720D01*
X18200660Y-77299720D02*
X17900940Y-77299720D01*
X17900940Y-77299720D02*
X17900940Y-80401060D01*
X17900940Y-80401060D02*
X17700280Y-80401060D01*
X17700280Y-80401060D02*
X17700280Y-77299720D01*
X16801120Y-75100080D02*
X19399540Y-75100080D01*
X19399540Y-75100080D02*
X19399540Y-75498860D01*
X19399540Y-75498860D02*
X19399540Y-75399800D01*
X19399540Y-75399800D02*
X16801120Y-75399800D01*
X16801120Y-75399800D02*
X16801120Y-75699520D01*
X16801120Y-75699520D02*
X19300480Y-75699520D01*
X19300480Y-75699520D02*
X19300480Y-75900180D01*
X19300480Y-75900180D02*
X16900180Y-75900180D01*
X16900180Y-75900180D02*
X16900180Y-76199900D01*
X16900180Y-76199900D02*
X19399540Y-76199900D01*
X19399540Y-76199900D02*
X19399540Y-76499620D01*
X19399540Y-76499620D02*
X16900180Y-76499620D01*
X16900180Y-76499620D02*
X16900180Y-76700280D01*
X16900180Y-76700280D02*
X19399540Y-76700280D01*
X19399540Y-76700280D02*
X19399540Y-76900940D01*
X19399540Y-76900940D02*
X16900180Y-76900940D01*
X19399540Y-74800360D02*
X16900180Y-74800360D01*
X17700280Y-73200160D02*
X17700280Y-74000260D01*
X18299720Y-73200160D02*
X18299720Y-73901200D01*
X18000000Y-73200160D02*
X18000000Y-74000260D01*
X18599440Y-80500120D02*
X17499620Y-80500120D01*
X17499620Y-80500120D02*
X17499620Y-77299720D01*
X18599440Y-77299720D02*
X18599440Y-80500120D01*
X19501140Y-74500640D02*
X16699520Y-74500640D01*
X16699520Y-74500640D02*
X16699520Y-77200660D01*
X16699520Y-77200660D02*
X19501140Y-77200660D01*
X19501140Y-77200660D02*
X19501140Y-74500640D01*
X18583277Y-73598940D02*
G75*
G03X18583277Y-73598940I-583277J0D01*
G01*
X18000000Y-71599960D02*
X18500380Y-71599960D01*
X18500380Y-71599960D02*
X19300480Y-71899680D01*
X19300480Y-71899680D02*
X19998980Y-72100340D01*
X19998980Y-72100340D02*
X20700020Y-72301000D01*
X20700020Y-72301000D02*
X21299460Y-72798840D01*
X21299460Y-72798840D02*
X22000500Y-73400820D01*
X22000500Y-73400820D02*
X22500880Y-74000260D01*
X22500880Y-74000260D02*
X23001260Y-74899420D01*
X23001260Y-74899420D02*
X23300980Y-75900180D01*
X23300980Y-75900180D02*
X23400040Y-77099060D01*
X23400040Y-77099060D02*
X23199380Y-78300480D01*
X23199380Y-78300480D02*
X22800600Y-79400300D01*
X22800600Y-79400300D02*
X21799840Y-80898900D01*
X21799840Y-80898900D02*
X20600960Y-81800600D01*
X20600960Y-81800600D02*
X19300480Y-82300980D01*
X19300480Y-82300980D02*
X17900940Y-82300980D01*
X17900940Y-82300980D02*
X16399800Y-82199380D01*
X16399800Y-82199380D02*
X15399040Y-81699000D01*
X15399040Y-81699000D02*
X13798840Y-80401060D01*
X13798840Y-80401060D02*
X12998740Y-78800860D01*
X12998740Y-78800860D02*
X12599960Y-77299720D01*
X12599960Y-77299720D02*
X12800620Y-75600460D01*
X12800620Y-75600460D02*
X13301000Y-74500640D01*
X13301000Y-74500640D02*
X14598940Y-72900440D01*
X14598940Y-72900440D02*
X15599700Y-72199400D01*
X15599700Y-72199400D02*
X16600460Y-71800620D01*
X16600460Y-71800620D02*
X18000000Y-71699020D01*
X23180604Y-77000000D02*
G75*
G03X23180604Y-77000000I-5180604J0D01*
G01*
X23588000Y-77000000D02*
G75*
G03X23588000Y-77000000I-5588000J0D01*
G01*
D13*
X65200000Y-48950000D03*
D14*
X67740000Y-48950000D03*
X65200000Y-46410000D03*
X67740000Y-46410000D03*
X65200000Y-43870000D03*
X67740000Y-43870000D03*
X65200000Y-41330000D03*
X67740000Y-41330000D03*
X65200000Y-38790000D03*
X67740000Y-38790000D03*
X65200000Y-36250000D03*
X67740000Y-36250000D03*
X65200000Y-33710000D03*
X67740000Y-33710000D03*
X65200000Y-31170000D03*
X67740000Y-31170000D03*
X65200000Y-28630000D03*
X67740000Y-28630000D03*
X65200000Y-26090000D03*
X67740000Y-26090000D03*
X65200000Y-23550000D03*
X67740000Y-23550000D03*
D15*
X5200000Y-79200000D03*
X65200000Y-79200000D03*
X65200000Y-5200000D03*
X5200000Y-5200000D03*
D16*
X11500000Y-25900000D03*
X11500000Y-22100000D03*
D17*
X4000000Y-27000000D03*
X4000000Y-21000000D03*
D16*
X11500000Y-37900000D03*
X11500000Y-34100000D03*
D17*
X4000000Y-39000000D03*
X4000000Y-33000000D03*
D16*
X11500000Y-49900000D03*
X11500000Y-46100000D03*
D17*
X4000000Y-51000000D03*
X4000000Y-45000000D03*
D16*
X11500000Y-61900000D03*
X11500000Y-58100000D03*
D17*
X4000000Y-63000000D03*
X4000000Y-57000000D03*
D18*
X36000000Y-64000000D03*
X36000000Y-52000000D03*
X36000000Y-40000000D03*
X36000000Y-28000000D03*
X38500000Y-28000000D03*
X38500000Y-40000000D03*
X38500000Y-52000000D03*
X38500000Y-64000000D03*
X32250000Y-32000000D03*
X31750000Y-67250000D03*
X31750000Y-55250000D03*
X31750000Y-43250000D03*
X32975010Y-31051873D03*
X32500000Y-68000000D03*
X32500000Y-56000000D03*
X32500000Y-44000000D03*
X33750000Y-59000000D03*
X33750000Y-47000000D03*
X33750000Y-35000000D03*
X33750000Y-23000000D03*
X43500000Y-57500000D03*
X42750000Y-45500000D03*
D19*
X65200000Y-48950000D02*
X65194261Y-48950000D01*
X65194261Y-48950000D02*
X48806014Y-65338247D01*
X48806014Y-65338247D02*
X37338247Y-65338247D01*
X37338247Y-65338247D02*
X36000000Y-64000000D01*
X67740000Y-48950000D02*
X66518686Y-48950000D01*
X66518686Y-48950000D02*
X65200000Y-48950000D01*
X36000000Y-52000000D02*
X36000000Y-64000000D01*
X36000000Y-40000000D02*
X36000000Y-52000000D01*
X36000000Y-28000000D02*
X36000000Y-40000000D01*
X38500000Y-28000000D02*
X39153718Y-27346282D01*
X39153718Y-27346282D02*
X66483718Y-27346282D01*
X66483718Y-27346282D02*
X66876401Y-26953599D01*
X66876401Y-26953599D02*
X67740000Y-26090000D01*
X38500000Y-64000000D02*
X38500000Y-52000000D01*
X38500000Y-52000000D02*
X38500000Y-51250000D01*
X38500000Y-51250000D02*
X38500000Y-40000000D01*
X38500000Y-40000000D02*
X38500000Y-28000000D01*
X31750000Y-43250000D02*
X31750000Y-32500000D01*
X31750000Y-32500000D02*
X32250000Y-32000000D01*
X31750000Y-43250000D02*
X31750000Y-55250000D01*
X31750000Y-55250000D02*
X31750000Y-67250000D01*
X32500000Y-44000000D02*
X32500000Y-33023480D01*
X32500000Y-33023480D02*
X32975001Y-32548479D01*
X32975001Y-32548479D02*
X32975001Y-31051882D01*
X32975001Y-31051882D02*
X32975010Y-31051873D01*
X32500000Y-56000000D02*
X32500000Y-44000000D01*
X32500000Y-68000000D02*
X32500000Y-56000000D01*
X33750000Y-47000000D02*
X33750000Y-59000000D01*
X33750000Y-35000000D02*
X33750000Y-47000000D01*
X33750000Y-23000000D02*
X33750000Y-35000000D01*
X43500000Y-57500000D02*
X43500000Y-34000000D01*
X43500000Y-34000000D02*
X45072498Y-32427502D01*
X45072498Y-32427502D02*
X66482498Y-32427502D01*
X66482498Y-32427502D02*
X66876401Y-32033599D01*
X66876401Y-32033599D02*
X67740000Y-31170000D01*
X42750000Y-45500000D02*
X42750000Y-31242000D01*
X42750000Y-31242000D02*
X44093116Y-29898884D01*
X66876401Y-29493599D02*
X67740000Y-28630000D01*
X44093116Y-29898884D02*
X66471116Y-29898884D01*
X66471116Y-29898884D02*
X66876401Y-29493599D01*
G36*
X69950000Y-83950000D02*
X450000Y-83950000D01*
X450000Y-79483779D01*
X1820564Y-79483779D01*
X1940044Y-80134777D01*
X2183696Y-80750170D01*
X2542237Y-81306517D01*
X3002012Y-81782628D01*
X3545507Y-82160367D01*
X4152021Y-82425346D01*
X4798453Y-82567474D01*
X5460180Y-82581335D01*
X6111996Y-82466402D01*
X6729075Y-82227053D01*
X7287911Y-81872405D01*
X7767220Y-81415965D01*
X8148744Y-80875120D01*
X8417952Y-80270470D01*
X8564588Y-79625046D01*
X8575145Y-78869064D01*
X8446586Y-78219798D01*
X8194367Y-77607867D01*
X7847583Y-77085916D01*
X11847100Y-77085916D01*
X11980969Y-78279385D01*
X12344101Y-79424122D01*
X12922664Y-80476524D01*
X13694622Y-81396508D01*
X14630570Y-82149029D01*
X15694858Y-82705426D01*
X16846949Y-83044505D01*
X18042959Y-83153350D01*
X19237333Y-83027816D01*
X20384577Y-82672685D01*
X21440994Y-82101483D01*
X22366344Y-81335967D01*
X23125381Y-80405295D01*
X23689194Y-79344917D01*
X24036308Y-78195221D01*
X24145075Y-77085916D01*
X24847100Y-77085916D01*
X24980969Y-78279385D01*
X25344101Y-79424122D01*
X25922664Y-80476524D01*
X26694622Y-81396508D01*
X27630570Y-82149029D01*
X28694858Y-82705426D01*
X29846949Y-83044505D01*
X31042959Y-83153350D01*
X32237333Y-83027816D01*
X33384577Y-82672685D01*
X34440994Y-82101483D01*
X35366344Y-81335967D01*
X36125381Y-80405295D01*
X36689194Y-79344917D01*
X37036308Y-78195221D01*
X37153500Y-77000000D01*
X37151101Y-76828184D01*
X37000582Y-75636701D01*
X36621502Y-74497146D01*
X36028301Y-73452924D01*
X35399975Y-72725000D01*
X37310716Y-72725000D01*
X37310716Y-80975000D01*
X60289285Y-80975000D01*
X60289285Y-79483779D01*
X61820564Y-79483779D01*
X61940044Y-80134777D01*
X62183696Y-80750170D01*
X62542237Y-81306517D01*
X63002012Y-81782628D01*
X63545507Y-82160367D01*
X64152021Y-82425346D01*
X64798453Y-82567474D01*
X65460180Y-82581335D01*
X66111996Y-82466402D01*
X66729075Y-82227053D01*
X67287911Y-81872405D01*
X67767220Y-81415965D01*
X68148744Y-80875120D01*
X68417952Y-80270470D01*
X68564588Y-79625046D01*
X68575145Y-78869064D01*
X68446586Y-78219798D01*
X68194367Y-77607867D01*
X67828092Y-77056580D01*
X67361715Y-76586935D01*
X66812999Y-76216821D01*
X66202844Y-75960336D01*
X65554491Y-75827248D01*
X64892635Y-75822627D01*
X64242487Y-75946650D01*
X63628810Y-76194591D01*
X63074980Y-76557008D01*
X62602090Y-77020095D01*
X62228155Y-77566214D01*
X61967416Y-78174564D01*
X61829805Y-78821972D01*
X61820564Y-79483779D01*
X60289285Y-79483779D01*
X60289285Y-72725000D01*
X37310716Y-72725000D01*
X35399975Y-72725000D01*
X35243574Y-72543808D01*
X34297210Y-71804428D01*
X33225257Y-71262945D01*
X32068544Y-70939985D01*
X30871131Y-70847850D01*
X29678626Y-70990047D01*
X28536452Y-71361162D01*
X27488114Y-71947058D01*
X26573543Y-72725420D01*
X25827573Y-73666599D01*
X25278620Y-74734746D01*
X24947593Y-75889175D01*
X24847100Y-77085916D01*
X24145075Y-77085916D01*
X24153500Y-77000000D01*
X24151101Y-76828184D01*
X24000582Y-75636701D01*
X23621502Y-74497146D01*
X23028301Y-73452924D01*
X22243574Y-72543808D01*
X21297210Y-71804428D01*
X20225257Y-71262945D01*
X19068544Y-70939985D01*
X17871131Y-70847850D01*
X16678626Y-70990047D01*
X15536452Y-71361162D01*
X14488114Y-71947058D01*
X13573543Y-72725420D01*
X12827573Y-73666599D01*
X12278620Y-74734746D01*
X11947593Y-75889175D01*
X11847100Y-77085916D01*
X7847583Y-77085916D01*
X7828092Y-77056580D01*
X7361715Y-76586935D01*
X6812999Y-76216821D01*
X6202844Y-75960336D01*
X5554491Y-75827248D01*
X4892635Y-75822627D01*
X4242487Y-75946650D01*
X3628810Y-76194591D01*
X3074980Y-76557008D01*
X2602090Y-77020095D01*
X2228155Y-77566214D01*
X1967416Y-78174564D01*
X1829805Y-78821972D01*
X1820564Y-79483779D01*
X450000Y-79483779D01*
X450000Y-63178676D01*
X1872207Y-63178676D01*
X1947435Y-63588563D01*
X2100845Y-63976033D01*
X2326593Y-64326326D01*
X2616081Y-64626099D01*
X2958282Y-64863935D01*
X3340162Y-65030774D01*
X3747174Y-65120261D01*
X4163817Y-65128989D01*
X4574220Y-65056624D01*
X4962751Y-64905922D01*
X5314611Y-64682625D01*
X5616398Y-64395237D01*
X5856617Y-64054705D01*
X6026118Y-63674000D01*
X6118445Y-63267622D01*
X6125091Y-62791633D01*
X6090239Y-62615614D01*
X6123193Y-62615614D01*
X6171870Y-62880835D01*
X6271135Y-63131551D01*
X6417208Y-63358211D01*
X6604523Y-63552182D01*
X6825947Y-63706075D01*
X7073046Y-63814030D01*
X7336407Y-63871934D01*
X7605999Y-63877581D01*
X7871554Y-63830756D01*
X8122956Y-63733244D01*
X8350631Y-63588757D01*
X8545904Y-63402801D01*
X8676358Y-63217870D01*
X10288196Y-63217870D01*
X10454124Y-63467123D01*
X10779950Y-63641051D01*
X11133448Y-63748072D01*
X11501032Y-63784073D01*
X11868577Y-63747670D01*
X12221957Y-63640262D01*
X12545876Y-63467123D01*
X12711804Y-63217870D01*
X11500000Y-62006066D01*
X10288196Y-63217870D01*
X8676358Y-63217870D01*
X8701340Y-63182456D01*
X8811017Y-62936117D01*
X8870758Y-62673167D01*
X8875059Y-62365174D01*
X8822683Y-62100658D01*
X8740404Y-61901032D01*
X9615927Y-61901032D01*
X9652330Y-62268577D01*
X9759738Y-62621957D01*
X9932877Y-62945876D01*
X10182130Y-63111804D01*
X11393934Y-61900000D01*
X11606066Y-61900000D01*
X12817870Y-63111804D01*
X13067123Y-62945876D01*
X13241051Y-62620050D01*
X13348072Y-62266552D01*
X13384073Y-61898968D01*
X13347670Y-61531423D01*
X13240262Y-61178043D01*
X13067123Y-60854124D01*
X12817870Y-60688196D01*
X11606066Y-61900000D01*
X11393934Y-61900000D01*
X10182130Y-60688196D01*
X9932877Y-60854124D01*
X9758949Y-61179950D01*
X9651928Y-61533448D01*
X9615927Y-61901032D01*
X8740404Y-61901032D01*
X8719927Y-61851353D01*
X8570704Y-61626755D01*
X8380699Y-61435418D01*
X8157148Y-61284631D01*
X7908566Y-61180137D01*
X7644422Y-61125916D01*
X7374777Y-61124033D01*
X7109902Y-61174561D01*
X6859886Y-61275574D01*
X6634251Y-61423225D01*
X6441592Y-61611891D01*
X6289248Y-61834384D01*
X6183021Y-62082230D01*
X6126958Y-62345989D01*
X6123193Y-62615614D01*
X6090239Y-62615614D01*
X6044147Y-62382836D01*
X5885342Y-61997546D01*
X5654725Y-61650439D01*
X5361080Y-61354737D01*
X5015592Y-61121702D01*
X4631420Y-60960211D01*
X4223198Y-60876415D01*
X3806474Y-60873506D01*
X3397121Y-60951594D01*
X3010732Y-61107705D01*
X2662024Y-61335894D01*
X2364279Y-61627467D01*
X2128838Y-61971320D01*
X1964669Y-62354355D01*
X1878025Y-62761982D01*
X1872207Y-63178676D01*
X450000Y-63178676D01*
X450000Y-60582130D01*
X10288196Y-60582130D01*
X11500000Y-61793934D01*
X12711804Y-60582130D01*
X12545876Y-60332877D01*
X12220050Y-60158949D01*
X11866552Y-60051928D01*
X11498968Y-60015927D01*
X11131423Y-60052330D01*
X10778043Y-60159738D01*
X10454124Y-60332877D01*
X10288196Y-60582130D01*
X450000Y-60582130D01*
X450000Y-57178676D01*
X1872207Y-57178676D01*
X1947435Y-57588563D01*
X2100845Y-57976033D01*
X2326593Y-58326326D01*
X2616081Y-58626099D01*
X2958282Y-58863935D01*
X3340162Y-59030774D01*
X3747174Y-59120261D01*
X4163817Y-59128989D01*
X4574220Y-59056624D01*
X4962751Y-58905922D01*
X5314611Y-58682625D01*
X5616398Y-58395237D01*
X5856617Y-58054705D01*
X6026118Y-57674000D01*
X6039383Y-57615614D01*
X6123193Y-57615614D01*
X6171870Y-57880835D01*
X6271135Y-58131551D01*
X6417208Y-58358211D01*
X6604523Y-58552182D01*
X6825947Y-58706075D01*
X7073046Y-58814030D01*
X7336407Y-58871934D01*
X7605999Y-58877581D01*
X7871554Y-58830756D01*
X8122956Y-58733244D01*
X8350631Y-58588757D01*
X8545904Y-58402801D01*
X8648293Y-58257655D01*
X9622536Y-58257655D01*
X9688914Y-58619321D01*
X9824276Y-58961205D01*
X10023465Y-59270287D01*
X10278895Y-59534793D01*
X10580837Y-59744648D01*
X10917790Y-59891859D01*
X11276918Y-59970819D01*
X11644544Y-59978519D01*
X12006664Y-59914668D01*
X12349486Y-59781696D01*
X12659951Y-59584669D01*
X12926233Y-59331091D01*
X13138191Y-59030622D01*
X13287751Y-58694706D01*
X13369216Y-58336137D01*
X13375080Y-57916147D01*
X13303659Y-57555443D01*
X13163537Y-57215482D01*
X12960051Y-56909211D01*
X12700953Y-56648298D01*
X12396110Y-56442679D01*
X12057135Y-56300187D01*
X11696939Y-56226249D01*
X11329242Y-56223682D01*
X10968048Y-56292583D01*
X10627117Y-56430329D01*
X10319433Y-56631671D01*
X10056717Y-56888942D01*
X9848975Y-57192341D01*
X9704120Y-57530313D01*
X9627670Y-57889985D01*
X9622536Y-58257655D01*
X8648293Y-58257655D01*
X8701340Y-58182456D01*
X8811017Y-57936117D01*
X8870758Y-57673167D01*
X8875059Y-57365174D01*
X8822683Y-57100658D01*
X8719927Y-56851353D01*
X8570704Y-56626755D01*
X8380699Y-56435418D01*
X8157148Y-56284631D01*
X7908566Y-56180137D01*
X7644422Y-56125916D01*
X7374777Y-56124033D01*
X7109902Y-56174561D01*
X6859886Y-56275574D01*
X6634251Y-56423225D01*
X6441592Y-56611891D01*
X6289248Y-56834384D01*
X6183021Y-57082230D01*
X6126958Y-57345989D01*
X6123193Y-57615614D01*
X6039383Y-57615614D01*
X6118445Y-57267622D01*
X6125091Y-56791633D01*
X6044147Y-56382836D01*
X5885342Y-55997546D01*
X5654725Y-55650439D01*
X5361080Y-55354737D01*
X5015592Y-55121702D01*
X4631420Y-54960211D01*
X4223198Y-54876415D01*
X3806474Y-54873506D01*
X3397121Y-54951594D01*
X3010732Y-55107705D01*
X2662024Y-55335894D01*
X2364279Y-55627467D01*
X2128838Y-55971320D01*
X1964669Y-56354355D01*
X1878025Y-56761982D01*
X1872207Y-57178676D01*
X450000Y-57178676D01*
X450000Y-51178676D01*
X1872207Y-51178676D01*
X1947435Y-51588563D01*
X2100845Y-51976033D01*
X2326593Y-52326326D01*
X2616081Y-52626099D01*
X2958282Y-52863935D01*
X3340162Y-53030774D01*
X3747174Y-53120261D01*
X4163817Y-53128989D01*
X4574220Y-53056624D01*
X4962751Y-52905922D01*
X5314611Y-52682625D01*
X5616398Y-52395237D01*
X5856617Y-52054705D01*
X6026118Y-51674000D01*
X6118445Y-51267622D01*
X6125091Y-50791633D01*
X6090239Y-50615614D01*
X6123193Y-50615614D01*
X6171870Y-50880835D01*
X6271135Y-51131551D01*
X6417208Y-51358211D01*
X6604523Y-51552182D01*
X6825947Y-51706075D01*
X7073046Y-51814030D01*
X7336407Y-51871934D01*
X7605999Y-51877581D01*
X7871554Y-51830756D01*
X8122956Y-51733244D01*
X8350631Y-51588757D01*
X8545904Y-51402801D01*
X8676358Y-51217870D01*
X10288196Y-51217870D01*
X10454124Y-51467123D01*
X10779950Y-51641051D01*
X11133448Y-51748072D01*
X11501032Y-51784073D01*
X11868577Y-51747670D01*
X12221957Y-51640262D01*
X12545876Y-51467123D01*
X12711804Y-51217870D01*
X11500000Y-50006066D01*
X10288196Y-51217870D01*
X8676358Y-51217870D01*
X8701340Y-51182456D01*
X8811017Y-50936117D01*
X8870758Y-50673167D01*
X8875059Y-50365174D01*
X8822683Y-50100658D01*
X8740404Y-49901032D01*
X9615927Y-49901032D01*
X9652330Y-50268577D01*
X9759738Y-50621957D01*
X9932877Y-50945876D01*
X10182130Y-51111804D01*
X11393934Y-49900000D01*
X11606066Y-49900000D01*
X12817870Y-51111804D01*
X13067123Y-50945876D01*
X13241051Y-50620050D01*
X13348072Y-50266552D01*
X13384073Y-49898968D01*
X13347670Y-49531423D01*
X13240262Y-49178043D01*
X13067123Y-48854124D01*
X12817870Y-48688196D01*
X11606066Y-49900000D01*
X11393934Y-49900000D01*
X10182130Y-48688196D01*
X9932877Y-48854124D01*
X9758949Y-49179950D01*
X9651928Y-49533448D01*
X9615927Y-49901032D01*
X8740404Y-49901032D01*
X8719927Y-49851353D01*
X8570704Y-49626755D01*
X8380699Y-49435418D01*
X8157148Y-49284631D01*
X7908566Y-49180137D01*
X7644422Y-49125916D01*
X7374777Y-49124033D01*
X7109902Y-49174561D01*
X6859886Y-49275574D01*
X6634251Y-49423225D01*
X6441592Y-49611891D01*
X6289248Y-49834384D01*
X6183021Y-50082230D01*
X6126958Y-50345989D01*
X6123193Y-50615614D01*
X6090239Y-50615614D01*
X6044147Y-50382836D01*
X5885342Y-49997546D01*
X5654725Y-49650439D01*
X5361080Y-49354737D01*
X5015592Y-49121702D01*
X4631420Y-48960211D01*
X4223198Y-48876415D01*
X3806474Y-48873506D01*
X3397121Y-48951594D01*
X3010732Y-49107705D01*
X2662024Y-49335894D01*
X2364279Y-49627467D01*
X2128838Y-49971320D01*
X1964669Y-50354355D01*
X1878025Y-50761982D01*
X1872207Y-51178676D01*
X450000Y-51178676D01*
X450000Y-48582130D01*
X10288196Y-48582130D01*
X11500000Y-49793934D01*
X12711804Y-48582130D01*
X12545876Y-48332877D01*
X12220050Y-48158949D01*
X11866552Y-48051928D01*
X11498968Y-48015927D01*
X11131423Y-48052330D01*
X10778043Y-48159738D01*
X10454124Y-48332877D01*
X10288196Y-48582130D01*
X450000Y-48582130D01*
X450000Y-45178676D01*
X1872207Y-45178676D01*
X1947435Y-45588563D01*
X2100845Y-45976033D01*
X2326593Y-46326326D01*
X2616081Y-46626099D01*
X2958282Y-46863935D01*
X3340162Y-47030774D01*
X3747174Y-47120261D01*
X4163817Y-47128989D01*
X4574220Y-47056624D01*
X4962751Y-46905922D01*
X5314611Y-46682625D01*
X5616398Y-46395237D01*
X5856617Y-46054705D01*
X6026118Y-45674000D01*
X6039383Y-45615614D01*
X6123193Y-45615614D01*
X6171870Y-45880835D01*
X6271135Y-46131551D01*
X6417208Y-46358211D01*
X6604523Y-46552182D01*
X6825947Y-46706075D01*
X7073046Y-46814030D01*
X7336407Y-46871934D01*
X7605999Y-46877581D01*
X7871554Y-46830756D01*
X8122956Y-46733244D01*
X8350631Y-46588757D01*
X8545904Y-46402801D01*
X8648293Y-46257655D01*
X9622536Y-46257655D01*
X9688914Y-46619321D01*
X9824276Y-46961205D01*
X10023465Y-47270287D01*
X10278895Y-47534793D01*
X10580837Y-47744648D01*
X10917790Y-47891859D01*
X11276918Y-47970819D01*
X11644544Y-47978519D01*
X12006664Y-47914668D01*
X12349486Y-47781696D01*
X12659951Y-47584669D01*
X12926233Y-47331091D01*
X13138191Y-47030622D01*
X13287751Y-46694706D01*
X13369216Y-46336137D01*
X13375080Y-45916147D01*
X13303659Y-45555443D01*
X13163537Y-45215482D01*
X12960051Y-44909211D01*
X12700953Y-44648298D01*
X12396110Y-44442679D01*
X12057135Y-44300187D01*
X11696939Y-44226249D01*
X11329242Y-44223682D01*
X10968048Y-44292583D01*
X10627117Y-44430329D01*
X10319433Y-44631671D01*
X10056717Y-44888942D01*
X9848975Y-45192341D01*
X9704120Y-45530313D01*
X9627670Y-45889985D01*
X9622536Y-46257655D01*
X8648293Y-46257655D01*
X8701340Y-46182456D01*
X8811017Y-45936117D01*
X8870758Y-45673167D01*
X8875059Y-45365174D01*
X8822683Y-45100658D01*
X8719927Y-44851353D01*
X8570704Y-44626755D01*
X8380699Y-44435418D01*
X8157148Y-44284631D01*
X7908566Y-44180137D01*
X7644422Y-44125916D01*
X7374777Y-44124033D01*
X7109902Y-44174561D01*
X6859886Y-44275574D01*
X6634251Y-44423225D01*
X6441592Y-44611891D01*
X6289248Y-44834384D01*
X6183021Y-45082230D01*
X6126958Y-45345989D01*
X6123193Y-45615614D01*
X6039383Y-45615614D01*
X6118445Y-45267622D01*
X6125091Y-44791633D01*
X6044147Y-44382836D01*
X5885342Y-43997546D01*
X5654725Y-43650439D01*
X5361080Y-43354737D01*
X5302411Y-43315164D01*
X30973981Y-43315164D01*
X31001417Y-43464653D01*
X31057367Y-43605965D01*
X31139699Y-43733719D01*
X31245277Y-43843048D01*
X31250000Y-43846331D01*
X31250000Y-54654874D01*
X31153443Y-54749429D01*
X31067576Y-54874834D01*
X31007703Y-55014529D01*
X30976103Y-55163194D01*
X30973981Y-55315164D01*
X31001417Y-55464653D01*
X31057367Y-55605965D01*
X31139699Y-55733719D01*
X31245277Y-55843048D01*
X31250000Y-55846331D01*
X31250000Y-66654874D01*
X31153443Y-66749429D01*
X31067576Y-66874834D01*
X31007703Y-67014529D01*
X30976103Y-67163194D01*
X30973981Y-67315164D01*
X31001417Y-67464653D01*
X31057367Y-67605965D01*
X31139699Y-67733719D01*
X31245277Y-67843048D01*
X31370079Y-67929788D01*
X31509353Y-67990635D01*
X31657793Y-68023272D01*
X31724546Y-68024670D01*
X31723981Y-68065164D01*
X31751417Y-68214653D01*
X31807367Y-68355965D01*
X31889699Y-68483719D01*
X31995277Y-68593048D01*
X32120079Y-68679788D01*
X32259353Y-68740635D01*
X32407793Y-68773272D01*
X32559745Y-68776455D01*
X32709421Y-68750063D01*
X32851121Y-68695101D01*
X32979446Y-68613663D01*
X33089510Y-68508851D01*
X33177119Y-68384657D01*
X33238937Y-68245812D01*
X33272609Y-68097603D01*
X33275033Y-67924007D01*
X33245513Y-67774916D01*
X33187595Y-67634399D01*
X33103488Y-67507807D01*
X33000000Y-67403594D01*
X33000000Y-59206932D01*
X33001417Y-59214653D01*
X33057367Y-59355965D01*
X33139699Y-59483719D01*
X33245277Y-59593048D01*
X33370079Y-59679788D01*
X33509353Y-59740635D01*
X33657793Y-59773272D01*
X33809745Y-59776455D01*
X33959421Y-59750063D01*
X34101121Y-59695101D01*
X34229446Y-59613663D01*
X34339510Y-59508851D01*
X34427119Y-59384657D01*
X34488937Y-59245812D01*
X34522609Y-59097603D01*
X34525033Y-58924007D01*
X34495513Y-58774916D01*
X34437595Y-58634399D01*
X34353488Y-58507807D01*
X34250000Y-58403594D01*
X34250000Y-47594090D01*
X34339510Y-47508851D01*
X34427119Y-47384657D01*
X34488937Y-47245812D01*
X34522609Y-47097603D01*
X34525033Y-46924007D01*
X34495513Y-46774916D01*
X34437595Y-46634399D01*
X34353488Y-46507807D01*
X34250000Y-46403594D01*
X34250000Y-35594090D01*
X34339510Y-35508851D01*
X34427119Y-35384657D01*
X34488937Y-35245812D01*
X34522609Y-35097603D01*
X34525033Y-34924007D01*
X34495513Y-34774916D01*
X34437595Y-34634399D01*
X34353488Y-34507807D01*
X34250000Y-34403594D01*
X34250000Y-28065164D01*
X35223981Y-28065164D01*
X35251417Y-28214653D01*
X35307367Y-28355965D01*
X35389699Y-28483719D01*
X35495277Y-28593048D01*
X35500000Y-28596331D01*
X35500000Y-39404874D01*
X35403443Y-39499429D01*
X35317576Y-39624834D01*
X35257703Y-39764529D01*
X35226103Y-39913194D01*
X35223981Y-40065164D01*
X35251417Y-40214653D01*
X35307367Y-40355965D01*
X35389699Y-40483719D01*
X35495277Y-40593048D01*
X35500000Y-40596331D01*
X35500000Y-51404874D01*
X35403443Y-51499429D01*
X35317576Y-51624834D01*
X35257703Y-51764529D01*
X35226103Y-51913194D01*
X35223981Y-52065164D01*
X35251417Y-52214653D01*
X35307367Y-52355965D01*
X35389699Y-52483719D01*
X35495277Y-52593048D01*
X35500000Y-52596331D01*
X35500000Y-63404874D01*
X35403443Y-63499429D01*
X35317576Y-63624834D01*
X35257703Y-63764529D01*
X35226103Y-63913194D01*
X35223981Y-64065164D01*
X35251417Y-64214653D01*
X35307367Y-64355965D01*
X35389699Y-64483719D01*
X35495277Y-64593048D01*
X35620079Y-64679788D01*
X35759353Y-64740635D01*
X35907793Y-64773272D01*
X36059745Y-64776455D01*
X36067909Y-64775015D01*
X36984694Y-65691800D01*
X37020339Y-65721079D01*
X37055763Y-65750804D01*
X37058070Y-65752072D01*
X37060099Y-65753739D01*
X37100768Y-65775546D01*
X37141276Y-65797815D01*
X37143783Y-65798610D01*
X37146099Y-65799852D01*
X37190262Y-65813354D01*
X37234291Y-65827321D01*
X37236902Y-65827614D01*
X37239418Y-65828383D01*
X37285394Y-65833053D01*
X37331266Y-65838198D01*
X37336404Y-65838234D01*
X37336502Y-65838244D01*
X37336593Y-65838235D01*
X37338247Y-65838247D01*
X48806014Y-65838247D01*
X48851958Y-65833742D01*
X48897990Y-65829715D01*
X48900515Y-65828982D01*
X48903131Y-65828725D01*
X48947337Y-65815378D01*
X48991698Y-65802490D01*
X48994033Y-65801280D01*
X48996549Y-65800520D01*
X49037299Y-65778853D01*
X49078334Y-65757583D01*
X49080390Y-65755941D01*
X49082710Y-65754708D01*
X49118499Y-65725519D01*
X49154596Y-65696702D01*
X49158254Y-65693095D01*
X49158331Y-65693032D01*
X49158390Y-65692961D01*
X49159567Y-65691800D01*
X64660954Y-50190414D01*
X66063600Y-50190414D01*
X66123317Y-50185652D01*
X66224604Y-50154285D01*
X66313143Y-50095943D01*
X66381922Y-50015243D01*
X66425496Y-49918578D01*
X66440414Y-49813600D01*
X66440414Y-49450000D01*
X66604424Y-49450000D01*
X66697591Y-49628212D01*
X66849061Y-49816603D01*
X67034239Y-49971986D01*
X67246071Y-50088441D01*
X67476488Y-50161534D01*
X67716713Y-50188479D01*
X67734007Y-50188600D01*
X67745993Y-50188600D01*
X67986572Y-50165011D01*
X68217987Y-50095143D01*
X68431424Y-49981656D01*
X68618753Y-49828874D01*
X68772839Y-49642616D01*
X68887813Y-49429977D01*
X68959295Y-49199055D01*
X68984563Y-48958647D01*
X68962654Y-48717910D01*
X68894403Y-48486012D01*
X68782409Y-48271788D01*
X68630939Y-48083397D01*
X68445761Y-47928014D01*
X68233929Y-47811559D01*
X68003512Y-47738466D01*
X67763287Y-47711521D01*
X67745993Y-47711400D01*
X67734007Y-47711400D01*
X67493428Y-47734989D01*
X67262013Y-47804857D01*
X67048576Y-47918344D01*
X66861247Y-48071126D01*
X66707161Y-48257384D01*
X66603013Y-48450000D01*
X66440414Y-48450000D01*
X66440414Y-48086400D01*
X66435652Y-48026683D01*
X66404285Y-47925396D01*
X66345943Y-47836857D01*
X66265243Y-47768078D01*
X66168578Y-47724504D01*
X66063600Y-47709586D01*
X64336400Y-47709586D01*
X64276683Y-47714348D01*
X64175396Y-47745715D01*
X64086857Y-47804057D01*
X64018078Y-47884757D01*
X63974504Y-47981422D01*
X63959586Y-48086400D01*
X63959586Y-49477568D01*
X48598908Y-64838247D01*
X37545353Y-64838247D01*
X36773051Y-64065945D01*
X36775033Y-63924007D01*
X36745513Y-63774916D01*
X36687595Y-63634399D01*
X36603488Y-63507807D01*
X36500000Y-63403594D01*
X36500000Y-52594090D01*
X36589510Y-52508851D01*
X36677119Y-52384657D01*
X36738937Y-52245812D01*
X36772609Y-52097603D01*
X36775033Y-51924007D01*
X36745513Y-51774916D01*
X36687595Y-51634399D01*
X36603488Y-51507807D01*
X36500000Y-51403594D01*
X36500000Y-40594090D01*
X36589510Y-40508851D01*
X36677119Y-40384657D01*
X36738937Y-40245812D01*
X36772609Y-40097603D01*
X36775033Y-39924007D01*
X36745513Y-39774916D01*
X36687595Y-39634399D01*
X36603488Y-39507807D01*
X36500000Y-39403594D01*
X36500000Y-28594090D01*
X36589510Y-28508851D01*
X36677119Y-28384657D01*
X36738937Y-28245812D01*
X36772609Y-28097603D01*
X36773061Y-28065164D01*
X37723981Y-28065164D01*
X37751417Y-28214653D01*
X37807367Y-28355965D01*
X37889699Y-28483719D01*
X37995277Y-28593048D01*
X38000000Y-28596331D01*
X38000000Y-39404874D01*
X37903443Y-39499429D01*
X37817576Y-39624834D01*
X37757703Y-39764529D01*
X37726103Y-39913194D01*
X37723981Y-40065164D01*
X37751417Y-40214653D01*
X37807367Y-40355965D01*
X37889699Y-40483719D01*
X37995277Y-40593048D01*
X38000000Y-40596331D01*
X38000000Y-51404874D01*
X37903443Y-51499429D01*
X37817576Y-51624834D01*
X37757703Y-51764529D01*
X37726103Y-51913194D01*
X37723981Y-52065164D01*
X37751417Y-52214653D01*
X37807367Y-52355965D01*
X37889699Y-52483719D01*
X37995277Y-52593048D01*
X38000000Y-52596331D01*
X38000000Y-63404874D01*
X37903443Y-63499429D01*
X37817576Y-63624834D01*
X37757703Y-63764529D01*
X37726103Y-63913194D01*
X37723981Y-64065164D01*
X37751417Y-64214653D01*
X37807367Y-64355965D01*
X37889699Y-64483719D01*
X37995277Y-64593048D01*
X38120079Y-64679788D01*
X38259353Y-64740635D01*
X38407793Y-64773272D01*
X38559745Y-64776455D01*
X38709421Y-64750063D01*
X38851121Y-64695101D01*
X38979446Y-64613663D01*
X39089510Y-64508851D01*
X39177119Y-64384657D01*
X39238937Y-64245812D01*
X39272609Y-64097603D01*
X39275033Y-63924007D01*
X39245513Y-63774916D01*
X39187595Y-63634399D01*
X39103488Y-63507807D01*
X39000000Y-63403594D01*
X39000000Y-52594090D01*
X39089510Y-52508851D01*
X39177119Y-52384657D01*
X39238937Y-52245812D01*
X39272609Y-52097603D01*
X39275033Y-51924007D01*
X39245513Y-51774916D01*
X39187595Y-51634399D01*
X39103488Y-51507807D01*
X39000000Y-51403594D01*
X39000000Y-40594090D01*
X39089510Y-40508851D01*
X39177119Y-40384657D01*
X39238937Y-40245812D01*
X39272609Y-40097603D01*
X39275033Y-39924007D01*
X39245513Y-39774916D01*
X39187595Y-39634399D01*
X39103488Y-39507807D01*
X39000000Y-39403594D01*
X39000000Y-28594090D01*
X39089510Y-28508851D01*
X39177119Y-28384657D01*
X39238937Y-28245812D01*
X39272609Y-28097603D01*
X39274919Y-27932187D01*
X39360824Y-27846282D01*
X64242527Y-27846282D01*
X64167161Y-27937384D01*
X64052187Y-28150023D01*
X63980705Y-28380945D01*
X63955437Y-28621353D01*
X63977346Y-28862090D01*
X64045597Y-29093988D01*
X64157591Y-29308212D01*
X64230493Y-29398884D01*
X44093116Y-29398884D01*
X44047164Y-29403389D01*
X44001141Y-29407416D01*
X43998617Y-29408149D01*
X43995999Y-29408406D01*
X43951781Y-29421757D01*
X43907432Y-29434641D01*
X43905097Y-29435851D01*
X43902581Y-29436611D01*
X43861810Y-29458289D01*
X43820797Y-29479548D01*
X43818742Y-29481188D01*
X43816420Y-29482423D01*
X43780610Y-29511630D01*
X43744534Y-29540429D01*
X43740876Y-29544036D01*
X43740799Y-29544099D01*
X43740740Y-29544170D01*
X43739563Y-29545331D01*
X42396447Y-30888447D01*
X42367168Y-30924092D01*
X42337443Y-30959516D01*
X42336175Y-30961823D01*
X42334508Y-30963852D01*
X42312701Y-31004521D01*
X42290432Y-31045029D01*
X42289637Y-31047536D01*
X42288395Y-31049852D01*
X42274893Y-31094015D01*
X42260926Y-31138044D01*
X42260633Y-31140655D01*
X42259864Y-31143171D01*
X42255194Y-31189147D01*
X42250049Y-31235019D01*
X42250013Y-31240157D01*
X42250003Y-31240255D01*
X42250012Y-31240346D01*
X42250000Y-31242000D01*
X42250000Y-44904874D01*
X42153443Y-44999429D01*
X42067576Y-45124834D01*
X42007703Y-45264529D01*
X41976103Y-45413194D01*
X41973981Y-45565164D01*
X42001417Y-45714653D01*
X42057367Y-45855965D01*
X42139699Y-45983719D01*
X42245277Y-46093048D01*
X42370079Y-46179788D01*
X42509353Y-46240635D01*
X42657793Y-46273272D01*
X42809745Y-46276455D01*
X42959421Y-46250063D01*
X43000000Y-46234323D01*
X43000000Y-56904874D01*
X42903443Y-56999429D01*
X42817576Y-57124834D01*
X42757703Y-57264529D01*
X42726103Y-57413194D01*
X42723981Y-57565164D01*
X42751417Y-57714653D01*
X42807367Y-57855965D01*
X42889699Y-57983719D01*
X42995277Y-58093048D01*
X43120079Y-58179788D01*
X43259353Y-58240635D01*
X43407793Y-58273272D01*
X43559745Y-58276455D01*
X43709421Y-58250063D01*
X43851121Y-58195101D01*
X43979446Y-58113663D01*
X44089510Y-58008851D01*
X44177119Y-57884657D01*
X44238937Y-57745812D01*
X44272609Y-57597603D01*
X44275033Y-57424007D01*
X44245513Y-57274916D01*
X44187595Y-57134399D01*
X44103488Y-57007807D01*
X44000000Y-56903594D01*
X44000000Y-46401353D01*
X63955437Y-46401353D01*
X63977346Y-46642090D01*
X64045597Y-46873988D01*
X64157591Y-47088212D01*
X64309061Y-47276603D01*
X64494239Y-47431986D01*
X64706071Y-47548441D01*
X64936488Y-47621534D01*
X65176713Y-47648479D01*
X65194007Y-47648600D01*
X65205993Y-47648600D01*
X65446572Y-47625011D01*
X65677987Y-47555143D01*
X65891424Y-47441656D01*
X66078753Y-47288874D01*
X66232839Y-47102616D01*
X66347813Y-46889977D01*
X66419295Y-46659055D01*
X66444563Y-46418647D01*
X66442990Y-46401353D01*
X66495437Y-46401353D01*
X66517346Y-46642090D01*
X66585597Y-46873988D01*
X66697591Y-47088212D01*
X66849061Y-47276603D01*
X67034239Y-47431986D01*
X67246071Y-47548441D01*
X67476488Y-47621534D01*
X67716713Y-47648479D01*
X67734007Y-47648600D01*
X67745993Y-47648600D01*
X67986572Y-47625011D01*
X68217987Y-47555143D01*
X68431424Y-47441656D01*
X68618753Y-47288874D01*
X68772839Y-47102616D01*
X68887813Y-46889977D01*
X68959295Y-46659055D01*
X68984563Y-46418647D01*
X68962654Y-46177910D01*
X68894403Y-45946012D01*
X68782409Y-45731788D01*
X68630939Y-45543397D01*
X68445761Y-45388014D01*
X68233929Y-45271559D01*
X68003512Y-45198466D01*
X67763287Y-45171521D01*
X67745993Y-45171400D01*
X67734007Y-45171400D01*
X67493428Y-45194989D01*
X67262013Y-45264857D01*
X67048576Y-45378344D01*
X66861247Y-45531126D01*
X66707161Y-45717384D01*
X66592187Y-45930023D01*
X66520705Y-46160945D01*
X66495437Y-46401353D01*
X66442990Y-46401353D01*
X66422654Y-46177910D01*
X66354403Y-45946012D01*
X66242409Y-45731788D01*
X66090939Y-45543397D01*
X65905761Y-45388014D01*
X65693929Y-45271559D01*
X65463512Y-45198466D01*
X65223287Y-45171521D01*
X65205993Y-45171400D01*
X65194007Y-45171400D01*
X64953428Y-45194989D01*
X64722013Y-45264857D01*
X64508576Y-45378344D01*
X64321247Y-45531126D01*
X64167161Y-45717384D01*
X64052187Y-45930023D01*
X63980705Y-46160945D01*
X63955437Y-46401353D01*
X44000000Y-46401353D01*
X44000000Y-43861353D01*
X63955437Y-43861353D01*
X63977346Y-44102090D01*
X64045597Y-44333988D01*
X64157591Y-44548212D01*
X64309061Y-44736603D01*
X64494239Y-44891986D01*
X64706071Y-45008441D01*
X64936488Y-45081534D01*
X65176713Y-45108479D01*
X65194007Y-45108600D01*
X65205993Y-45108600D01*
X65446572Y-45085011D01*
X65677987Y-45015143D01*
X65891424Y-44901656D01*
X66078753Y-44748874D01*
X66232839Y-44562616D01*
X66347813Y-44349977D01*
X66419295Y-44119055D01*
X66444563Y-43878647D01*
X66442990Y-43861353D01*
X66495437Y-43861353D01*
X66517346Y-44102090D01*
X66585597Y-44333988D01*
X66697591Y-44548212D01*
X66849061Y-44736603D01*
X67034239Y-44891986D01*
X67246071Y-45008441D01*
X67476488Y-45081534D01*
X67716713Y-45108479D01*
X67734007Y-45108600D01*
X67745993Y-45108600D01*
X67986572Y-45085011D01*
X68217987Y-45015143D01*
X68431424Y-44901656D01*
X68618753Y-44748874D01*
X68772839Y-44562616D01*
X68887813Y-44349977D01*
X68959295Y-44119055D01*
X68984563Y-43878647D01*
X68962654Y-43637910D01*
X68894403Y-43406012D01*
X68782409Y-43191788D01*
X68630939Y-43003397D01*
X68445761Y-42848014D01*
X68233929Y-42731559D01*
X68003512Y-42658466D01*
X67763287Y-42631521D01*
X67745993Y-42631400D01*
X67734007Y-42631400D01*
X67493428Y-42654989D01*
X67262013Y-42724857D01*
X67048576Y-42838344D01*
X66861247Y-42991126D01*
X66707161Y-43177384D01*
X66592187Y-43390023D01*
X66520705Y-43620945D01*
X66495437Y-43861353D01*
X66442990Y-43861353D01*
X66422654Y-43637910D01*
X66354403Y-43406012D01*
X66242409Y-43191788D01*
X66090939Y-43003397D01*
X65905761Y-42848014D01*
X65693929Y-42731559D01*
X65463512Y-42658466D01*
X65223287Y-42631521D01*
X65205993Y-42631400D01*
X65194007Y-42631400D01*
X64953428Y-42654989D01*
X64722013Y-42724857D01*
X64508576Y-42838344D01*
X64321247Y-42991126D01*
X64167161Y-43177384D01*
X64052187Y-43390023D01*
X63980705Y-43620945D01*
X63955437Y-43861353D01*
X44000000Y-43861353D01*
X44000000Y-41321353D01*
X63955437Y-41321353D01*
X63977346Y-41562090D01*
X64045597Y-41793988D01*
X64157591Y-42008212D01*
X64309061Y-42196603D01*
X64494239Y-42351986D01*
X64706071Y-42468441D01*
X64936488Y-42541534D01*
X65176713Y-42568479D01*
X65194007Y-42568600D01*
X65205993Y-42568600D01*
X65446572Y-42545011D01*
X65677987Y-42475143D01*
X65891424Y-42361656D01*
X66078753Y-42208874D01*
X66232839Y-42022616D01*
X66347813Y-41809977D01*
X66419295Y-41579055D01*
X66444563Y-41338647D01*
X66442990Y-41321353D01*
X66495437Y-41321353D01*
X66517346Y-41562090D01*
X66585597Y-41793988D01*
X66697591Y-42008212D01*
X66849061Y-42196603D01*
X67034239Y-42351986D01*
X67246071Y-42468441D01*
X67476488Y-42541534D01*
X67716713Y-42568479D01*
X67734007Y-42568600D01*
X67745993Y-42568600D01*
X67986572Y-42545011D01*
X68217987Y-42475143D01*
X68431424Y-42361656D01*
X68618753Y-42208874D01*
X68772839Y-42022616D01*
X68887813Y-41809977D01*
X68959295Y-41579055D01*
X68984563Y-41338647D01*
X68962654Y-41097910D01*
X68894403Y-40866012D01*
X68782409Y-40651788D01*
X68630939Y-40463397D01*
X68445761Y-40308014D01*
X68233929Y-40191559D01*
X68003512Y-40118466D01*
X67763287Y-40091521D01*
X67745993Y-40091400D01*
X67734007Y-40091400D01*
X67493428Y-40114989D01*
X67262013Y-40184857D01*
X67048576Y-40298344D01*
X66861247Y-40451126D01*
X66707161Y-40637384D01*
X66592187Y-40850023D01*
X66520705Y-41080945D01*
X66495437Y-41321353D01*
X66442990Y-41321353D01*
X66422654Y-41097910D01*
X66354403Y-40866012D01*
X66242409Y-40651788D01*
X66090939Y-40463397D01*
X65905761Y-40308014D01*
X65693929Y-40191559D01*
X65463512Y-40118466D01*
X65223287Y-40091521D01*
X65205993Y-40091400D01*
X65194007Y-40091400D01*
X64953428Y-40114989D01*
X64722013Y-40184857D01*
X64508576Y-40298344D01*
X64321247Y-40451126D01*
X64167161Y-40637384D01*
X64052187Y-40850023D01*
X63980705Y-41080945D01*
X63955437Y-41321353D01*
X44000000Y-41321353D01*
X44000000Y-38781353D01*
X63955437Y-38781353D01*
X63977346Y-39022090D01*
X64045597Y-39253988D01*
X64157591Y-39468212D01*
X64309061Y-39656603D01*
X64494239Y-39811986D01*
X64706071Y-39928441D01*
X64936488Y-40001534D01*
X65176713Y-40028479D01*
X65194007Y-40028600D01*
X65205993Y-40028600D01*
X65446572Y-40005011D01*
X65677987Y-39935143D01*
X65891424Y-39821656D01*
X66078753Y-39668874D01*
X66232839Y-39482616D01*
X66347813Y-39269977D01*
X66419295Y-39039055D01*
X66444563Y-38798647D01*
X66442990Y-38781353D01*
X66495437Y-38781353D01*
X66517346Y-39022090D01*
X66585597Y-39253988D01*
X66697591Y-39468212D01*
X66849061Y-39656603D01*
X67034239Y-39811986D01*
X67246071Y-39928441D01*
X67476488Y-40001534D01*
X67716713Y-40028479D01*
X67734007Y-40028600D01*
X67745993Y-40028600D01*
X67986572Y-40005011D01*
X68217987Y-39935143D01*
X68431424Y-39821656D01*
X68618753Y-39668874D01*
X68772839Y-39482616D01*
X68887813Y-39269977D01*
X68959295Y-39039055D01*
X68984563Y-38798647D01*
X68962654Y-38557910D01*
X68894403Y-38326012D01*
X68782409Y-38111788D01*
X68630939Y-37923397D01*
X68445761Y-37768014D01*
X68233929Y-37651559D01*
X68003512Y-37578466D01*
X67763287Y-37551521D01*
X67745993Y-37551400D01*
X67734007Y-37551400D01*
X67493428Y-37574989D01*
X67262013Y-37644857D01*
X67048576Y-37758344D01*
X66861247Y-37911126D01*
X66707161Y-38097384D01*
X66592187Y-38310023D01*
X66520705Y-38540945D01*
X66495437Y-38781353D01*
X66442990Y-38781353D01*
X66422654Y-38557910D01*
X66354403Y-38326012D01*
X66242409Y-38111788D01*
X66090939Y-37923397D01*
X65905761Y-37768014D01*
X65693929Y-37651559D01*
X65463512Y-37578466D01*
X65223287Y-37551521D01*
X65205993Y-37551400D01*
X65194007Y-37551400D01*
X64953428Y-37574989D01*
X64722013Y-37644857D01*
X64508576Y-37758344D01*
X64321247Y-37911126D01*
X64167161Y-38097384D01*
X64052187Y-38310023D01*
X63980705Y-38540945D01*
X63955437Y-38781353D01*
X44000000Y-38781353D01*
X44000000Y-36241353D01*
X63955437Y-36241353D01*
X63977346Y-36482090D01*
X64045597Y-36713988D01*
X64157591Y-36928212D01*
X64309061Y-37116603D01*
X64494239Y-37271986D01*
X64706071Y-37388441D01*
X64936488Y-37461534D01*
X65176713Y-37488479D01*
X65194007Y-37488600D01*
X65205993Y-37488600D01*
X65446572Y-37465011D01*
X65677987Y-37395143D01*
X65891424Y-37281656D01*
X66078753Y-37128874D01*
X66232839Y-36942616D01*
X66347813Y-36729977D01*
X66419295Y-36499055D01*
X66444563Y-36258647D01*
X66442990Y-36241353D01*
X66495437Y-36241353D01*
X66517346Y-36482090D01*
X66585597Y-36713988D01*
X66697591Y-36928212D01*
X66849061Y-37116603D01*
X67034239Y-37271986D01*
X67246071Y-37388441D01*
X67476488Y-37461534D01*
X67716713Y-37488479D01*
X67734007Y-37488600D01*
X67745993Y-37488600D01*
X67986572Y-37465011D01*
X68217987Y-37395143D01*
X68431424Y-37281656D01*
X68618753Y-37128874D01*
X68772839Y-36942616D01*
X68887813Y-36729977D01*
X68959295Y-36499055D01*
X68984563Y-36258647D01*
X68962654Y-36017910D01*
X68894403Y-35786012D01*
X68782409Y-35571788D01*
X68630939Y-35383397D01*
X68445761Y-35228014D01*
X68233929Y-35111559D01*
X68003512Y-35038466D01*
X67763287Y-35011521D01*
X67745993Y-35011400D01*
X67734007Y-35011400D01*
X67493428Y-35034989D01*
X67262013Y-35104857D01*
X67048576Y-35218344D01*
X66861247Y-35371126D01*
X66707161Y-35557384D01*
X66592187Y-35770023D01*
X66520705Y-36000945D01*
X66495437Y-36241353D01*
X66442990Y-36241353D01*
X66422654Y-36017910D01*
X66354403Y-35786012D01*
X66242409Y-35571788D01*
X66090939Y-35383397D01*
X65905761Y-35228014D01*
X65693929Y-35111559D01*
X65463512Y-35038466D01*
X65223287Y-35011521D01*
X65205993Y-35011400D01*
X65194007Y-35011400D01*
X64953428Y-35034989D01*
X64722013Y-35104857D01*
X64508576Y-35218344D01*
X64321247Y-35371126D01*
X64167161Y-35557384D01*
X64052187Y-35770023D01*
X63980705Y-36000945D01*
X63955437Y-36241353D01*
X44000000Y-36241353D01*
X44000000Y-34207106D01*
X45279604Y-32927502D01*
X64241518Y-32927502D01*
X64167161Y-33017384D01*
X64052187Y-33230023D01*
X63980705Y-33460945D01*
X63955437Y-33701353D01*
X63977346Y-33942090D01*
X64045597Y-34173988D01*
X64157591Y-34388212D01*
X64309061Y-34576603D01*
X64494239Y-34731986D01*
X64706071Y-34848441D01*
X64936488Y-34921534D01*
X65176713Y-34948479D01*
X65194007Y-34948600D01*
X65205993Y-34948600D01*
X65446572Y-34925011D01*
X65677987Y-34855143D01*
X65891424Y-34741656D01*
X66078753Y-34588874D01*
X66232839Y-34402616D01*
X66347813Y-34189977D01*
X66419295Y-33959055D01*
X66444563Y-33718647D01*
X66442990Y-33701353D01*
X66495437Y-33701353D01*
X66517346Y-33942090D01*
X66585597Y-34173988D01*
X66697591Y-34388212D01*
X66849061Y-34576603D01*
X67034239Y-34731986D01*
X67246071Y-34848441D01*
X67476488Y-34921534D01*
X67716713Y-34948479D01*
X67734007Y-34948600D01*
X67745993Y-34948600D01*
X67986572Y-34925011D01*
X68217987Y-34855143D01*
X68431424Y-34741656D01*
X68618753Y-34588874D01*
X68772839Y-34402616D01*
X68887813Y-34189977D01*
X68959295Y-33959055D01*
X68984563Y-33718647D01*
X68962654Y-33477910D01*
X68894403Y-33246012D01*
X68782409Y-33031788D01*
X68630939Y-32843397D01*
X68445761Y-32688014D01*
X68233929Y-32571559D01*
X68003512Y-32498466D01*
X67763287Y-32471521D01*
X67745993Y-32471400D01*
X67734007Y-32471400D01*
X67493428Y-32494989D01*
X67262013Y-32564857D01*
X67048576Y-32678344D01*
X66861247Y-32831126D01*
X66707161Y-33017384D01*
X66592187Y-33230023D01*
X66520705Y-33460945D01*
X66495437Y-33701353D01*
X66442990Y-33701353D01*
X66422654Y-33477910D01*
X66354403Y-33246012D01*
X66242409Y-33031788D01*
X66158561Y-32927502D01*
X66482498Y-32927502D01*
X66528442Y-32922997D01*
X66574474Y-32918970D01*
X66576999Y-32918237D01*
X66579615Y-32917980D01*
X66623821Y-32904633D01*
X66668182Y-32891745D01*
X66670517Y-32890535D01*
X66673033Y-32889775D01*
X66713783Y-32868108D01*
X66754818Y-32846838D01*
X66756874Y-32845196D01*
X66759194Y-32843963D01*
X66794983Y-32814774D01*
X66831080Y-32785957D01*
X66834738Y-32782350D01*
X66834815Y-32782287D01*
X66834874Y-32782216D01*
X66836051Y-32781055D01*
X67293591Y-32323515D01*
X67476488Y-32381534D01*
X67716713Y-32408479D01*
X67734007Y-32408600D01*
X67745993Y-32408600D01*
X67986572Y-32385011D01*
X68217987Y-32315143D01*
X68431424Y-32201656D01*
X68618753Y-32048874D01*
X68772839Y-31862616D01*
X68887813Y-31649977D01*
X68959295Y-31419055D01*
X68984563Y-31178647D01*
X68962654Y-30937910D01*
X68894403Y-30706012D01*
X68782409Y-30491788D01*
X68630939Y-30303397D01*
X68445761Y-30148014D01*
X68233929Y-30031559D01*
X68003512Y-29958466D01*
X67763287Y-29931521D01*
X67745993Y-29931400D01*
X67734007Y-29931400D01*
X67493428Y-29954989D01*
X67262013Y-30024857D01*
X67048576Y-30138344D01*
X66861247Y-30291126D01*
X66707161Y-30477384D01*
X66592187Y-30690023D01*
X66520705Y-30920945D01*
X66495437Y-31161353D01*
X66517346Y-31402090D01*
X66581802Y-31621092D01*
X66275392Y-31927502D01*
X66179161Y-31927502D01*
X66232839Y-31862616D01*
X66347813Y-31649977D01*
X66419295Y-31419055D01*
X66444563Y-31178647D01*
X66422654Y-30937910D01*
X66354403Y-30706012D01*
X66242409Y-30491788D01*
X66167712Y-30398884D01*
X66471116Y-30398884D01*
X66517060Y-30394379D01*
X66563092Y-30390352D01*
X66565617Y-30389619D01*
X66568233Y-30389362D01*
X66612439Y-30376015D01*
X66656800Y-30363127D01*
X66659135Y-30361917D01*
X66661651Y-30361157D01*
X66702401Y-30339490D01*
X66743436Y-30318220D01*
X66745492Y-30316578D01*
X66747812Y-30315345D01*
X66783601Y-30286156D01*
X66819698Y-30257339D01*
X66823356Y-30253732D01*
X66823433Y-30253669D01*
X66823492Y-30253598D01*
X66824669Y-30252437D01*
X67229955Y-29847152D01*
X67229960Y-29847146D01*
X67293591Y-29783515D01*
X67476488Y-29841534D01*
X67716713Y-29868479D01*
X67734007Y-29868600D01*
X67745993Y-29868600D01*
X67986572Y-29845011D01*
X68217987Y-29775143D01*
X68431424Y-29661656D01*
X68618753Y-29508874D01*
X68772839Y-29322616D01*
X68887813Y-29109977D01*
X68959295Y-28879055D01*
X68984563Y-28638647D01*
X68962654Y-28397910D01*
X68894403Y-28166012D01*
X68782409Y-27951788D01*
X68630939Y-27763397D01*
X68445761Y-27608014D01*
X68233929Y-27491559D01*
X68003512Y-27418466D01*
X67763287Y-27391521D01*
X67745993Y-27391400D01*
X67734007Y-27391400D01*
X67493428Y-27414989D01*
X67262013Y-27484857D01*
X67048576Y-27598344D01*
X66861247Y-27751126D01*
X66707161Y-27937384D01*
X66592187Y-28150023D01*
X66520705Y-28380945D01*
X66495437Y-28621353D01*
X66517346Y-28862090D01*
X66581802Y-29081092D01*
X66522919Y-29139975D01*
X66522848Y-29140045D01*
X66264010Y-29398884D01*
X66169745Y-29398884D01*
X66232839Y-29322616D01*
X66347813Y-29109977D01*
X66419295Y-28879055D01*
X66444563Y-28638647D01*
X66422654Y-28397910D01*
X66354403Y-28166012D01*
X66242409Y-27951788D01*
X66157580Y-27846282D01*
X66483718Y-27846282D01*
X66529662Y-27841777D01*
X66575694Y-27837750D01*
X66578219Y-27837017D01*
X66580835Y-27836760D01*
X66625041Y-27823413D01*
X66669402Y-27810525D01*
X66671737Y-27809315D01*
X66674253Y-27808555D01*
X66715003Y-27786888D01*
X66756038Y-27765618D01*
X66758094Y-27763976D01*
X66760414Y-27762743D01*
X66796203Y-27733554D01*
X66832300Y-27704737D01*
X66835958Y-27701130D01*
X66836035Y-27701067D01*
X66836094Y-27700996D01*
X66837271Y-27699835D01*
X67229955Y-27307152D01*
X67229960Y-27307146D01*
X67293591Y-27243515D01*
X67476488Y-27301534D01*
X67716713Y-27328479D01*
X67734007Y-27328600D01*
X67745993Y-27328600D01*
X67986572Y-27305011D01*
X68217987Y-27235143D01*
X68431424Y-27121656D01*
X68618753Y-26968874D01*
X68772839Y-26782616D01*
X68887813Y-26569977D01*
X68959295Y-26339055D01*
X68984563Y-26098647D01*
X68962654Y-25857910D01*
X68894403Y-25626012D01*
X68782409Y-25411788D01*
X68630939Y-25223397D01*
X68445761Y-25068014D01*
X68233929Y-24951559D01*
X68003512Y-24878466D01*
X67763287Y-24851521D01*
X67745993Y-24851400D01*
X67734007Y-24851400D01*
X67493428Y-24874989D01*
X67262013Y-24944857D01*
X67048576Y-25058344D01*
X66861247Y-25211126D01*
X66707161Y-25397384D01*
X66592187Y-25610023D01*
X66520705Y-25840945D01*
X66495437Y-26081353D01*
X66517346Y-26322090D01*
X66581802Y-26541092D01*
X66522919Y-26599975D01*
X66522848Y-26600045D01*
X66276612Y-26846282D01*
X66180170Y-26846282D01*
X66232839Y-26782616D01*
X66347813Y-26569977D01*
X66419295Y-26339055D01*
X66444563Y-26098647D01*
X66422654Y-25857910D01*
X66354403Y-25626012D01*
X66242409Y-25411788D01*
X66090939Y-25223397D01*
X65905761Y-25068014D01*
X65693929Y-24951559D01*
X65463512Y-24878466D01*
X65223287Y-24851521D01*
X65205993Y-24851400D01*
X65194007Y-24851400D01*
X64953428Y-24874989D01*
X64722013Y-24944857D01*
X64508576Y-25058344D01*
X64321247Y-25211126D01*
X64167161Y-25397384D01*
X64052187Y-25610023D01*
X63980705Y-25840945D01*
X63955437Y-26081353D01*
X63977346Y-26322090D01*
X64045597Y-26553988D01*
X64157591Y-26768212D01*
X64220361Y-26846282D01*
X39153718Y-26846282D01*
X39107766Y-26850787D01*
X39061743Y-26854814D01*
X39059219Y-26855547D01*
X39056601Y-26855804D01*
X39012383Y-26869155D01*
X38968034Y-26882039D01*
X38965699Y-26883249D01*
X38963183Y-26884009D01*
X38922412Y-26905687D01*
X38881399Y-26926946D01*
X38879344Y-26928586D01*
X38877022Y-26929821D01*
X38841212Y-26959028D01*
X38805136Y-26987827D01*
X38801478Y-26991434D01*
X38801401Y-26991497D01*
X38801342Y-26991568D01*
X38800165Y-26992729D01*
X38567475Y-27225419D01*
X38429420Y-27224455D01*
X38280127Y-27252934D01*
X38139208Y-27309869D01*
X38012032Y-27393091D01*
X37903443Y-27499429D01*
X37817576Y-27624834D01*
X37757703Y-27764529D01*
X37726103Y-27913194D01*
X37723981Y-28065164D01*
X36773061Y-28065164D01*
X36775033Y-27924007D01*
X36745513Y-27774916D01*
X36687595Y-27634399D01*
X36603488Y-27507807D01*
X36496394Y-27399963D01*
X36370392Y-27314974D01*
X36230283Y-27256077D01*
X36081402Y-27225516D01*
X35929420Y-27224455D01*
X35780127Y-27252934D01*
X35639208Y-27309869D01*
X35512032Y-27393091D01*
X35403443Y-27499429D01*
X35317576Y-27624834D01*
X35257703Y-27764529D01*
X35226103Y-27913194D01*
X35223981Y-28065164D01*
X34250000Y-28065164D01*
X34250000Y-23817481D01*
X63990627Y-23817481D01*
X64045836Y-23999492D01*
X64155704Y-24216021D01*
X64305704Y-24406956D01*
X64490071Y-24564958D01*
X64701721Y-24683956D01*
X64932519Y-24759377D01*
X65125000Y-24692581D01*
X65125000Y-23625000D01*
X65275000Y-23625000D01*
X65275000Y-24692581D01*
X65467481Y-24759377D01*
X65698279Y-24683956D01*
X65909929Y-24564958D01*
X66094296Y-24406956D01*
X66244296Y-24216021D01*
X66354164Y-23999492D01*
X66409373Y-23817481D01*
X66530627Y-23817481D01*
X66585836Y-23999492D01*
X66695704Y-24216021D01*
X66845704Y-24406956D01*
X67030071Y-24564958D01*
X67241721Y-24683956D01*
X67472519Y-24759377D01*
X67665000Y-24692581D01*
X67665000Y-23625000D01*
X67815000Y-23625000D01*
X67815000Y-24692581D01*
X68007481Y-24759377D01*
X68238279Y-24683956D01*
X68449929Y-24564958D01*
X68634296Y-24406956D01*
X68784296Y-24216021D01*
X68894164Y-23999492D01*
X68949373Y-23817481D01*
X68882391Y-23625000D01*
X67815000Y-23625000D01*
X67665000Y-23625000D01*
X66597609Y-23625000D01*
X66530627Y-23817481D01*
X66409373Y-23817481D01*
X66342391Y-23625000D01*
X65275000Y-23625000D01*
X65125000Y-23625000D01*
X64057609Y-23625000D01*
X63990627Y-23817481D01*
X34250000Y-23817481D01*
X34250000Y-23594090D01*
X34339510Y-23508851D01*
X34427119Y-23384657D01*
X34472593Y-23282519D01*
X63990627Y-23282519D01*
X64057609Y-23475000D01*
X65125000Y-23475000D01*
X65125000Y-22407419D01*
X65275000Y-22407419D01*
X65275000Y-23475000D01*
X66342391Y-23475000D01*
X66409373Y-23282519D01*
X66530627Y-23282519D01*
X66597609Y-23475000D01*
X67665000Y-23475000D01*
X67665000Y-22407419D01*
X67815000Y-22407419D01*
X67815000Y-23475000D01*
X68882391Y-23475000D01*
X68949373Y-23282519D01*
X68894164Y-23100508D01*
X68784296Y-22883979D01*
X68634296Y-22693044D01*
X68449929Y-22535042D01*
X68238279Y-22416044D01*
X68007481Y-22340623D01*
X67815000Y-22407419D01*
X67665000Y-22407419D01*
X67472519Y-22340623D01*
X67241721Y-22416044D01*
X67030071Y-22535042D01*
X66845704Y-22693044D01*
X66695704Y-22883979D01*
X66585836Y-23100508D01*
X66530627Y-23282519D01*
X66409373Y-23282519D01*
X66354164Y-23100508D01*
X66244296Y-22883979D01*
X66094296Y-22693044D01*
X65909929Y-22535042D01*
X65698279Y-22416044D01*
X65467481Y-22340623D01*
X65275000Y-22407419D01*
X65125000Y-22407419D01*
X64932519Y-22340623D01*
X64701721Y-22416044D01*
X64490071Y-22535042D01*
X64305704Y-22693044D01*
X64155704Y-22883979D01*
X64045836Y-23100508D01*
X63990627Y-23282519D01*
X34472593Y-23282519D01*
X34488937Y-23245812D01*
X34522609Y-23097603D01*
X34525033Y-22924007D01*
X34495513Y-22774916D01*
X34437595Y-22634399D01*
X34353488Y-22507807D01*
X34246394Y-22399963D01*
X34120392Y-22314974D01*
X33980283Y-22256077D01*
X33831402Y-22225516D01*
X33679420Y-22224455D01*
X33530127Y-22252934D01*
X33389208Y-22309869D01*
X33262032Y-22393091D01*
X33153443Y-22499429D01*
X33067576Y-22624834D01*
X33007703Y-22764529D01*
X32976103Y-22913194D01*
X32973981Y-23065164D01*
X33001417Y-23214653D01*
X33057367Y-23355965D01*
X33139699Y-23483719D01*
X33245277Y-23593048D01*
X33250000Y-23596331D01*
X33250000Y-30326743D01*
X33205293Y-30307950D01*
X33056412Y-30277389D01*
X32904430Y-30276328D01*
X32755137Y-30304807D01*
X32614218Y-30361742D01*
X32487042Y-30444964D01*
X32378453Y-30551302D01*
X32292586Y-30676707D01*
X32232713Y-30816402D01*
X32201113Y-30965067D01*
X32198991Y-31117037D01*
X32218756Y-31224730D01*
X32179420Y-31224455D01*
X32030127Y-31252934D01*
X31889208Y-31309869D01*
X31762032Y-31393091D01*
X31653443Y-31499429D01*
X31567576Y-31624834D01*
X31507703Y-31764529D01*
X31476103Y-31913194D01*
X31473981Y-32065164D01*
X31474562Y-32068332D01*
X31396447Y-32146447D01*
X31367168Y-32182092D01*
X31337443Y-32217516D01*
X31336175Y-32219823D01*
X31334508Y-32221852D01*
X31312701Y-32262521D01*
X31290432Y-32303029D01*
X31289637Y-32305536D01*
X31288395Y-32307852D01*
X31274893Y-32352015D01*
X31260926Y-32396044D01*
X31260633Y-32398655D01*
X31259864Y-32401171D01*
X31255195Y-32447140D01*
X31250049Y-32493019D01*
X31250013Y-32498157D01*
X31250003Y-32498255D01*
X31250012Y-32498346D01*
X31250000Y-32500000D01*
X31250000Y-42654874D01*
X31153443Y-42749429D01*
X31067576Y-42874834D01*
X31007703Y-43014529D01*
X30976103Y-43163194D01*
X30973981Y-43315164D01*
X5302411Y-43315164D01*
X5015592Y-43121702D01*
X4631420Y-42960211D01*
X4223198Y-42876415D01*
X3806474Y-42873506D01*
X3397121Y-42951594D01*
X3010732Y-43107705D01*
X2662024Y-43335894D01*
X2364279Y-43627467D01*
X2128838Y-43971320D01*
X1964669Y-44354355D01*
X1878025Y-44761982D01*
X1872207Y-45178676D01*
X450000Y-45178676D01*
X450000Y-39178676D01*
X1872207Y-39178676D01*
X1947435Y-39588563D01*
X2100845Y-39976033D01*
X2326593Y-40326326D01*
X2616081Y-40626099D01*
X2958282Y-40863935D01*
X3340162Y-41030774D01*
X3747174Y-41120261D01*
X4163817Y-41128989D01*
X4574220Y-41056624D01*
X4962751Y-40905922D01*
X5314611Y-40682625D01*
X5616398Y-40395237D01*
X5856617Y-40054705D01*
X6026118Y-39674000D01*
X6118445Y-39267622D01*
X6125091Y-38791633D01*
X6090239Y-38615614D01*
X6123193Y-38615614D01*
X6171870Y-38880835D01*
X6271135Y-39131551D01*
X6417208Y-39358211D01*
X6604523Y-39552182D01*
X6825947Y-39706075D01*
X7073046Y-39814030D01*
X7336407Y-39871934D01*
X7605999Y-39877581D01*
X7871554Y-39830756D01*
X8122956Y-39733244D01*
X8350631Y-39588757D01*
X8545904Y-39402801D01*
X8676358Y-39217870D01*
X10288196Y-39217870D01*
X10454124Y-39467123D01*
X10779950Y-39641051D01*
X11133448Y-39748072D01*
X11501032Y-39784073D01*
X11868577Y-39747670D01*
X12221957Y-39640262D01*
X12545876Y-39467123D01*
X12711804Y-39217870D01*
X11500000Y-38006066D01*
X10288196Y-39217870D01*
X8676358Y-39217870D01*
X8701340Y-39182456D01*
X8811017Y-38936117D01*
X8870758Y-38673167D01*
X8875059Y-38365174D01*
X8822683Y-38100658D01*
X8740404Y-37901032D01*
X9615927Y-37901032D01*
X9652330Y-38268577D01*
X9759738Y-38621957D01*
X9932877Y-38945876D01*
X10182130Y-39111804D01*
X11393934Y-37900000D01*
X11606066Y-37900000D01*
X12817870Y-39111804D01*
X13067123Y-38945876D01*
X13241051Y-38620050D01*
X13348072Y-38266552D01*
X13384073Y-37898968D01*
X13347670Y-37531423D01*
X13240262Y-37178043D01*
X13067123Y-36854124D01*
X12817870Y-36688196D01*
X11606066Y-37900000D01*
X11393934Y-37900000D01*
X10182130Y-36688196D01*
X9932877Y-36854124D01*
X9758949Y-37179950D01*
X9651928Y-37533448D01*
X9615927Y-37901032D01*
X8740404Y-37901032D01*
X8719927Y-37851353D01*
X8570704Y-37626755D01*
X8380699Y-37435418D01*
X8157148Y-37284631D01*
X7908566Y-37180137D01*
X7644422Y-37125916D01*
X7374777Y-37124033D01*
X7109902Y-37174561D01*
X6859886Y-37275574D01*
X6634251Y-37423225D01*
X6441592Y-37611891D01*
X6289248Y-37834384D01*
X6183021Y-38082230D01*
X6126958Y-38345989D01*
X6123193Y-38615614D01*
X6090239Y-38615614D01*
X6044147Y-38382836D01*
X5885342Y-37997546D01*
X5654725Y-37650439D01*
X5361080Y-37354737D01*
X5015592Y-37121702D01*
X4631420Y-36960211D01*
X4223198Y-36876415D01*
X3806474Y-36873506D01*
X3397121Y-36951594D01*
X3010732Y-37107705D01*
X2662024Y-37335894D01*
X2364279Y-37627467D01*
X2128838Y-37971320D01*
X1964669Y-38354355D01*
X1878025Y-38761982D01*
X1872207Y-39178676D01*
X450000Y-39178676D01*
X450000Y-36582130D01*
X10288196Y-36582130D01*
X11500000Y-37793934D01*
X12711804Y-36582130D01*
X12545876Y-36332877D01*
X12220050Y-36158949D01*
X11866552Y-36051928D01*
X11498968Y-36015927D01*
X11131423Y-36052330D01*
X10778043Y-36159738D01*
X10454124Y-36332877D01*
X10288196Y-36582130D01*
X450000Y-36582130D01*
X450000Y-33178676D01*
X1872207Y-33178676D01*
X1947435Y-33588563D01*
X2100845Y-33976033D01*
X2326593Y-34326326D01*
X2616081Y-34626099D01*
X2958282Y-34863935D01*
X3340162Y-35030774D01*
X3747174Y-35120261D01*
X4163817Y-35128989D01*
X4574220Y-35056624D01*
X4962751Y-34905922D01*
X5314611Y-34682625D01*
X5616398Y-34395237D01*
X5856617Y-34054705D01*
X6026118Y-33674000D01*
X6039383Y-33615614D01*
X6123193Y-33615614D01*
X6171870Y-33880835D01*
X6271135Y-34131551D01*
X6417208Y-34358211D01*
X6604523Y-34552182D01*
X6825947Y-34706075D01*
X7073046Y-34814030D01*
X7336407Y-34871934D01*
X7605999Y-34877581D01*
X7871554Y-34830756D01*
X8122956Y-34733244D01*
X8350631Y-34588757D01*
X8545904Y-34402801D01*
X8648293Y-34257655D01*
X9622536Y-34257655D01*
X9688914Y-34619321D01*
X9824276Y-34961205D01*
X10023465Y-35270287D01*
X10278895Y-35534793D01*
X10580837Y-35744648D01*
X10917790Y-35891859D01*
X11276918Y-35970819D01*
X11644544Y-35978519D01*
X12006664Y-35914668D01*
X12349486Y-35781696D01*
X12659951Y-35584669D01*
X12926233Y-35331091D01*
X13138191Y-35030622D01*
X13287751Y-34694706D01*
X13369216Y-34336137D01*
X13375080Y-33916147D01*
X13303659Y-33555443D01*
X13163537Y-33215482D01*
X12960051Y-32909211D01*
X12700953Y-32648298D01*
X12396110Y-32442679D01*
X12057135Y-32300187D01*
X11696939Y-32226249D01*
X11329242Y-32223682D01*
X10968048Y-32292583D01*
X10627117Y-32430329D01*
X10319433Y-32631671D01*
X10056717Y-32888942D01*
X9848975Y-33192341D01*
X9704120Y-33530313D01*
X9627670Y-33889985D01*
X9622536Y-34257655D01*
X8648293Y-34257655D01*
X8701340Y-34182456D01*
X8811017Y-33936117D01*
X8870758Y-33673167D01*
X8875059Y-33365174D01*
X8822683Y-33100658D01*
X8719927Y-32851353D01*
X8570704Y-32626755D01*
X8380699Y-32435418D01*
X8157148Y-32284631D01*
X7908566Y-32180137D01*
X7644422Y-32125916D01*
X7374777Y-32124033D01*
X7109902Y-32174561D01*
X6859886Y-32275574D01*
X6634251Y-32423225D01*
X6441592Y-32611891D01*
X6289248Y-32834384D01*
X6183021Y-33082230D01*
X6126958Y-33345989D01*
X6123193Y-33615614D01*
X6039383Y-33615614D01*
X6118445Y-33267622D01*
X6125091Y-32791633D01*
X6044147Y-32382836D01*
X5885342Y-31997546D01*
X5654725Y-31650439D01*
X5361080Y-31354737D01*
X5015592Y-31121702D01*
X4631420Y-30960211D01*
X4223198Y-30876415D01*
X3806474Y-30873506D01*
X3397121Y-30951594D01*
X3010732Y-31107705D01*
X2662024Y-31335894D01*
X2364279Y-31627467D01*
X2128838Y-31971320D01*
X1964669Y-32354355D01*
X1878025Y-32761982D01*
X1872207Y-33178676D01*
X450000Y-33178676D01*
X450000Y-27178676D01*
X1872207Y-27178676D01*
X1947435Y-27588563D01*
X2100845Y-27976033D01*
X2326593Y-28326326D01*
X2616081Y-28626099D01*
X2958282Y-28863935D01*
X3340162Y-29030774D01*
X3747174Y-29120261D01*
X4163817Y-29128989D01*
X4574220Y-29056624D01*
X4962751Y-28905922D01*
X5314611Y-28682625D01*
X5616398Y-28395237D01*
X5856617Y-28054705D01*
X6026118Y-27674000D01*
X6118445Y-27267622D01*
X6125091Y-26791633D01*
X6090239Y-26615614D01*
X6123193Y-26615614D01*
X6171870Y-26880835D01*
X6271135Y-27131551D01*
X6417208Y-27358211D01*
X6604523Y-27552182D01*
X6825947Y-27706075D01*
X7073046Y-27814030D01*
X7336407Y-27871934D01*
X7605999Y-27877581D01*
X7871554Y-27830756D01*
X8122956Y-27733244D01*
X8350631Y-27588757D01*
X8545904Y-27402801D01*
X8676358Y-27217870D01*
X10288196Y-27217870D01*
X10454124Y-27467123D01*
X10779950Y-27641051D01*
X11133448Y-27748072D01*
X11501032Y-27784073D01*
X11868577Y-27747670D01*
X12221957Y-27640262D01*
X12545876Y-27467123D01*
X12711804Y-27217870D01*
X11500000Y-26006066D01*
X10288196Y-27217870D01*
X8676358Y-27217870D01*
X8701340Y-27182456D01*
X8811017Y-26936117D01*
X8870758Y-26673167D01*
X8875059Y-26365174D01*
X8822683Y-26100658D01*
X8740404Y-25901032D01*
X9615927Y-25901032D01*
X9652330Y-26268577D01*
X9759738Y-26621957D01*
X9932877Y-26945876D01*
X10182130Y-27111804D01*
X11393934Y-25900000D01*
X11606066Y-25900000D01*
X12817870Y-27111804D01*
X13067123Y-26945876D01*
X13241051Y-26620050D01*
X13348072Y-26266552D01*
X13384073Y-25898968D01*
X13347670Y-25531423D01*
X13240262Y-25178043D01*
X13067123Y-24854124D01*
X12817870Y-24688196D01*
X11606066Y-25900000D01*
X11393934Y-25900000D01*
X10182130Y-24688196D01*
X9932877Y-24854124D01*
X9758949Y-25179950D01*
X9651928Y-25533448D01*
X9615927Y-25901032D01*
X8740404Y-25901032D01*
X8719927Y-25851353D01*
X8570704Y-25626755D01*
X8380699Y-25435418D01*
X8157148Y-25284631D01*
X7908566Y-25180137D01*
X7644422Y-25125916D01*
X7374777Y-25124033D01*
X7109902Y-25174561D01*
X6859886Y-25275574D01*
X6634251Y-25423225D01*
X6441592Y-25611891D01*
X6289248Y-25834384D01*
X6183021Y-26082230D01*
X6126958Y-26345989D01*
X6123193Y-26615614D01*
X6090239Y-26615614D01*
X6044147Y-26382836D01*
X5885342Y-25997546D01*
X5654725Y-25650439D01*
X5361080Y-25354737D01*
X5015592Y-25121702D01*
X4631420Y-24960211D01*
X4223198Y-24876415D01*
X3806474Y-24873506D01*
X3397121Y-24951594D01*
X3010732Y-25107705D01*
X2662024Y-25335894D01*
X2364279Y-25627467D01*
X2128838Y-25971320D01*
X1964669Y-26354355D01*
X1878025Y-26761982D01*
X1872207Y-27178676D01*
X450000Y-27178676D01*
X450000Y-24582130D01*
X10288196Y-24582130D01*
X11500000Y-25793934D01*
X12711804Y-24582130D01*
X12545876Y-24332877D01*
X12220050Y-24158949D01*
X11866552Y-24051928D01*
X11498968Y-24015927D01*
X11131423Y-24052330D01*
X10778043Y-24159738D01*
X10454124Y-24332877D01*
X10288196Y-24582130D01*
X450000Y-24582130D01*
X450000Y-21178676D01*
X1872207Y-21178676D01*
X1947435Y-21588563D01*
X2100845Y-21976033D01*
X2326593Y-22326326D01*
X2616081Y-22626099D01*
X2958282Y-22863935D01*
X3340162Y-23030774D01*
X3747174Y-23120261D01*
X4163817Y-23128989D01*
X4574220Y-23056624D01*
X4962751Y-22905922D01*
X5314611Y-22682625D01*
X5616398Y-22395237D01*
X5856617Y-22054705D01*
X6026118Y-21674000D01*
X6039383Y-21615614D01*
X6123193Y-21615614D01*
X6171870Y-21880835D01*
X6271135Y-22131551D01*
X6417208Y-22358211D01*
X6604523Y-22552182D01*
X6825947Y-22706075D01*
X7073046Y-22814030D01*
X7336407Y-22871934D01*
X7605999Y-22877581D01*
X7871554Y-22830756D01*
X8122956Y-22733244D01*
X8350631Y-22588757D01*
X8545904Y-22402801D01*
X8648293Y-22257655D01*
X9622536Y-22257655D01*
X9688914Y-22619321D01*
X9824276Y-22961205D01*
X10023465Y-23270287D01*
X10278895Y-23534793D01*
X10580837Y-23744648D01*
X10917790Y-23891859D01*
X11276918Y-23970819D01*
X11644544Y-23978519D01*
X12006664Y-23914668D01*
X12349486Y-23781696D01*
X12659951Y-23584669D01*
X12926233Y-23331091D01*
X13138191Y-23030622D01*
X13287751Y-22694706D01*
X13369216Y-22336137D01*
X13375080Y-21916147D01*
X13303659Y-21555443D01*
X13163537Y-21215482D01*
X12960051Y-20909211D01*
X12700953Y-20648298D01*
X12396110Y-20442679D01*
X12057135Y-20300187D01*
X11696939Y-20226249D01*
X11329242Y-20223682D01*
X10968048Y-20292583D01*
X10627117Y-20430329D01*
X10319433Y-20631671D01*
X10056717Y-20888942D01*
X9848975Y-21192341D01*
X9704120Y-21530313D01*
X9627670Y-21889985D01*
X9622536Y-22257655D01*
X8648293Y-22257655D01*
X8701340Y-22182456D01*
X8811017Y-21936117D01*
X8870758Y-21673167D01*
X8875059Y-21365174D01*
X8822683Y-21100658D01*
X8719927Y-20851353D01*
X8570704Y-20626755D01*
X8380699Y-20435418D01*
X8157148Y-20284631D01*
X7908566Y-20180137D01*
X7644422Y-20125916D01*
X7374777Y-20124033D01*
X7109902Y-20174561D01*
X6859886Y-20275574D01*
X6634251Y-20423225D01*
X6441592Y-20611891D01*
X6289248Y-20834384D01*
X6183021Y-21082230D01*
X6126958Y-21345989D01*
X6123193Y-21615614D01*
X6039383Y-21615614D01*
X6118445Y-21267622D01*
X6125091Y-20791633D01*
X6044147Y-20382836D01*
X5885342Y-19997546D01*
X5654725Y-19650439D01*
X5361080Y-19354737D01*
X5015592Y-19121702D01*
X4631420Y-18960211D01*
X4223198Y-18876415D01*
X3806474Y-18873506D01*
X3397121Y-18951594D01*
X3010732Y-19107705D01*
X2662024Y-19335894D01*
X2364279Y-19627467D01*
X2128838Y-19971320D01*
X1964669Y-20354355D01*
X1878025Y-20761982D01*
X1872207Y-21178676D01*
X450000Y-21178676D01*
X450000Y-5483779D01*
X1820564Y-5483779D01*
X1940044Y-6134777D01*
X2183696Y-6750170D01*
X2542237Y-7306517D01*
X3002012Y-7782628D01*
X3545507Y-8160367D01*
X4152021Y-8425346D01*
X4798453Y-8567474D01*
X5460180Y-8581335D01*
X6111996Y-8466402D01*
X6729075Y-8227053D01*
X7287911Y-7872405D01*
X7767220Y-7415965D01*
X8148744Y-6875120D01*
X8417952Y-6270470D01*
X8564588Y-5625046D01*
X8566560Y-5483779D01*
X61820564Y-5483779D01*
X61940044Y-6134777D01*
X62183696Y-6750170D01*
X62542237Y-7306517D01*
X63002012Y-7782628D01*
X63545507Y-8160367D01*
X64152021Y-8425346D01*
X64798453Y-8567474D01*
X65460180Y-8581335D01*
X66111996Y-8466402D01*
X66729075Y-8227053D01*
X67287911Y-7872405D01*
X67767220Y-7415965D01*
X68148744Y-6875120D01*
X68417952Y-6270470D01*
X68564588Y-5625046D01*
X68575145Y-4869064D01*
X68446586Y-4219798D01*
X68194367Y-3607867D01*
X67828092Y-3056580D01*
X67361715Y-2586935D01*
X66812999Y-2216821D01*
X66202844Y-1960336D01*
X65554491Y-1827248D01*
X64892635Y-1822627D01*
X64242487Y-1946650D01*
X63628810Y-2194591D01*
X63074980Y-2557008D01*
X62602090Y-3020095D01*
X62228155Y-3566214D01*
X61967416Y-4174564D01*
X61829805Y-4821972D01*
X61820564Y-5483779D01*
X8566560Y-5483779D01*
X8575145Y-4869064D01*
X8446586Y-4219798D01*
X8194367Y-3607867D01*
X7828092Y-3056580D01*
X7361715Y-2586935D01*
X6812999Y-2216821D01*
X6202844Y-1960336D01*
X5554491Y-1827248D01*
X4892635Y-1822627D01*
X4242487Y-1946650D01*
X3628810Y-2194591D01*
X3074980Y-2557008D01*
X2602090Y-3020095D01*
X2228155Y-3566214D01*
X1967416Y-4174564D01*
X1829805Y-4821972D01*
X1820564Y-5483779D01*
X450000Y-5483779D01*
X450000Y-450000D01*
X69950000Y-450000D01*
X69950000Y-83950000D01*
X69950000Y-83950000D01*
G37*
X69950000Y-83950000D02*
X450000Y-83950000D01*
X450000Y-79483779D01*
X1820564Y-79483779D01*
X1940044Y-80134777D01*
X2183696Y-80750170D01*
X2542237Y-81306517D01*
X3002012Y-81782628D01*
X3545507Y-82160367D01*
X4152021Y-82425346D01*
X4798453Y-82567474D01*
X5460180Y-82581335D01*
X6111996Y-82466402D01*
X6729075Y-82227053D01*
X7287911Y-81872405D01*
X7767220Y-81415965D01*
X8148744Y-80875120D01*
X8417952Y-80270470D01*
X8564588Y-79625046D01*
X8575145Y-78869064D01*
X8446586Y-78219798D01*
X8194367Y-77607867D01*
X7847583Y-77085916D01*
X11847100Y-77085916D01*
X11980969Y-78279385D01*
X12344101Y-79424122D01*
X12922664Y-80476524D01*
X13694622Y-81396508D01*
X14630570Y-82149029D01*
X15694858Y-82705426D01*
X16846949Y-83044505D01*
X18042959Y-83153350D01*
X19237333Y-83027816D01*
X20384577Y-82672685D01*
X21440994Y-82101483D01*
X22366344Y-81335967D01*
X23125381Y-80405295D01*
X23689194Y-79344917D01*
X24036308Y-78195221D01*
X24145075Y-77085916D01*
X24847100Y-77085916D01*
X24980969Y-78279385D01*
X25344101Y-79424122D01*
X25922664Y-80476524D01*
X26694622Y-81396508D01*
X27630570Y-82149029D01*
X28694858Y-82705426D01*
X29846949Y-83044505D01*
X31042959Y-83153350D01*
X32237333Y-83027816D01*
X33384577Y-82672685D01*
X34440994Y-82101483D01*
X35366344Y-81335967D01*
X36125381Y-80405295D01*
X36689194Y-79344917D01*
X37036308Y-78195221D01*
X37153500Y-77000000D01*
X37151101Y-76828184D01*
X37000582Y-75636701D01*
X36621502Y-74497146D01*
X36028301Y-73452924D01*
X35399975Y-72725000D01*
X37310716Y-72725000D01*
X37310716Y-80975000D01*
X60289285Y-80975000D01*
X60289285Y-79483779D01*
X61820564Y-79483779D01*
X61940044Y-80134777D01*
X62183696Y-80750170D01*
X62542237Y-81306517D01*
X63002012Y-81782628D01*
X63545507Y-82160367D01*
X64152021Y-82425346D01*
X64798453Y-82567474D01*
X65460180Y-82581335D01*
X66111996Y-82466402D01*
X66729075Y-82227053D01*
X67287911Y-81872405D01*
X67767220Y-81415965D01*
X68148744Y-80875120D01*
X68417952Y-80270470D01*
X68564588Y-79625046D01*
X68575145Y-78869064D01*
X68446586Y-78219798D01*
X68194367Y-77607867D01*
X67828092Y-77056580D01*
X67361715Y-76586935D01*
X66812999Y-76216821D01*
X66202844Y-75960336D01*
X65554491Y-75827248D01*
X64892635Y-75822627D01*
X64242487Y-75946650D01*
X63628810Y-76194591D01*
X63074980Y-76557008D01*
X62602090Y-77020095D01*
X62228155Y-77566214D01*
X61967416Y-78174564D01*
X61829805Y-78821972D01*
X61820564Y-79483779D01*
X60289285Y-79483779D01*
X60289285Y-72725000D01*
X37310716Y-72725000D01*
X35399975Y-72725000D01*
X35243574Y-72543808D01*
X34297210Y-71804428D01*
X33225257Y-71262945D01*
X32068544Y-70939985D01*
X30871131Y-70847850D01*
X29678626Y-70990047D01*
X28536452Y-71361162D01*
X27488114Y-71947058D01*
X26573543Y-72725420D01*
X25827573Y-73666599D01*
X25278620Y-74734746D01*
X24947593Y-75889175D01*
X24847100Y-77085916D01*
X24145075Y-77085916D01*
X24153500Y-77000000D01*
X24151101Y-76828184D01*
X24000582Y-75636701D01*
X23621502Y-74497146D01*
X23028301Y-73452924D01*
X22243574Y-72543808D01*
X21297210Y-71804428D01*
X20225257Y-71262945D01*
X19068544Y-70939985D01*
X17871131Y-70847850D01*
X16678626Y-70990047D01*
X15536452Y-71361162D01*
X14488114Y-71947058D01*
X13573543Y-72725420D01*
X12827573Y-73666599D01*
X12278620Y-74734746D01*
X11947593Y-75889175D01*
X11847100Y-77085916D01*
X7847583Y-77085916D01*
X7828092Y-77056580D01*
X7361715Y-76586935D01*
X6812999Y-76216821D01*
X6202844Y-75960336D01*
X5554491Y-75827248D01*
X4892635Y-75822627D01*
X4242487Y-75946650D01*
X3628810Y-76194591D01*
X3074980Y-76557008D01*
X2602090Y-77020095D01*
X2228155Y-77566214D01*
X1967416Y-78174564D01*
X1829805Y-78821972D01*
X1820564Y-79483779D01*
X450000Y-79483779D01*
X450000Y-63178676D01*
X1872207Y-63178676D01*
X1947435Y-63588563D01*
X2100845Y-63976033D01*
X2326593Y-64326326D01*
X2616081Y-64626099D01*
X2958282Y-64863935D01*
X3340162Y-65030774D01*
X3747174Y-65120261D01*
X4163817Y-65128989D01*
X4574220Y-65056624D01*
X4962751Y-64905922D01*
X5314611Y-64682625D01*
X5616398Y-64395237D01*
X5856617Y-64054705D01*
X6026118Y-63674000D01*
X6118445Y-63267622D01*
X6125091Y-62791633D01*
X6090239Y-62615614D01*
X6123193Y-62615614D01*
X6171870Y-62880835D01*
X6271135Y-63131551D01*
X6417208Y-63358211D01*
X6604523Y-63552182D01*
X6825947Y-63706075D01*
X7073046Y-63814030D01*
X7336407Y-63871934D01*
X7605999Y-63877581D01*
X7871554Y-63830756D01*
X8122956Y-63733244D01*
X8350631Y-63588757D01*
X8545904Y-63402801D01*
X8676358Y-63217870D01*
X10288196Y-63217870D01*
X10454124Y-63467123D01*
X10779950Y-63641051D01*
X11133448Y-63748072D01*
X11501032Y-63784073D01*
X11868577Y-63747670D01*
X12221957Y-63640262D01*
X12545876Y-63467123D01*
X12711804Y-63217870D01*
X11500000Y-62006066D01*
X10288196Y-63217870D01*
X8676358Y-63217870D01*
X8701340Y-63182456D01*
X8811017Y-62936117D01*
X8870758Y-62673167D01*
X8875059Y-62365174D01*
X8822683Y-62100658D01*
X8740404Y-61901032D01*
X9615927Y-61901032D01*
X9652330Y-62268577D01*
X9759738Y-62621957D01*
X9932877Y-62945876D01*
X10182130Y-63111804D01*
X11393934Y-61900000D01*
X11606066Y-61900000D01*
X12817870Y-63111804D01*
X13067123Y-62945876D01*
X13241051Y-62620050D01*
X13348072Y-62266552D01*
X13384073Y-61898968D01*
X13347670Y-61531423D01*
X13240262Y-61178043D01*
X13067123Y-60854124D01*
X12817870Y-60688196D01*
X11606066Y-61900000D01*
X11393934Y-61900000D01*
X10182130Y-60688196D01*
X9932877Y-60854124D01*
X9758949Y-61179950D01*
X9651928Y-61533448D01*
X9615927Y-61901032D01*
X8740404Y-61901032D01*
X8719927Y-61851353D01*
X8570704Y-61626755D01*
X8380699Y-61435418D01*
X8157148Y-61284631D01*
X7908566Y-61180137D01*
X7644422Y-61125916D01*
X7374777Y-61124033D01*
X7109902Y-61174561D01*
X6859886Y-61275574D01*
X6634251Y-61423225D01*
X6441592Y-61611891D01*
X6289248Y-61834384D01*
X6183021Y-62082230D01*
X6126958Y-62345989D01*
X6123193Y-62615614D01*
X6090239Y-62615614D01*
X6044147Y-62382836D01*
X5885342Y-61997546D01*
X5654725Y-61650439D01*
X5361080Y-61354737D01*
X5015592Y-61121702D01*
X4631420Y-60960211D01*
X4223198Y-60876415D01*
X3806474Y-60873506D01*
X3397121Y-60951594D01*
X3010732Y-61107705D01*
X2662024Y-61335894D01*
X2364279Y-61627467D01*
X2128838Y-61971320D01*
X1964669Y-62354355D01*
X1878025Y-62761982D01*
X1872207Y-63178676D01*
X450000Y-63178676D01*
X450000Y-60582130D01*
X10288196Y-60582130D01*
X11500000Y-61793934D01*
X12711804Y-60582130D01*
X12545876Y-60332877D01*
X12220050Y-60158949D01*
X11866552Y-60051928D01*
X11498968Y-60015927D01*
X11131423Y-60052330D01*
X10778043Y-60159738D01*
X10454124Y-60332877D01*
X10288196Y-60582130D01*
X450000Y-60582130D01*
X450000Y-57178676D01*
X1872207Y-57178676D01*
X1947435Y-57588563D01*
X2100845Y-57976033D01*
X2326593Y-58326326D01*
X2616081Y-58626099D01*
X2958282Y-58863935D01*
X3340162Y-59030774D01*
X3747174Y-59120261D01*
X4163817Y-59128989D01*
X4574220Y-59056624D01*
X4962751Y-58905922D01*
X5314611Y-58682625D01*
X5616398Y-58395237D01*
X5856617Y-58054705D01*
X6026118Y-57674000D01*
X6039383Y-57615614D01*
X6123193Y-57615614D01*
X6171870Y-57880835D01*
X6271135Y-58131551D01*
X6417208Y-58358211D01*
X6604523Y-58552182D01*
X6825947Y-58706075D01*
X7073046Y-58814030D01*
X7336407Y-58871934D01*
X7605999Y-58877581D01*
X7871554Y-58830756D01*
X8122956Y-58733244D01*
X8350631Y-58588757D01*
X8545904Y-58402801D01*
X8648293Y-58257655D01*
X9622536Y-58257655D01*
X9688914Y-58619321D01*
X9824276Y-58961205D01*
X10023465Y-59270287D01*
X10278895Y-59534793D01*
X10580837Y-59744648D01*
X10917790Y-59891859D01*
X11276918Y-59970819D01*
X11644544Y-59978519D01*
X12006664Y-59914668D01*
X12349486Y-59781696D01*
X12659951Y-59584669D01*
X12926233Y-59331091D01*
X13138191Y-59030622D01*
X13287751Y-58694706D01*
X13369216Y-58336137D01*
X13375080Y-57916147D01*
X13303659Y-57555443D01*
X13163537Y-57215482D01*
X12960051Y-56909211D01*
X12700953Y-56648298D01*
X12396110Y-56442679D01*
X12057135Y-56300187D01*
X11696939Y-56226249D01*
X11329242Y-56223682D01*
X10968048Y-56292583D01*
X10627117Y-56430329D01*
X10319433Y-56631671D01*
X10056717Y-56888942D01*
X9848975Y-57192341D01*
X9704120Y-57530313D01*
X9627670Y-57889985D01*
X9622536Y-58257655D01*
X8648293Y-58257655D01*
X8701340Y-58182456D01*
X8811017Y-57936117D01*
X8870758Y-57673167D01*
X8875059Y-57365174D01*
X8822683Y-57100658D01*
X8719927Y-56851353D01*
X8570704Y-56626755D01*
X8380699Y-56435418D01*
X8157148Y-56284631D01*
X7908566Y-56180137D01*
X7644422Y-56125916D01*
X7374777Y-56124033D01*
X7109902Y-56174561D01*
X6859886Y-56275574D01*
X6634251Y-56423225D01*
X6441592Y-56611891D01*
X6289248Y-56834384D01*
X6183021Y-57082230D01*
X6126958Y-57345989D01*
X6123193Y-57615614D01*
X6039383Y-57615614D01*
X6118445Y-57267622D01*
X6125091Y-56791633D01*
X6044147Y-56382836D01*
X5885342Y-55997546D01*
X5654725Y-55650439D01*
X5361080Y-55354737D01*
X5015592Y-55121702D01*
X4631420Y-54960211D01*
X4223198Y-54876415D01*
X3806474Y-54873506D01*
X3397121Y-54951594D01*
X3010732Y-55107705D01*
X2662024Y-55335894D01*
X2364279Y-55627467D01*
X2128838Y-55971320D01*
X1964669Y-56354355D01*
X1878025Y-56761982D01*
X1872207Y-57178676D01*
X450000Y-57178676D01*
X450000Y-51178676D01*
X1872207Y-51178676D01*
X1947435Y-51588563D01*
X2100845Y-51976033D01*
X2326593Y-52326326D01*
X2616081Y-52626099D01*
X2958282Y-52863935D01*
X3340162Y-53030774D01*
X3747174Y-53120261D01*
X4163817Y-53128989D01*
X4574220Y-53056624D01*
X4962751Y-52905922D01*
X5314611Y-52682625D01*
X5616398Y-52395237D01*
X5856617Y-52054705D01*
X6026118Y-51674000D01*
X6118445Y-51267622D01*
X6125091Y-50791633D01*
X6090239Y-50615614D01*
X6123193Y-50615614D01*
X6171870Y-50880835D01*
X6271135Y-51131551D01*
X6417208Y-51358211D01*
X6604523Y-51552182D01*
X6825947Y-51706075D01*
X7073046Y-51814030D01*
X7336407Y-51871934D01*
X7605999Y-51877581D01*
X7871554Y-51830756D01*
X8122956Y-51733244D01*
X8350631Y-51588757D01*
X8545904Y-51402801D01*
X8676358Y-51217870D01*
X10288196Y-51217870D01*
X10454124Y-51467123D01*
X10779950Y-51641051D01*
X11133448Y-51748072D01*
X11501032Y-51784073D01*
X11868577Y-51747670D01*
X12221957Y-51640262D01*
X12545876Y-51467123D01*
X12711804Y-51217870D01*
X11500000Y-50006066D01*
X10288196Y-51217870D01*
X8676358Y-51217870D01*
X8701340Y-51182456D01*
X8811017Y-50936117D01*
X8870758Y-50673167D01*
X8875059Y-50365174D01*
X8822683Y-50100658D01*
X8740404Y-49901032D01*
X9615927Y-49901032D01*
X9652330Y-50268577D01*
X9759738Y-50621957D01*
X9932877Y-50945876D01*
X10182130Y-51111804D01*
X11393934Y-49900000D01*
X11606066Y-49900000D01*
X12817870Y-51111804D01*
X13067123Y-50945876D01*
X13241051Y-50620050D01*
X13348072Y-50266552D01*
X13384073Y-49898968D01*
X13347670Y-49531423D01*
X13240262Y-49178043D01*
X13067123Y-48854124D01*
X12817870Y-48688196D01*
X11606066Y-49900000D01*
X11393934Y-49900000D01*
X10182130Y-48688196D01*
X9932877Y-48854124D01*
X9758949Y-49179950D01*
X9651928Y-49533448D01*
X9615927Y-49901032D01*
X8740404Y-49901032D01*
X8719927Y-49851353D01*
X8570704Y-49626755D01*
X8380699Y-49435418D01*
X8157148Y-49284631D01*
X7908566Y-49180137D01*
X7644422Y-49125916D01*
X7374777Y-49124033D01*
X7109902Y-49174561D01*
X6859886Y-49275574D01*
X6634251Y-49423225D01*
X6441592Y-49611891D01*
X6289248Y-49834384D01*
X6183021Y-50082230D01*
X6126958Y-50345989D01*
X6123193Y-50615614D01*
X6090239Y-50615614D01*
X6044147Y-50382836D01*
X5885342Y-49997546D01*
X5654725Y-49650439D01*
X5361080Y-49354737D01*
X5015592Y-49121702D01*
X4631420Y-48960211D01*
X4223198Y-48876415D01*
X3806474Y-48873506D01*
X3397121Y-48951594D01*
X3010732Y-49107705D01*
X2662024Y-49335894D01*
X2364279Y-49627467D01*
X2128838Y-49971320D01*
X1964669Y-50354355D01*
X1878025Y-50761982D01*
X1872207Y-51178676D01*
X450000Y-51178676D01*
X450000Y-48582130D01*
X10288196Y-48582130D01*
X11500000Y-49793934D01*
X12711804Y-48582130D01*
X12545876Y-48332877D01*
X12220050Y-48158949D01*
X11866552Y-48051928D01*
X11498968Y-48015927D01*
X11131423Y-48052330D01*
X10778043Y-48159738D01*
X10454124Y-48332877D01*
X10288196Y-48582130D01*
X450000Y-48582130D01*
X450000Y-45178676D01*
X1872207Y-45178676D01*
X1947435Y-45588563D01*
X2100845Y-45976033D01*
X2326593Y-46326326D01*
X2616081Y-46626099D01*
X2958282Y-46863935D01*
X3340162Y-47030774D01*
X3747174Y-47120261D01*
X4163817Y-47128989D01*
X4574220Y-47056624D01*
X4962751Y-46905922D01*
X5314611Y-46682625D01*
X5616398Y-46395237D01*
X5856617Y-46054705D01*
X6026118Y-45674000D01*
X6039383Y-45615614D01*
X6123193Y-45615614D01*
X6171870Y-45880835D01*
X6271135Y-46131551D01*
X6417208Y-46358211D01*
X6604523Y-46552182D01*
X6825947Y-46706075D01*
X7073046Y-46814030D01*
X7336407Y-46871934D01*
X7605999Y-46877581D01*
X7871554Y-46830756D01*
X8122956Y-46733244D01*
X8350631Y-46588757D01*
X8545904Y-46402801D01*
X8648293Y-46257655D01*
X9622536Y-46257655D01*
X9688914Y-46619321D01*
X9824276Y-46961205D01*
X10023465Y-47270287D01*
X10278895Y-47534793D01*
X10580837Y-47744648D01*
X10917790Y-47891859D01*
X11276918Y-47970819D01*
X11644544Y-47978519D01*
X12006664Y-47914668D01*
X12349486Y-47781696D01*
X12659951Y-47584669D01*
X12926233Y-47331091D01*
X13138191Y-47030622D01*
X13287751Y-46694706D01*
X13369216Y-46336137D01*
X13375080Y-45916147D01*
X13303659Y-45555443D01*
X13163537Y-45215482D01*
X12960051Y-44909211D01*
X12700953Y-44648298D01*
X12396110Y-44442679D01*
X12057135Y-44300187D01*
X11696939Y-44226249D01*
X11329242Y-44223682D01*
X10968048Y-44292583D01*
X10627117Y-44430329D01*
X10319433Y-44631671D01*
X10056717Y-44888942D01*
X9848975Y-45192341D01*
X9704120Y-45530313D01*
X9627670Y-45889985D01*
X9622536Y-46257655D01*
X8648293Y-46257655D01*
X8701340Y-46182456D01*
X8811017Y-45936117D01*
X8870758Y-45673167D01*
X8875059Y-45365174D01*
X8822683Y-45100658D01*
X8719927Y-44851353D01*
X8570704Y-44626755D01*
X8380699Y-44435418D01*
X8157148Y-44284631D01*
X7908566Y-44180137D01*
X7644422Y-44125916D01*
X7374777Y-44124033D01*
X7109902Y-44174561D01*
X6859886Y-44275574D01*
X6634251Y-44423225D01*
X6441592Y-44611891D01*
X6289248Y-44834384D01*
X6183021Y-45082230D01*
X6126958Y-45345989D01*
X6123193Y-45615614D01*
X6039383Y-45615614D01*
X6118445Y-45267622D01*
X6125091Y-44791633D01*
X6044147Y-44382836D01*
X5885342Y-43997546D01*
X5654725Y-43650439D01*
X5361080Y-43354737D01*
X5302411Y-43315164D01*
X30973981Y-43315164D01*
X31001417Y-43464653D01*
X31057367Y-43605965D01*
X31139699Y-43733719D01*
X31245277Y-43843048D01*
X31250000Y-43846331D01*
X31250000Y-54654874D01*
X31153443Y-54749429D01*
X31067576Y-54874834D01*
X31007703Y-55014529D01*
X30976103Y-55163194D01*
X30973981Y-55315164D01*
X31001417Y-55464653D01*
X31057367Y-55605965D01*
X31139699Y-55733719D01*
X31245277Y-55843048D01*
X31250000Y-55846331D01*
X31250000Y-66654874D01*
X31153443Y-66749429D01*
X31067576Y-66874834D01*
X31007703Y-67014529D01*
X30976103Y-67163194D01*
X30973981Y-67315164D01*
X31001417Y-67464653D01*
X31057367Y-67605965D01*
X31139699Y-67733719D01*
X31245277Y-67843048D01*
X31370079Y-67929788D01*
X31509353Y-67990635D01*
X31657793Y-68023272D01*
X31724546Y-68024670D01*
X31723981Y-68065164D01*
X31751417Y-68214653D01*
X31807367Y-68355965D01*
X31889699Y-68483719D01*
X31995277Y-68593048D01*
X32120079Y-68679788D01*
X32259353Y-68740635D01*
X32407793Y-68773272D01*
X32559745Y-68776455D01*
X32709421Y-68750063D01*
X32851121Y-68695101D01*
X32979446Y-68613663D01*
X33089510Y-68508851D01*
X33177119Y-68384657D01*
X33238937Y-68245812D01*
X33272609Y-68097603D01*
X33275033Y-67924007D01*
X33245513Y-67774916D01*
X33187595Y-67634399D01*
X33103488Y-67507807D01*
X33000000Y-67403594D01*
X33000000Y-59206932D01*
X33001417Y-59214653D01*
X33057367Y-59355965D01*
X33139699Y-59483719D01*
X33245277Y-59593048D01*
X33370079Y-59679788D01*
X33509353Y-59740635D01*
X33657793Y-59773272D01*
X33809745Y-59776455D01*
X33959421Y-59750063D01*
X34101121Y-59695101D01*
X34229446Y-59613663D01*
X34339510Y-59508851D01*
X34427119Y-59384657D01*
X34488937Y-59245812D01*
X34522609Y-59097603D01*
X34525033Y-58924007D01*
X34495513Y-58774916D01*
X34437595Y-58634399D01*
X34353488Y-58507807D01*
X34250000Y-58403594D01*
X34250000Y-47594090D01*
X34339510Y-47508851D01*
X34427119Y-47384657D01*
X34488937Y-47245812D01*
X34522609Y-47097603D01*
X34525033Y-46924007D01*
X34495513Y-46774916D01*
X34437595Y-46634399D01*
X34353488Y-46507807D01*
X34250000Y-46403594D01*
X34250000Y-35594090D01*
X34339510Y-35508851D01*
X34427119Y-35384657D01*
X34488937Y-35245812D01*
X34522609Y-35097603D01*
X34525033Y-34924007D01*
X34495513Y-34774916D01*
X34437595Y-34634399D01*
X34353488Y-34507807D01*
X34250000Y-34403594D01*
X34250000Y-28065164D01*
X35223981Y-28065164D01*
X35251417Y-28214653D01*
X35307367Y-28355965D01*
X35389699Y-28483719D01*
X35495277Y-28593048D01*
X35500000Y-28596331D01*
X35500000Y-39404874D01*
X35403443Y-39499429D01*
X35317576Y-39624834D01*
X35257703Y-39764529D01*
X35226103Y-39913194D01*
X35223981Y-40065164D01*
X35251417Y-40214653D01*
X35307367Y-40355965D01*
X35389699Y-40483719D01*
X35495277Y-40593048D01*
X35500000Y-40596331D01*
X35500000Y-51404874D01*
X35403443Y-51499429D01*
X35317576Y-51624834D01*
X35257703Y-51764529D01*
X35226103Y-51913194D01*
X35223981Y-52065164D01*
X35251417Y-52214653D01*
X35307367Y-52355965D01*
X35389699Y-52483719D01*
X35495277Y-52593048D01*
X35500000Y-52596331D01*
X35500000Y-63404874D01*
X35403443Y-63499429D01*
X35317576Y-63624834D01*
X35257703Y-63764529D01*
X35226103Y-63913194D01*
X35223981Y-64065164D01*
X35251417Y-64214653D01*
X35307367Y-64355965D01*
X35389699Y-64483719D01*
X35495277Y-64593048D01*
X35620079Y-64679788D01*
X35759353Y-64740635D01*
X35907793Y-64773272D01*
X36059745Y-64776455D01*
X36067909Y-64775015D01*
X36984694Y-65691800D01*
X37020339Y-65721079D01*
X37055763Y-65750804D01*
X37058070Y-65752072D01*
X37060099Y-65753739D01*
X37100768Y-65775546D01*
X37141276Y-65797815D01*
X37143783Y-65798610D01*
X37146099Y-65799852D01*
X37190262Y-65813354D01*
X37234291Y-65827321D01*
X37236902Y-65827614D01*
X37239418Y-65828383D01*
X37285394Y-65833053D01*
X37331266Y-65838198D01*
X37336404Y-65838234D01*
X37336502Y-65838244D01*
X37336593Y-65838235D01*
X37338247Y-65838247D01*
X48806014Y-65838247D01*
X48851958Y-65833742D01*
X48897990Y-65829715D01*
X48900515Y-65828982D01*
X48903131Y-65828725D01*
X48947337Y-65815378D01*
X48991698Y-65802490D01*
X48994033Y-65801280D01*
X48996549Y-65800520D01*
X49037299Y-65778853D01*
X49078334Y-65757583D01*
X49080390Y-65755941D01*
X49082710Y-65754708D01*
X49118499Y-65725519D01*
X49154596Y-65696702D01*
X49158254Y-65693095D01*
X49158331Y-65693032D01*
X49158390Y-65692961D01*
X49159567Y-65691800D01*
X64660954Y-50190414D01*
X66063600Y-50190414D01*
X66123317Y-50185652D01*
X66224604Y-50154285D01*
X66313143Y-50095943D01*
X66381922Y-50015243D01*
X66425496Y-49918578D01*
X66440414Y-49813600D01*
X66440414Y-49450000D01*
X66604424Y-49450000D01*
X66697591Y-49628212D01*
X66849061Y-49816603D01*
X67034239Y-49971986D01*
X67246071Y-50088441D01*
X67476488Y-50161534D01*
X67716713Y-50188479D01*
X67734007Y-50188600D01*
X67745993Y-50188600D01*
X67986572Y-50165011D01*
X68217987Y-50095143D01*
X68431424Y-49981656D01*
X68618753Y-49828874D01*
X68772839Y-49642616D01*
X68887813Y-49429977D01*
X68959295Y-49199055D01*
X68984563Y-48958647D01*
X68962654Y-48717910D01*
X68894403Y-48486012D01*
X68782409Y-48271788D01*
X68630939Y-48083397D01*
X68445761Y-47928014D01*
X68233929Y-47811559D01*
X68003512Y-47738466D01*
X67763287Y-47711521D01*
X67745993Y-47711400D01*
X67734007Y-47711400D01*
X67493428Y-47734989D01*
X67262013Y-47804857D01*
X67048576Y-47918344D01*
X66861247Y-48071126D01*
X66707161Y-48257384D01*
X66603013Y-48450000D01*
X66440414Y-48450000D01*
X66440414Y-48086400D01*
X66435652Y-48026683D01*
X66404285Y-47925396D01*
X66345943Y-47836857D01*
X66265243Y-47768078D01*
X66168578Y-47724504D01*
X66063600Y-47709586D01*
X64336400Y-47709586D01*
X64276683Y-47714348D01*
X64175396Y-47745715D01*
X64086857Y-47804057D01*
X64018078Y-47884757D01*
X63974504Y-47981422D01*
X63959586Y-48086400D01*
X63959586Y-49477568D01*
X48598908Y-64838247D01*
X37545353Y-64838247D01*
X36773051Y-64065945D01*
X36775033Y-63924007D01*
X36745513Y-63774916D01*
X36687595Y-63634399D01*
X36603488Y-63507807D01*
X36500000Y-63403594D01*
X36500000Y-52594090D01*
X36589510Y-52508851D01*
X36677119Y-52384657D01*
X36738937Y-52245812D01*
X36772609Y-52097603D01*
X36775033Y-51924007D01*
X36745513Y-51774916D01*
X36687595Y-51634399D01*
X36603488Y-51507807D01*
X36500000Y-51403594D01*
X36500000Y-40594090D01*
X36589510Y-40508851D01*
X36677119Y-40384657D01*
X36738937Y-40245812D01*
X36772609Y-40097603D01*
X36775033Y-39924007D01*
X36745513Y-39774916D01*
X36687595Y-39634399D01*
X36603488Y-39507807D01*
X36500000Y-39403594D01*
X36500000Y-28594090D01*
X36589510Y-28508851D01*
X36677119Y-28384657D01*
X36738937Y-28245812D01*
X36772609Y-28097603D01*
X36773061Y-28065164D01*
X37723981Y-28065164D01*
X37751417Y-28214653D01*
X37807367Y-28355965D01*
X37889699Y-28483719D01*
X37995277Y-28593048D01*
X38000000Y-28596331D01*
X38000000Y-39404874D01*
X37903443Y-39499429D01*
X37817576Y-39624834D01*
X37757703Y-39764529D01*
X37726103Y-39913194D01*
X37723981Y-40065164D01*
X37751417Y-40214653D01*
X37807367Y-40355965D01*
X37889699Y-40483719D01*
X37995277Y-40593048D01*
X38000000Y-40596331D01*
X38000000Y-51404874D01*
X37903443Y-51499429D01*
X37817576Y-51624834D01*
X37757703Y-51764529D01*
X37726103Y-51913194D01*
X37723981Y-52065164D01*
X37751417Y-52214653D01*
X37807367Y-52355965D01*
X37889699Y-52483719D01*
X37995277Y-52593048D01*
X38000000Y-52596331D01*
X38000000Y-63404874D01*
X37903443Y-63499429D01*
X37817576Y-63624834D01*
X37757703Y-63764529D01*
X37726103Y-63913194D01*
X37723981Y-64065164D01*
X37751417Y-64214653D01*
X37807367Y-64355965D01*
X37889699Y-64483719D01*
X37995277Y-64593048D01*
X38120079Y-64679788D01*
X38259353Y-64740635D01*
X38407793Y-64773272D01*
X38559745Y-64776455D01*
X38709421Y-64750063D01*
X38851121Y-64695101D01*
X38979446Y-64613663D01*
X39089510Y-64508851D01*
X39177119Y-64384657D01*
X39238937Y-64245812D01*
X39272609Y-64097603D01*
X39275033Y-63924007D01*
X39245513Y-63774916D01*
X39187595Y-63634399D01*
X39103488Y-63507807D01*
X39000000Y-63403594D01*
X39000000Y-52594090D01*
X39089510Y-52508851D01*
X39177119Y-52384657D01*
X39238937Y-52245812D01*
X39272609Y-52097603D01*
X39275033Y-51924007D01*
X39245513Y-51774916D01*
X39187595Y-51634399D01*
X39103488Y-51507807D01*
X39000000Y-51403594D01*
X39000000Y-40594090D01*
X39089510Y-40508851D01*
X39177119Y-40384657D01*
X39238937Y-40245812D01*
X39272609Y-40097603D01*
X39275033Y-39924007D01*
X39245513Y-39774916D01*
X39187595Y-39634399D01*
X39103488Y-39507807D01*
X39000000Y-39403594D01*
X39000000Y-28594090D01*
X39089510Y-28508851D01*
X39177119Y-28384657D01*
X39238937Y-28245812D01*
X39272609Y-28097603D01*
X39274919Y-27932187D01*
X39360824Y-27846282D01*
X64242527Y-27846282D01*
X64167161Y-27937384D01*
X64052187Y-28150023D01*
X63980705Y-28380945D01*
X63955437Y-28621353D01*
X63977346Y-28862090D01*
X64045597Y-29093988D01*
X64157591Y-29308212D01*
X64230493Y-29398884D01*
X44093116Y-29398884D01*
X44047164Y-29403389D01*
X44001141Y-29407416D01*
X43998617Y-29408149D01*
X43995999Y-29408406D01*
X43951781Y-29421757D01*
X43907432Y-29434641D01*
X43905097Y-29435851D01*
X43902581Y-29436611D01*
X43861810Y-29458289D01*
X43820797Y-29479548D01*
X43818742Y-29481188D01*
X43816420Y-29482423D01*
X43780610Y-29511630D01*
X43744534Y-29540429D01*
X43740876Y-29544036D01*
X43740799Y-29544099D01*
X43740740Y-29544170D01*
X43739563Y-29545331D01*
X42396447Y-30888447D01*
X42367168Y-30924092D01*
X42337443Y-30959516D01*
X42336175Y-30961823D01*
X42334508Y-30963852D01*
X42312701Y-31004521D01*
X42290432Y-31045029D01*
X42289637Y-31047536D01*
X42288395Y-31049852D01*
X42274893Y-31094015D01*
X42260926Y-31138044D01*
X42260633Y-31140655D01*
X42259864Y-31143171D01*
X42255194Y-31189147D01*
X42250049Y-31235019D01*
X42250013Y-31240157D01*
X42250003Y-31240255D01*
X42250012Y-31240346D01*
X42250000Y-31242000D01*
X42250000Y-44904874D01*
X42153443Y-44999429D01*
X42067576Y-45124834D01*
X42007703Y-45264529D01*
X41976103Y-45413194D01*
X41973981Y-45565164D01*
X42001417Y-45714653D01*
X42057367Y-45855965D01*
X42139699Y-45983719D01*
X42245277Y-46093048D01*
X42370079Y-46179788D01*
X42509353Y-46240635D01*
X42657793Y-46273272D01*
X42809745Y-46276455D01*
X42959421Y-46250063D01*
X43000000Y-46234323D01*
X43000000Y-56904874D01*
X42903443Y-56999429D01*
X42817576Y-57124834D01*
X42757703Y-57264529D01*
X42726103Y-57413194D01*
X42723981Y-57565164D01*
X42751417Y-57714653D01*
X42807367Y-57855965D01*
X42889699Y-57983719D01*
X42995277Y-58093048D01*
X43120079Y-58179788D01*
X43259353Y-58240635D01*
X43407793Y-58273272D01*
X43559745Y-58276455D01*
X43709421Y-58250063D01*
X43851121Y-58195101D01*
X43979446Y-58113663D01*
X44089510Y-58008851D01*
X44177119Y-57884657D01*
X44238937Y-57745812D01*
X44272609Y-57597603D01*
X44275033Y-57424007D01*
X44245513Y-57274916D01*
X44187595Y-57134399D01*
X44103488Y-57007807D01*
X44000000Y-56903594D01*
X44000000Y-46401353D01*
X63955437Y-46401353D01*
X63977346Y-46642090D01*
X64045597Y-46873988D01*
X64157591Y-47088212D01*
X64309061Y-47276603D01*
X64494239Y-47431986D01*
X64706071Y-47548441D01*
X64936488Y-47621534D01*
X65176713Y-47648479D01*
X65194007Y-47648600D01*
X65205993Y-47648600D01*
X65446572Y-47625011D01*
X65677987Y-47555143D01*
X65891424Y-47441656D01*
X66078753Y-47288874D01*
X66232839Y-47102616D01*
X66347813Y-46889977D01*
X66419295Y-46659055D01*
X66444563Y-46418647D01*
X66442990Y-46401353D01*
X66495437Y-46401353D01*
X66517346Y-46642090D01*
X66585597Y-46873988D01*
X66697591Y-47088212D01*
X66849061Y-47276603D01*
X67034239Y-47431986D01*
X67246071Y-47548441D01*
X67476488Y-47621534D01*
X67716713Y-47648479D01*
X67734007Y-47648600D01*
X67745993Y-47648600D01*
X67986572Y-47625011D01*
X68217987Y-47555143D01*
X68431424Y-47441656D01*
X68618753Y-47288874D01*
X68772839Y-47102616D01*
X68887813Y-46889977D01*
X68959295Y-46659055D01*
X68984563Y-46418647D01*
X68962654Y-46177910D01*
X68894403Y-45946012D01*
X68782409Y-45731788D01*
X68630939Y-45543397D01*
X68445761Y-45388014D01*
X68233929Y-45271559D01*
X68003512Y-45198466D01*
X67763287Y-45171521D01*
X67745993Y-45171400D01*
X67734007Y-45171400D01*
X67493428Y-45194989D01*
X67262013Y-45264857D01*
X67048576Y-45378344D01*
X66861247Y-45531126D01*
X66707161Y-45717384D01*
X66592187Y-45930023D01*
X66520705Y-46160945D01*
X66495437Y-46401353D01*
X66442990Y-46401353D01*
X66422654Y-46177910D01*
X66354403Y-45946012D01*
X66242409Y-45731788D01*
X66090939Y-45543397D01*
X65905761Y-45388014D01*
X65693929Y-45271559D01*
X65463512Y-45198466D01*
X65223287Y-45171521D01*
X65205993Y-45171400D01*
X65194007Y-45171400D01*
X64953428Y-45194989D01*
X64722013Y-45264857D01*
X64508576Y-45378344D01*
X64321247Y-45531126D01*
X64167161Y-45717384D01*
X64052187Y-45930023D01*
X63980705Y-46160945D01*
X63955437Y-46401353D01*
X44000000Y-46401353D01*
X44000000Y-43861353D01*
X63955437Y-43861353D01*
X63977346Y-44102090D01*
X64045597Y-44333988D01*
X64157591Y-44548212D01*
X64309061Y-44736603D01*
X64494239Y-44891986D01*
X64706071Y-45008441D01*
X64936488Y-45081534D01*
X65176713Y-45108479D01*
X65194007Y-45108600D01*
X65205993Y-45108600D01*
X65446572Y-45085011D01*
X65677987Y-45015143D01*
X65891424Y-44901656D01*
X66078753Y-44748874D01*
X66232839Y-44562616D01*
X66347813Y-44349977D01*
X66419295Y-44119055D01*
X66444563Y-43878647D01*
X66442990Y-43861353D01*
X66495437Y-43861353D01*
X66517346Y-44102090D01*
X66585597Y-44333988D01*
X66697591Y-44548212D01*
X66849061Y-44736603D01*
X67034239Y-44891986D01*
X67246071Y-45008441D01*
X67476488Y-45081534D01*
X67716713Y-45108479D01*
X67734007Y-45108600D01*
X67745993Y-45108600D01*
X67986572Y-45085011D01*
X68217987Y-45015143D01*
X68431424Y-44901656D01*
X68618753Y-44748874D01*
X68772839Y-44562616D01*
X68887813Y-44349977D01*
X68959295Y-44119055D01*
X68984563Y-43878647D01*
X68962654Y-43637910D01*
X68894403Y-43406012D01*
X68782409Y-43191788D01*
X68630939Y-43003397D01*
X68445761Y-42848014D01*
X68233929Y-42731559D01*
X68003512Y-42658466D01*
X67763287Y-42631521D01*
X67745993Y-42631400D01*
X67734007Y-42631400D01*
X67493428Y-42654989D01*
X67262013Y-42724857D01*
X67048576Y-42838344D01*
X66861247Y-42991126D01*
X66707161Y-43177384D01*
X66592187Y-43390023D01*
X66520705Y-43620945D01*
X66495437Y-43861353D01*
X66442990Y-43861353D01*
X66422654Y-43637910D01*
X66354403Y-43406012D01*
X66242409Y-43191788D01*
X66090939Y-43003397D01*
X65905761Y-42848014D01*
X65693929Y-42731559D01*
X65463512Y-42658466D01*
X65223287Y-42631521D01*
X65205993Y-42631400D01*
X65194007Y-42631400D01*
X64953428Y-42654989D01*
X64722013Y-42724857D01*
X64508576Y-42838344D01*
X64321247Y-42991126D01*
X64167161Y-43177384D01*
X64052187Y-43390023D01*
X63980705Y-43620945D01*
X63955437Y-43861353D01*
X44000000Y-43861353D01*
X44000000Y-41321353D01*
X63955437Y-41321353D01*
X63977346Y-41562090D01*
X64045597Y-41793988D01*
X64157591Y-42008212D01*
X64309061Y-42196603D01*
X64494239Y-42351986D01*
X64706071Y-42468441D01*
X64936488Y-42541534D01*
X65176713Y-42568479D01*
X65194007Y-42568600D01*
X65205993Y-42568600D01*
X65446572Y-42545011D01*
X65677987Y-42475143D01*
X65891424Y-42361656D01*
X66078753Y-42208874D01*
X66232839Y-42022616D01*
X66347813Y-41809977D01*
X66419295Y-41579055D01*
X66444563Y-41338647D01*
X66442990Y-41321353D01*
X66495437Y-41321353D01*
X66517346Y-41562090D01*
X66585597Y-41793988D01*
X66697591Y-42008212D01*
X66849061Y-42196603D01*
X67034239Y-42351986D01*
X67246071Y-42468441D01*
X67476488Y-42541534D01*
X67716713Y-42568479D01*
X67734007Y-42568600D01*
X67745993Y-42568600D01*
X67986572Y-42545011D01*
X68217987Y-42475143D01*
X68431424Y-42361656D01*
X68618753Y-42208874D01*
X68772839Y-42022616D01*
X68887813Y-41809977D01*
X68959295Y-41579055D01*
X68984563Y-41338647D01*
X68962654Y-41097910D01*
X68894403Y-40866012D01*
X68782409Y-40651788D01*
X68630939Y-40463397D01*
X68445761Y-40308014D01*
X68233929Y-40191559D01*
X68003512Y-40118466D01*
X67763287Y-40091521D01*
X67745993Y-40091400D01*
X67734007Y-40091400D01*
X67493428Y-40114989D01*
X67262013Y-40184857D01*
X67048576Y-40298344D01*
X66861247Y-40451126D01*
X66707161Y-40637384D01*
X66592187Y-40850023D01*
X66520705Y-41080945D01*
X66495437Y-41321353D01*
X66442990Y-41321353D01*
X66422654Y-41097910D01*
X66354403Y-40866012D01*
X66242409Y-40651788D01*
X66090939Y-40463397D01*
X65905761Y-40308014D01*
X65693929Y-40191559D01*
X65463512Y-40118466D01*
X65223287Y-40091521D01*
X65205993Y-40091400D01*
X65194007Y-40091400D01*
X64953428Y-40114989D01*
X64722013Y-40184857D01*
X64508576Y-40298344D01*
X64321247Y-40451126D01*
X64167161Y-40637384D01*
X64052187Y-40850023D01*
X63980705Y-41080945D01*
X63955437Y-41321353D01*
X44000000Y-41321353D01*
X44000000Y-38781353D01*
X63955437Y-38781353D01*
X63977346Y-39022090D01*
X64045597Y-39253988D01*
X64157591Y-39468212D01*
X64309061Y-39656603D01*
X64494239Y-39811986D01*
X64706071Y-39928441D01*
X64936488Y-40001534D01*
X65176713Y-40028479D01*
X65194007Y-40028600D01*
X65205993Y-40028600D01*
X65446572Y-40005011D01*
X65677987Y-39935143D01*
X65891424Y-39821656D01*
X66078753Y-39668874D01*
X66232839Y-39482616D01*
X66347813Y-39269977D01*
X66419295Y-39039055D01*
X66444563Y-38798647D01*
X66442990Y-38781353D01*
X66495437Y-38781353D01*
X66517346Y-39022090D01*
X66585597Y-39253988D01*
X66697591Y-39468212D01*
X66849061Y-39656603D01*
X67034239Y-39811986D01*
X67246071Y-39928441D01*
X67476488Y-40001534D01*
X67716713Y-40028479D01*
X67734007Y-40028600D01*
X67745993Y-40028600D01*
X67986572Y-40005011D01*
X68217987Y-39935143D01*
X68431424Y-39821656D01*
X68618753Y-39668874D01*
X68772839Y-39482616D01*
X68887813Y-39269977D01*
X68959295Y-39039055D01*
X68984563Y-38798647D01*
X68962654Y-38557910D01*
X68894403Y-38326012D01*
X68782409Y-38111788D01*
X68630939Y-37923397D01*
X68445761Y-37768014D01*
X68233929Y-37651559D01*
X68003512Y-37578466D01*
X67763287Y-37551521D01*
X67745993Y-37551400D01*
X67734007Y-37551400D01*
X67493428Y-37574989D01*
X67262013Y-37644857D01*
X67048576Y-37758344D01*
X66861247Y-37911126D01*
X66707161Y-38097384D01*
X66592187Y-38310023D01*
X66520705Y-38540945D01*
X66495437Y-38781353D01*
X66442990Y-38781353D01*
X66422654Y-38557910D01*
X66354403Y-38326012D01*
X66242409Y-38111788D01*
X66090939Y-37923397D01*
X65905761Y-37768014D01*
X65693929Y-37651559D01*
X65463512Y-37578466D01*
X65223287Y-37551521D01*
X65205993Y-37551400D01*
X65194007Y-37551400D01*
X64953428Y-37574989D01*
X64722013Y-37644857D01*
X64508576Y-37758344D01*
X64321247Y-37911126D01*
X64167161Y-38097384D01*
X64052187Y-38310023D01*
X63980705Y-38540945D01*
X63955437Y-38781353D01*
X44000000Y-38781353D01*
X44000000Y-36241353D01*
X63955437Y-36241353D01*
X63977346Y-36482090D01*
X64045597Y-36713988D01*
X64157591Y-36928212D01*
X64309061Y-37116603D01*
X64494239Y-37271986D01*
X64706071Y-37388441D01*
X64936488Y-37461534D01*
X65176713Y-37488479D01*
X65194007Y-37488600D01*
X65205993Y-37488600D01*
X65446572Y-37465011D01*
X65677987Y-37395143D01*
X65891424Y-37281656D01*
X66078753Y-37128874D01*
X66232839Y-36942616D01*
X66347813Y-36729977D01*
X66419295Y-36499055D01*
X66444563Y-36258647D01*
X66442990Y-36241353D01*
X66495437Y-36241353D01*
X66517346Y-36482090D01*
X66585597Y-36713988D01*
X66697591Y-36928212D01*
X66849061Y-37116603D01*
X67034239Y-37271986D01*
X67246071Y-37388441D01*
X67476488Y-37461534D01*
X67716713Y-37488479D01*
X67734007Y-37488600D01*
X67745993Y-37488600D01*
X67986572Y-37465011D01*
X68217987Y-37395143D01*
X68431424Y-37281656D01*
X68618753Y-37128874D01*
X68772839Y-36942616D01*
X68887813Y-36729977D01*
X68959295Y-36499055D01*
X68984563Y-36258647D01*
X68962654Y-36017910D01*
X68894403Y-35786012D01*
X68782409Y-35571788D01*
X68630939Y-35383397D01*
X68445761Y-35228014D01*
X68233929Y-35111559D01*
X68003512Y-35038466D01*
X67763287Y-35011521D01*
X67745993Y-35011400D01*
X67734007Y-35011400D01*
X67493428Y-35034989D01*
X67262013Y-35104857D01*
X67048576Y-35218344D01*
X66861247Y-35371126D01*
X66707161Y-35557384D01*
X66592187Y-35770023D01*
X66520705Y-36000945D01*
X66495437Y-36241353D01*
X66442990Y-36241353D01*
X66422654Y-36017910D01*
X66354403Y-35786012D01*
X66242409Y-35571788D01*
X66090939Y-35383397D01*
X65905761Y-35228014D01*
X65693929Y-35111559D01*
X65463512Y-35038466D01*
X65223287Y-35011521D01*
X65205993Y-35011400D01*
X65194007Y-35011400D01*
X64953428Y-35034989D01*
X64722013Y-35104857D01*
X64508576Y-35218344D01*
X64321247Y-35371126D01*
X64167161Y-35557384D01*
X64052187Y-35770023D01*
X63980705Y-36000945D01*
X63955437Y-36241353D01*
X44000000Y-36241353D01*
X44000000Y-34207106D01*
X45279604Y-32927502D01*
X64241518Y-32927502D01*
X64167161Y-33017384D01*
X64052187Y-33230023D01*
X63980705Y-33460945D01*
X63955437Y-33701353D01*
X63977346Y-33942090D01*
X64045597Y-34173988D01*
X64157591Y-34388212D01*
X64309061Y-34576603D01*
X64494239Y-34731986D01*
X64706071Y-34848441D01*
X64936488Y-34921534D01*
X65176713Y-34948479D01*
X65194007Y-34948600D01*
X65205993Y-34948600D01*
X65446572Y-34925011D01*
X65677987Y-34855143D01*
X65891424Y-34741656D01*
X66078753Y-34588874D01*
X66232839Y-34402616D01*
X66347813Y-34189977D01*
X66419295Y-33959055D01*
X66444563Y-33718647D01*
X66442990Y-33701353D01*
X66495437Y-33701353D01*
X66517346Y-33942090D01*
X66585597Y-34173988D01*
X66697591Y-34388212D01*
X66849061Y-34576603D01*
X67034239Y-34731986D01*
X67246071Y-34848441D01*
X67476488Y-34921534D01*
X67716713Y-34948479D01*
X67734007Y-34948600D01*
X67745993Y-34948600D01*
X67986572Y-34925011D01*
X68217987Y-34855143D01*
X68431424Y-34741656D01*
X68618753Y-34588874D01*
X68772839Y-34402616D01*
X68887813Y-34189977D01*
X68959295Y-33959055D01*
X68984563Y-33718647D01*
X68962654Y-33477910D01*
X68894403Y-33246012D01*
X68782409Y-33031788D01*
X68630939Y-32843397D01*
X68445761Y-32688014D01*
X68233929Y-32571559D01*
X68003512Y-32498466D01*
X67763287Y-32471521D01*
X67745993Y-32471400D01*
X67734007Y-32471400D01*
X67493428Y-32494989D01*
X67262013Y-32564857D01*
X67048576Y-32678344D01*
X66861247Y-32831126D01*
X66707161Y-33017384D01*
X66592187Y-33230023D01*
X66520705Y-33460945D01*
X66495437Y-33701353D01*
X66442990Y-33701353D01*
X66422654Y-33477910D01*
X66354403Y-33246012D01*
X66242409Y-33031788D01*
X66158561Y-32927502D01*
X66482498Y-32927502D01*
X66528442Y-32922997D01*
X66574474Y-32918970D01*
X66576999Y-32918237D01*
X66579615Y-32917980D01*
X66623821Y-32904633D01*
X66668182Y-32891745D01*
X66670517Y-32890535D01*
X66673033Y-32889775D01*
X66713783Y-32868108D01*
X66754818Y-32846838D01*
X66756874Y-32845196D01*
X66759194Y-32843963D01*
X66794983Y-32814774D01*
X66831080Y-32785957D01*
X66834738Y-32782350D01*
X66834815Y-32782287D01*
X66834874Y-32782216D01*
X66836051Y-32781055D01*
X67293591Y-32323515D01*
X67476488Y-32381534D01*
X67716713Y-32408479D01*
X67734007Y-32408600D01*
X67745993Y-32408600D01*
X67986572Y-32385011D01*
X68217987Y-32315143D01*
X68431424Y-32201656D01*
X68618753Y-32048874D01*
X68772839Y-31862616D01*
X68887813Y-31649977D01*
X68959295Y-31419055D01*
X68984563Y-31178647D01*
X68962654Y-30937910D01*
X68894403Y-30706012D01*
X68782409Y-30491788D01*
X68630939Y-30303397D01*
X68445761Y-30148014D01*
X68233929Y-30031559D01*
X68003512Y-29958466D01*
X67763287Y-29931521D01*
X67745993Y-29931400D01*
X67734007Y-29931400D01*
X67493428Y-29954989D01*
X67262013Y-30024857D01*
X67048576Y-30138344D01*
X66861247Y-30291126D01*
X66707161Y-30477384D01*
X66592187Y-30690023D01*
X66520705Y-30920945D01*
X66495437Y-31161353D01*
X66517346Y-31402090D01*
X66581802Y-31621092D01*
X66275392Y-31927502D01*
X66179161Y-31927502D01*
X66232839Y-31862616D01*
X66347813Y-31649977D01*
X66419295Y-31419055D01*
X66444563Y-31178647D01*
X66422654Y-30937910D01*
X66354403Y-30706012D01*
X66242409Y-30491788D01*
X66167712Y-30398884D01*
X66471116Y-30398884D01*
X66517060Y-30394379D01*
X66563092Y-30390352D01*
X66565617Y-30389619D01*
X66568233Y-30389362D01*
X66612439Y-30376015D01*
X66656800Y-30363127D01*
X66659135Y-30361917D01*
X66661651Y-30361157D01*
X66702401Y-30339490D01*
X66743436Y-30318220D01*
X66745492Y-30316578D01*
X66747812Y-30315345D01*
X66783601Y-30286156D01*
X66819698Y-30257339D01*
X66823356Y-30253732D01*
X66823433Y-30253669D01*
X66823492Y-30253598D01*
X66824669Y-30252437D01*
X67229955Y-29847152D01*
X67229960Y-29847146D01*
X67293591Y-29783515D01*
X67476488Y-29841534D01*
X67716713Y-29868479D01*
X67734007Y-29868600D01*
X67745993Y-29868600D01*
X67986572Y-29845011D01*
X68217987Y-29775143D01*
X68431424Y-29661656D01*
X68618753Y-29508874D01*
X68772839Y-29322616D01*
X68887813Y-29109977D01*
X68959295Y-28879055D01*
X68984563Y-28638647D01*
X68962654Y-28397910D01*
X68894403Y-28166012D01*
X68782409Y-27951788D01*
X68630939Y-27763397D01*
X68445761Y-27608014D01*
X68233929Y-27491559D01*
X68003512Y-27418466D01*
X67763287Y-27391521D01*
X67745993Y-27391400D01*
X67734007Y-27391400D01*
X67493428Y-27414989D01*
X67262013Y-27484857D01*
X67048576Y-27598344D01*
X66861247Y-27751126D01*
X66707161Y-27937384D01*
X66592187Y-28150023D01*
X66520705Y-28380945D01*
X66495437Y-28621353D01*
X66517346Y-28862090D01*
X66581802Y-29081092D01*
X66522919Y-29139975D01*
X66522848Y-29140045D01*
X66264010Y-29398884D01*
X66169745Y-29398884D01*
X66232839Y-29322616D01*
X66347813Y-29109977D01*
X66419295Y-28879055D01*
X66444563Y-28638647D01*
X66422654Y-28397910D01*
X66354403Y-28166012D01*
X66242409Y-27951788D01*
X66157580Y-27846282D01*
X66483718Y-27846282D01*
X66529662Y-27841777D01*
X66575694Y-27837750D01*
X66578219Y-27837017D01*
X66580835Y-27836760D01*
X66625041Y-27823413D01*
X66669402Y-27810525D01*
X66671737Y-27809315D01*
X66674253Y-27808555D01*
X66715003Y-27786888D01*
X66756038Y-27765618D01*
X66758094Y-27763976D01*
X66760414Y-27762743D01*
X66796203Y-27733554D01*
X66832300Y-27704737D01*
X66835958Y-27701130D01*
X66836035Y-27701067D01*
X66836094Y-27700996D01*
X66837271Y-27699835D01*
X67229955Y-27307152D01*
X67229960Y-27307146D01*
X67293591Y-27243515D01*
X67476488Y-27301534D01*
X67716713Y-27328479D01*
X67734007Y-27328600D01*
X67745993Y-27328600D01*
X67986572Y-27305011D01*
X68217987Y-27235143D01*
X68431424Y-27121656D01*
X68618753Y-26968874D01*
X68772839Y-26782616D01*
X68887813Y-26569977D01*
X68959295Y-26339055D01*
X68984563Y-26098647D01*
X68962654Y-25857910D01*
X68894403Y-25626012D01*
X68782409Y-25411788D01*
X68630939Y-25223397D01*
X68445761Y-25068014D01*
X68233929Y-24951559D01*
X68003512Y-24878466D01*
X67763287Y-24851521D01*
X67745993Y-24851400D01*
X67734007Y-24851400D01*
X67493428Y-24874989D01*
X67262013Y-24944857D01*
X67048576Y-25058344D01*
X66861247Y-25211126D01*
X66707161Y-25397384D01*
X66592187Y-25610023D01*
X66520705Y-25840945D01*
X66495437Y-26081353D01*
X66517346Y-26322090D01*
X66581802Y-26541092D01*
X66522919Y-26599975D01*
X66522848Y-26600045D01*
X66276612Y-26846282D01*
X66180170Y-26846282D01*
X66232839Y-26782616D01*
X66347813Y-26569977D01*
X66419295Y-26339055D01*
X66444563Y-26098647D01*
X66422654Y-25857910D01*
X66354403Y-25626012D01*
X66242409Y-25411788D01*
X66090939Y-25223397D01*
X65905761Y-25068014D01*
X65693929Y-24951559D01*
X65463512Y-24878466D01*
X65223287Y-24851521D01*
X65205993Y-24851400D01*
X65194007Y-24851400D01*
X64953428Y-24874989D01*
X64722013Y-24944857D01*
X64508576Y-25058344D01*
X64321247Y-25211126D01*
X64167161Y-25397384D01*
X64052187Y-25610023D01*
X63980705Y-25840945D01*
X63955437Y-26081353D01*
X63977346Y-26322090D01*
X64045597Y-26553988D01*
X64157591Y-26768212D01*
X64220361Y-26846282D01*
X39153718Y-26846282D01*
X39107766Y-26850787D01*
X39061743Y-26854814D01*
X39059219Y-26855547D01*
X39056601Y-26855804D01*
X39012383Y-26869155D01*
X38968034Y-26882039D01*
X38965699Y-26883249D01*
X38963183Y-26884009D01*
X38922412Y-26905687D01*
X38881399Y-26926946D01*
X38879344Y-26928586D01*
X38877022Y-26929821D01*
X38841212Y-26959028D01*
X38805136Y-26987827D01*
X38801478Y-26991434D01*
X38801401Y-26991497D01*
X38801342Y-26991568D01*
X38800165Y-26992729D01*
X38567475Y-27225419D01*
X38429420Y-27224455D01*
X38280127Y-27252934D01*
X38139208Y-27309869D01*
X38012032Y-27393091D01*
X37903443Y-27499429D01*
X37817576Y-27624834D01*
X37757703Y-27764529D01*
X37726103Y-27913194D01*
X37723981Y-28065164D01*
X36773061Y-28065164D01*
X36775033Y-27924007D01*
X36745513Y-27774916D01*
X36687595Y-27634399D01*
X36603488Y-27507807D01*
X36496394Y-27399963D01*
X36370392Y-27314974D01*
X36230283Y-27256077D01*
X36081402Y-27225516D01*
X35929420Y-27224455D01*
X35780127Y-27252934D01*
X35639208Y-27309869D01*
X35512032Y-27393091D01*
X35403443Y-27499429D01*
X35317576Y-27624834D01*
X35257703Y-27764529D01*
X35226103Y-27913194D01*
X35223981Y-28065164D01*
X34250000Y-28065164D01*
X34250000Y-23817481D01*
X63990627Y-23817481D01*
X64045836Y-23999492D01*
X64155704Y-24216021D01*
X64305704Y-24406956D01*
X64490071Y-24564958D01*
X64701721Y-24683956D01*
X64932519Y-24759377D01*
X65125000Y-24692581D01*
X65125000Y-23625000D01*
X65275000Y-23625000D01*
X65275000Y-24692581D01*
X65467481Y-24759377D01*
X65698279Y-24683956D01*
X65909929Y-24564958D01*
X66094296Y-24406956D01*
X66244296Y-24216021D01*
X66354164Y-23999492D01*
X66409373Y-23817481D01*
X66530627Y-23817481D01*
X66585836Y-23999492D01*
X66695704Y-24216021D01*
X66845704Y-24406956D01*
X67030071Y-24564958D01*
X67241721Y-24683956D01*
X67472519Y-24759377D01*
X67665000Y-24692581D01*
X67665000Y-23625000D01*
X67815000Y-23625000D01*
X67815000Y-24692581D01*
X68007481Y-24759377D01*
X68238279Y-24683956D01*
X68449929Y-24564958D01*
X68634296Y-24406956D01*
X68784296Y-24216021D01*
X68894164Y-23999492D01*
X68949373Y-23817481D01*
X68882391Y-23625000D01*
X67815000Y-23625000D01*
X67665000Y-23625000D01*
X66597609Y-23625000D01*
X66530627Y-23817481D01*
X66409373Y-23817481D01*
X66342391Y-23625000D01*
X65275000Y-23625000D01*
X65125000Y-23625000D01*
X64057609Y-23625000D01*
X63990627Y-23817481D01*
X34250000Y-23817481D01*
X34250000Y-23594090D01*
X34339510Y-23508851D01*
X34427119Y-23384657D01*
X34472593Y-23282519D01*
X63990627Y-23282519D01*
X64057609Y-23475000D01*
X65125000Y-23475000D01*
X65125000Y-22407419D01*
X65275000Y-22407419D01*
X65275000Y-23475000D01*
X66342391Y-23475000D01*
X66409373Y-23282519D01*
X66530627Y-23282519D01*
X66597609Y-23475000D01*
X67665000Y-23475000D01*
X67665000Y-22407419D01*
X67815000Y-22407419D01*
X67815000Y-23475000D01*
X68882391Y-23475000D01*
X68949373Y-23282519D01*
X68894164Y-23100508D01*
X68784296Y-22883979D01*
X68634296Y-22693044D01*
X68449929Y-22535042D01*
X68238279Y-22416044D01*
X68007481Y-22340623D01*
X67815000Y-22407419D01*
X67665000Y-22407419D01*
X67472519Y-22340623D01*
X67241721Y-22416044D01*
X67030071Y-22535042D01*
X66845704Y-22693044D01*
X66695704Y-22883979D01*
X66585836Y-23100508D01*
X66530627Y-23282519D01*
X66409373Y-23282519D01*
X66354164Y-23100508D01*
X66244296Y-22883979D01*
X66094296Y-22693044D01*
X65909929Y-22535042D01*
X65698279Y-22416044D01*
X65467481Y-22340623D01*
X65275000Y-22407419D01*
X65125000Y-22407419D01*
X64932519Y-22340623D01*
X64701721Y-22416044D01*
X64490071Y-22535042D01*
X64305704Y-22693044D01*
X64155704Y-22883979D01*
X64045836Y-23100508D01*
X63990627Y-23282519D01*
X34472593Y-23282519D01*
X34488937Y-23245812D01*
X34522609Y-23097603D01*
X34525033Y-22924007D01*
X34495513Y-22774916D01*
X34437595Y-22634399D01*
X34353488Y-22507807D01*
X34246394Y-22399963D01*
X34120392Y-22314974D01*
X33980283Y-22256077D01*
X33831402Y-22225516D01*
X33679420Y-22224455D01*
X33530127Y-22252934D01*
X33389208Y-22309869D01*
X33262032Y-22393091D01*
X33153443Y-22499429D01*
X33067576Y-22624834D01*
X33007703Y-22764529D01*
X32976103Y-22913194D01*
X32973981Y-23065164D01*
X33001417Y-23214653D01*
X33057367Y-23355965D01*
X33139699Y-23483719D01*
X33245277Y-23593048D01*
X33250000Y-23596331D01*
X33250000Y-30326743D01*
X33205293Y-30307950D01*
X33056412Y-30277389D01*
X32904430Y-30276328D01*
X32755137Y-30304807D01*
X32614218Y-30361742D01*
X32487042Y-30444964D01*
X32378453Y-30551302D01*
X32292586Y-30676707D01*
X32232713Y-30816402D01*
X32201113Y-30965067D01*
X32198991Y-31117037D01*
X32218756Y-31224730D01*
X32179420Y-31224455D01*
X32030127Y-31252934D01*
X31889208Y-31309869D01*
X31762032Y-31393091D01*
X31653443Y-31499429D01*
X31567576Y-31624834D01*
X31507703Y-31764529D01*
X31476103Y-31913194D01*
X31473981Y-32065164D01*
X31474562Y-32068332D01*
X31396447Y-32146447D01*
X31367168Y-32182092D01*
X31337443Y-32217516D01*
X31336175Y-32219823D01*
X31334508Y-32221852D01*
X31312701Y-32262521D01*
X31290432Y-32303029D01*
X31289637Y-32305536D01*
X31288395Y-32307852D01*
X31274893Y-32352015D01*
X31260926Y-32396044D01*
X31260633Y-32398655D01*
X31259864Y-32401171D01*
X31255195Y-32447140D01*
X31250049Y-32493019D01*
X31250013Y-32498157D01*
X31250003Y-32498255D01*
X31250012Y-32498346D01*
X31250000Y-32500000D01*
X31250000Y-42654874D01*
X31153443Y-42749429D01*
X31067576Y-42874834D01*
X31007703Y-43014529D01*
X30976103Y-43163194D01*
X30973981Y-43315164D01*
X5302411Y-43315164D01*
X5015592Y-43121702D01*
X4631420Y-42960211D01*
X4223198Y-42876415D01*
X3806474Y-42873506D01*
X3397121Y-42951594D01*
X3010732Y-43107705D01*
X2662024Y-43335894D01*
X2364279Y-43627467D01*
X2128838Y-43971320D01*
X1964669Y-44354355D01*
X1878025Y-44761982D01*
X1872207Y-45178676D01*
X450000Y-45178676D01*
X450000Y-39178676D01*
X1872207Y-39178676D01*
X1947435Y-39588563D01*
X2100845Y-39976033D01*
X2326593Y-40326326D01*
X2616081Y-40626099D01*
X2958282Y-40863935D01*
X3340162Y-41030774D01*
X3747174Y-41120261D01*
X4163817Y-41128989D01*
X4574220Y-41056624D01*
X4962751Y-40905922D01*
X5314611Y-40682625D01*
X5616398Y-40395237D01*
X5856617Y-40054705D01*
X6026118Y-39674000D01*
X6118445Y-39267622D01*
X6125091Y-38791633D01*
X6090239Y-38615614D01*
X6123193Y-38615614D01*
X6171870Y-38880835D01*
X6271135Y-39131551D01*
X6417208Y-39358211D01*
X6604523Y-39552182D01*
X6825947Y-39706075D01*
X7073046Y-39814030D01*
X7336407Y-39871934D01*
X7605999Y-39877581D01*
X7871554Y-39830756D01*
X8122956Y-39733244D01*
X8350631Y-39588757D01*
X8545904Y-39402801D01*
X8676358Y-39217870D01*
X10288196Y-39217870D01*
X10454124Y-39467123D01*
X10779950Y-39641051D01*
X11133448Y-39748072D01*
X11501032Y-39784073D01*
X11868577Y-39747670D01*
X12221957Y-39640262D01*
X12545876Y-39467123D01*
X12711804Y-39217870D01*
X11500000Y-38006066D01*
X10288196Y-39217870D01*
X8676358Y-39217870D01*
X8701340Y-39182456D01*
X8811017Y-38936117D01*
X8870758Y-38673167D01*
X8875059Y-38365174D01*
X8822683Y-38100658D01*
X8740404Y-37901032D01*
X9615927Y-37901032D01*
X9652330Y-38268577D01*
X9759738Y-38621957D01*
X9932877Y-38945876D01*
X10182130Y-39111804D01*
X11393934Y-37900000D01*
X11606066Y-37900000D01*
X12817870Y-39111804D01*
X13067123Y-38945876D01*
X13241051Y-38620050D01*
X13348072Y-38266552D01*
X13384073Y-37898968D01*
X13347670Y-37531423D01*
X13240262Y-37178043D01*
X13067123Y-36854124D01*
X12817870Y-36688196D01*
X11606066Y-37900000D01*
X11393934Y-37900000D01*
X10182130Y-36688196D01*
X9932877Y-36854124D01*
X9758949Y-37179950D01*
X9651928Y-37533448D01*
X9615927Y-37901032D01*
X8740404Y-37901032D01*
X8719927Y-37851353D01*
X8570704Y-37626755D01*
X8380699Y-37435418D01*
X8157148Y-37284631D01*
X7908566Y-37180137D01*
X7644422Y-37125916D01*
X7374777Y-37124033D01*
X7109902Y-37174561D01*
X6859886Y-37275574D01*
X6634251Y-37423225D01*
X6441592Y-37611891D01*
X6289248Y-37834384D01*
X6183021Y-38082230D01*
X6126958Y-38345989D01*
X6123193Y-38615614D01*
X6090239Y-38615614D01*
X6044147Y-38382836D01*
X5885342Y-37997546D01*
X5654725Y-37650439D01*
X5361080Y-37354737D01*
X5015592Y-37121702D01*
X4631420Y-36960211D01*
X4223198Y-36876415D01*
X3806474Y-36873506D01*
X3397121Y-36951594D01*
X3010732Y-37107705D01*
X2662024Y-37335894D01*
X2364279Y-37627467D01*
X2128838Y-37971320D01*
X1964669Y-38354355D01*
X1878025Y-38761982D01*
X1872207Y-39178676D01*
X450000Y-39178676D01*
X450000Y-36582130D01*
X10288196Y-36582130D01*
X11500000Y-37793934D01*
X12711804Y-36582130D01*
X12545876Y-36332877D01*
X12220050Y-36158949D01*
X11866552Y-36051928D01*
X11498968Y-36015927D01*
X11131423Y-36052330D01*
X10778043Y-36159738D01*
X10454124Y-36332877D01*
X10288196Y-36582130D01*
X450000Y-36582130D01*
X450000Y-33178676D01*
X1872207Y-33178676D01*
X1947435Y-33588563D01*
X2100845Y-33976033D01*
X2326593Y-34326326D01*
X2616081Y-34626099D01*
X2958282Y-34863935D01*
X3340162Y-35030774D01*
X3747174Y-35120261D01*
X4163817Y-35128989D01*
X4574220Y-35056624D01*
X4962751Y-34905922D01*
X5314611Y-34682625D01*
X5616398Y-34395237D01*
X5856617Y-34054705D01*
X6026118Y-33674000D01*
X6039383Y-33615614D01*
X6123193Y-33615614D01*
X6171870Y-33880835D01*
X6271135Y-34131551D01*
X6417208Y-34358211D01*
X6604523Y-34552182D01*
X6825947Y-34706075D01*
X7073046Y-34814030D01*
X7336407Y-34871934D01*
X7605999Y-34877581D01*
X7871554Y-34830756D01*
X8122956Y-34733244D01*
X8350631Y-34588757D01*
X8545904Y-34402801D01*
X8648293Y-34257655D01*
X9622536Y-34257655D01*
X9688914Y-34619321D01*
X9824276Y-34961205D01*
X10023465Y-35270287D01*
X10278895Y-35534793D01*
X10580837Y-35744648D01*
X10917790Y-35891859D01*
X11276918Y-35970819D01*
X11644544Y-35978519D01*
X12006664Y-35914668D01*
X12349486Y-35781696D01*
X12659951Y-35584669D01*
X12926233Y-35331091D01*
X13138191Y-35030622D01*
X13287751Y-34694706D01*
X13369216Y-34336137D01*
X13375080Y-33916147D01*
X13303659Y-33555443D01*
X13163537Y-33215482D01*
X12960051Y-32909211D01*
X12700953Y-32648298D01*
X12396110Y-32442679D01*
X12057135Y-32300187D01*
X11696939Y-32226249D01*
X11329242Y-32223682D01*
X10968048Y-32292583D01*
X10627117Y-32430329D01*
X10319433Y-32631671D01*
X10056717Y-32888942D01*
X9848975Y-33192341D01*
X9704120Y-33530313D01*
X9627670Y-33889985D01*
X9622536Y-34257655D01*
X8648293Y-34257655D01*
X8701340Y-34182456D01*
X8811017Y-33936117D01*
X8870758Y-33673167D01*
X8875059Y-33365174D01*
X8822683Y-33100658D01*
X8719927Y-32851353D01*
X8570704Y-32626755D01*
X8380699Y-32435418D01*
X8157148Y-32284631D01*
X7908566Y-32180137D01*
X7644422Y-32125916D01*
X7374777Y-32124033D01*
X7109902Y-32174561D01*
X6859886Y-32275574D01*
X6634251Y-32423225D01*
X6441592Y-32611891D01*
X6289248Y-32834384D01*
X6183021Y-33082230D01*
X6126958Y-33345989D01*
X6123193Y-33615614D01*
X6039383Y-33615614D01*
X6118445Y-33267622D01*
X6125091Y-32791633D01*
X6044147Y-32382836D01*
X5885342Y-31997546D01*
X5654725Y-31650439D01*
X5361080Y-31354737D01*
X5015592Y-31121702D01*
X4631420Y-30960211D01*
X4223198Y-30876415D01*
X3806474Y-30873506D01*
X3397121Y-30951594D01*
X3010732Y-31107705D01*
X2662024Y-31335894D01*
X2364279Y-31627467D01*
X2128838Y-31971320D01*
X1964669Y-32354355D01*
X1878025Y-32761982D01*
X1872207Y-33178676D01*
X450000Y-33178676D01*
X450000Y-27178676D01*
X1872207Y-27178676D01*
X1947435Y-27588563D01*
X2100845Y-27976033D01*
X2326593Y-28326326D01*
X2616081Y-28626099D01*
X2958282Y-28863935D01*
X3340162Y-29030774D01*
X3747174Y-29120261D01*
X4163817Y-29128989D01*
X4574220Y-29056624D01*
X4962751Y-28905922D01*
X5314611Y-28682625D01*
X5616398Y-28395237D01*
X5856617Y-28054705D01*
X6026118Y-27674000D01*
X6118445Y-27267622D01*
X6125091Y-26791633D01*
X6090239Y-26615614D01*
X6123193Y-26615614D01*
X6171870Y-26880835D01*
X6271135Y-27131551D01*
X6417208Y-27358211D01*
X6604523Y-27552182D01*
X6825947Y-27706075D01*
X7073046Y-27814030D01*
X7336407Y-27871934D01*
X7605999Y-27877581D01*
X7871554Y-27830756D01*
X8122956Y-27733244D01*
X8350631Y-27588757D01*
X8545904Y-27402801D01*
X8676358Y-27217870D01*
X10288196Y-27217870D01*
X10454124Y-27467123D01*
X10779950Y-27641051D01*
X11133448Y-27748072D01*
X11501032Y-27784073D01*
X11868577Y-27747670D01*
X12221957Y-27640262D01*
X12545876Y-27467123D01*
X12711804Y-27217870D01*
X11500000Y-26006066D01*
X10288196Y-27217870D01*
X8676358Y-27217870D01*
X8701340Y-27182456D01*
X8811017Y-26936117D01*
X8870758Y-26673167D01*
X8875059Y-26365174D01*
X8822683Y-26100658D01*
X8740404Y-25901032D01*
X9615927Y-25901032D01*
X9652330Y-26268577D01*
X9759738Y-26621957D01*
X9932877Y-26945876D01*
X10182130Y-27111804D01*
X11393934Y-25900000D01*
X11606066Y-25900000D01*
X12817870Y-27111804D01*
X13067123Y-26945876D01*
X13241051Y-26620050D01*
X13348072Y-26266552D01*
X13384073Y-25898968D01*
X13347670Y-25531423D01*
X13240262Y-25178043D01*
X13067123Y-24854124D01*
X12817870Y-24688196D01*
X11606066Y-25900000D01*
X11393934Y-25900000D01*
X10182130Y-24688196D01*
X9932877Y-24854124D01*
X9758949Y-25179950D01*
X9651928Y-25533448D01*
X9615927Y-25901032D01*
X8740404Y-25901032D01*
X8719927Y-25851353D01*
X8570704Y-25626755D01*
X8380699Y-25435418D01*
X8157148Y-25284631D01*
X7908566Y-25180137D01*
X7644422Y-25125916D01*
X7374777Y-25124033D01*
X7109902Y-25174561D01*
X6859886Y-25275574D01*
X6634251Y-25423225D01*
X6441592Y-25611891D01*
X6289248Y-25834384D01*
X6183021Y-26082230D01*
X6126958Y-26345989D01*
X6123193Y-26615614D01*
X6090239Y-26615614D01*
X6044147Y-26382836D01*
X5885342Y-25997546D01*
X5654725Y-25650439D01*
X5361080Y-25354737D01*
X5015592Y-25121702D01*
X4631420Y-24960211D01*
X4223198Y-24876415D01*
X3806474Y-24873506D01*
X3397121Y-24951594D01*
X3010732Y-25107705D01*
X2662024Y-25335894D01*
X2364279Y-25627467D01*
X2128838Y-25971320D01*
X1964669Y-26354355D01*
X1878025Y-26761982D01*
X1872207Y-27178676D01*
X450000Y-27178676D01*
X450000Y-24582130D01*
X10288196Y-24582130D01*
X11500000Y-25793934D01*
X12711804Y-24582130D01*
X12545876Y-24332877D01*
X12220050Y-24158949D01*
X11866552Y-24051928D01*
X11498968Y-24015927D01*
X11131423Y-24052330D01*
X10778043Y-24159738D01*
X10454124Y-24332877D01*
X10288196Y-24582130D01*
X450000Y-24582130D01*
X450000Y-21178676D01*
X1872207Y-21178676D01*
X1947435Y-21588563D01*
X2100845Y-21976033D01*
X2326593Y-22326326D01*
X2616081Y-22626099D01*
X2958282Y-22863935D01*
X3340162Y-23030774D01*
X3747174Y-23120261D01*
X4163817Y-23128989D01*
X4574220Y-23056624D01*
X4962751Y-22905922D01*
X5314611Y-22682625D01*
X5616398Y-22395237D01*
X5856617Y-22054705D01*
X6026118Y-21674000D01*
X6039383Y-21615614D01*
X6123193Y-21615614D01*
X6171870Y-21880835D01*
X6271135Y-22131551D01*
X6417208Y-22358211D01*
X6604523Y-22552182D01*
X6825947Y-22706075D01*
X7073046Y-22814030D01*
X7336407Y-22871934D01*
X7605999Y-22877581D01*
X7871554Y-22830756D01*
X8122956Y-22733244D01*
X8350631Y-22588757D01*
X8545904Y-22402801D01*
X8648293Y-22257655D01*
X9622536Y-22257655D01*
X9688914Y-22619321D01*
X9824276Y-22961205D01*
X10023465Y-23270287D01*
X10278895Y-23534793D01*
X10580837Y-23744648D01*
X10917790Y-23891859D01*
X11276918Y-23970819D01*
X11644544Y-23978519D01*
X12006664Y-23914668D01*
X12349486Y-23781696D01*
X12659951Y-23584669D01*
X12926233Y-23331091D01*
X13138191Y-23030622D01*
X13287751Y-22694706D01*
X13369216Y-22336137D01*
X13375080Y-21916147D01*
X13303659Y-21555443D01*
X13163537Y-21215482D01*
X12960051Y-20909211D01*
X12700953Y-20648298D01*
X12396110Y-20442679D01*
X12057135Y-20300187D01*
X11696939Y-20226249D01*
X11329242Y-20223682D01*
X10968048Y-20292583D01*
X10627117Y-20430329D01*
X10319433Y-20631671D01*
X10056717Y-20888942D01*
X9848975Y-21192341D01*
X9704120Y-21530313D01*
X9627670Y-21889985D01*
X9622536Y-22257655D01*
X8648293Y-22257655D01*
X8701340Y-22182456D01*
X8811017Y-21936117D01*
X8870758Y-21673167D01*
X8875059Y-21365174D01*
X8822683Y-21100658D01*
X8719927Y-20851353D01*
X8570704Y-20626755D01*
X8380699Y-20435418D01*
X8157148Y-20284631D01*
X7908566Y-20180137D01*
X7644422Y-20125916D01*
X7374777Y-20124033D01*
X7109902Y-20174561D01*
X6859886Y-20275574D01*
X6634251Y-20423225D01*
X6441592Y-20611891D01*
X6289248Y-20834384D01*
X6183021Y-21082230D01*
X6126958Y-21345989D01*
X6123193Y-21615614D01*
X6039383Y-21615614D01*
X6118445Y-21267622D01*
X6125091Y-20791633D01*
X6044147Y-20382836D01*
X5885342Y-19997546D01*
X5654725Y-19650439D01*
X5361080Y-19354737D01*
X5015592Y-19121702D01*
X4631420Y-18960211D01*
X4223198Y-18876415D01*
X3806474Y-18873506D01*
X3397121Y-18951594D01*
X3010732Y-19107705D01*
X2662024Y-19335894D01*
X2364279Y-19627467D01*
X2128838Y-19971320D01*
X1964669Y-20354355D01*
X1878025Y-20761982D01*
X1872207Y-21178676D01*
X450000Y-21178676D01*
X450000Y-5483779D01*
X1820564Y-5483779D01*
X1940044Y-6134777D01*
X2183696Y-6750170D01*
X2542237Y-7306517D01*
X3002012Y-7782628D01*
X3545507Y-8160367D01*
X4152021Y-8425346D01*
X4798453Y-8567474D01*
X5460180Y-8581335D01*
X6111996Y-8466402D01*
X6729075Y-8227053D01*
X7287911Y-7872405D01*
X7767220Y-7415965D01*
X8148744Y-6875120D01*
X8417952Y-6270470D01*
X8564588Y-5625046D01*
X8566560Y-5483779D01*
X61820564Y-5483779D01*
X61940044Y-6134777D01*
X62183696Y-6750170D01*
X62542237Y-7306517D01*
X63002012Y-7782628D01*
X63545507Y-8160367D01*
X64152021Y-8425346D01*
X64798453Y-8567474D01*
X65460180Y-8581335D01*
X66111996Y-8466402D01*
X66729075Y-8227053D01*
X67287911Y-7872405D01*
X67767220Y-7415965D01*
X68148744Y-6875120D01*
X68417952Y-6270470D01*
X68564588Y-5625046D01*
X68575145Y-4869064D01*
X68446586Y-4219798D01*
X68194367Y-3607867D01*
X67828092Y-3056580D01*
X67361715Y-2586935D01*
X66812999Y-2216821D01*
X66202844Y-1960336D01*
X65554491Y-1827248D01*
X64892635Y-1822627D01*
X64242487Y-1946650D01*
X63628810Y-2194591D01*
X63074980Y-2557008D01*
X62602090Y-3020095D01*
X62228155Y-3566214D01*
X61967416Y-4174564D01*
X61829805Y-4821972D01*
X61820564Y-5483779D01*
X8566560Y-5483779D01*
X8575145Y-4869064D01*
X8446586Y-4219798D01*
X8194367Y-3607867D01*
X7828092Y-3056580D01*
X7361715Y-2586935D01*
X6812999Y-2216821D01*
X6202844Y-1960336D01*
X5554491Y-1827248D01*
X4892635Y-1822627D01*
X4242487Y-1946650D01*
X3628810Y-2194591D01*
X3074980Y-2557008D01*
X2602090Y-3020095D01*
X2228155Y-3566214D01*
X1967416Y-4174564D01*
X1829805Y-4821972D01*
X1820564Y-5483779D01*
X450000Y-5483779D01*
X450000Y-450000D01*
X69950000Y-450000D01*
X69950000Y-83950000D01*
M02*
