M48
;DRILL file {KiCad 4.0.1-stable} date 12.01.2016 22:16:04
;FORMAT={-:-/ absolute / metric / decimal}
FMAT,2
METRIC,TZ
T1C0.400
T2C1.016
T3C1.600
T4C1.800
T5C3.100
%
G90
G05
M71
T1
X31.75Y-43.25
X31.75Y-55.25
X31.75Y-67.25
X32.25Y-32.
X32.5Y-44.
X32.5Y-56.
X32.5Y-68.
X32.975Y-31.052
X33.75Y-23.
X33.75Y-35.
X33.75Y-47.
X33.75Y-59.
X36.Y-28.
X36.Y-40.
X36.Y-52.
X36.Y-64.
X38.5Y-28.
X38.5Y-40.
X38.5Y-52.
X38.5Y-64.
X42.75Y-45.5
X43.5Y-57.5
T2
X65.2Y-23.55
X65.2Y-26.09
X65.2Y-28.63
X65.2Y-31.17
X65.2Y-33.71
X65.2Y-36.25
X65.2Y-38.79
X65.2Y-41.33
X65.2Y-43.87
X65.2Y-46.41
X65.2Y-48.95
X67.74Y-23.55
X67.74Y-26.09
X67.74Y-28.63
X67.74Y-31.17
X67.74Y-33.71
X67.74Y-36.25
X67.74Y-38.79
X67.74Y-41.33
X67.74Y-43.87
X67.74Y-46.41
X67.74Y-48.95
T3
X11.5Y-22.1
X11.5Y-25.9
X11.5Y-34.1
X11.5Y-37.9
X11.5Y-46.1
X11.5Y-49.9
X11.5Y-58.1
X11.5Y-61.9
T4
X4.Y-21.
X4.Y-27.
X4.Y-33.
X4.Y-39.
X4.Y-45.
X4.Y-51.
X4.Y-57.
X4.Y-63.
T5
X5.2Y-5.2
X5.2Y-79.2
X65.2Y-5.2
X65.2Y-79.2
T0
M30
