G04 #@! TF.FileFunction,Soldermask,Top*
%FSLAX46Y46*%
G04 Gerber Fmt 4.6, Leading zero omitted, Abs format (unit mm)*
G04 Created by KiCad (PCBNEW 4.0.1-stable) date 12.01.2016 22:18:14*
%MOMM*%
G01*
G04 APERTURE LIST*
%ADD10C,0.100000*%
%ADD11R,2.127200X2.127200*%
%ADD12O,2.127200X2.127200*%
%ADD13R,0.850000X1.850000*%
%ADD14C,6.400000*%
%ADD15R,1.650000X1.400000*%
%ADD16R,1.400000X1.650000*%
%ADD17C,3.400000*%
%ADD18C,2.400000*%
%ADD19C,3.900000*%
%ADD20R,1.100000X1.700000*%
%ADD21C,1.200000*%
G04 APERTURE END LIST*
D10*
D11*
X65200000Y-48950000D03*
D12*
X67740000Y-48950000D03*
X65200000Y-46410000D03*
X67740000Y-46410000D03*
X65200000Y-43870000D03*
X67740000Y-43870000D03*
X65200000Y-41330000D03*
X67740000Y-41330000D03*
X65200000Y-38790000D03*
X67740000Y-38790000D03*
X65200000Y-36250000D03*
X67740000Y-36250000D03*
X65200000Y-33710000D03*
X67740000Y-33710000D03*
X65200000Y-31170000D03*
X67740000Y-31170000D03*
X65200000Y-28630000D03*
X67740000Y-28630000D03*
X65200000Y-26090000D03*
X67740000Y-26090000D03*
X65200000Y-23550000D03*
X67740000Y-23550000D03*
D13*
X29050000Y-52950000D03*
X29700000Y-52950000D03*
X30350000Y-52950000D03*
X31000000Y-52950000D03*
X31650000Y-52950000D03*
X32300000Y-52950000D03*
X32950000Y-52950000D03*
X32950000Y-47050000D03*
X32300000Y-47050000D03*
X31650000Y-47050000D03*
X31000000Y-47050000D03*
X30350000Y-47050000D03*
X29700000Y-47050000D03*
X29050000Y-47050000D03*
D14*
X5200000Y-79200000D03*
X65200000Y-79200000D03*
X65200000Y-5200000D03*
X5200000Y-5200000D03*
D15*
X36000000Y-28000000D03*
X36000000Y-30000000D03*
X36000000Y-40000000D03*
X36000000Y-42000000D03*
X36000000Y-64000000D03*
X36000000Y-66000000D03*
X36000000Y-52000000D03*
X36000000Y-54000000D03*
X41000000Y-28000000D03*
X41000000Y-30000000D03*
X38500000Y-28000000D03*
X38500000Y-30000000D03*
X41000000Y-40000000D03*
X41000000Y-42000000D03*
X38500000Y-40000000D03*
X38500000Y-42000000D03*
X41000000Y-52000000D03*
X41000000Y-54000000D03*
X38500000Y-52000000D03*
X38500000Y-54000000D03*
X41000000Y-64000000D03*
X41000000Y-66000000D03*
X38500000Y-64000000D03*
X38500000Y-66000000D03*
D16*
X20000000Y-24500000D03*
X22000000Y-24500000D03*
X20000000Y-36500000D03*
X22000000Y-36500000D03*
X20000000Y-48500000D03*
X22000000Y-48500000D03*
X20000000Y-60500000D03*
X22000000Y-60500000D03*
X20000000Y-27500000D03*
X22000000Y-27500000D03*
X20000000Y-39500000D03*
X22000000Y-39500000D03*
X20000000Y-51500000D03*
X22000000Y-51500000D03*
X20000000Y-63500000D03*
X22000000Y-63500000D03*
X16000000Y-22000000D03*
X18000000Y-22000000D03*
X16000000Y-34000000D03*
X18000000Y-34000000D03*
X16000000Y-46000000D03*
X18000000Y-46000000D03*
X16000000Y-58000000D03*
X18000000Y-58000000D03*
X18000000Y-30000000D03*
X16000000Y-30000000D03*
X18000000Y-42000000D03*
X16000000Y-42000000D03*
X18000000Y-54000000D03*
X16000000Y-54000000D03*
X18000000Y-66000000D03*
X16000000Y-66000000D03*
D13*
X29050000Y-28950000D03*
X29700000Y-28950000D03*
X30350000Y-28950000D03*
X31000000Y-28950000D03*
X31650000Y-28950000D03*
X32300000Y-28950000D03*
X32950000Y-28950000D03*
X32950000Y-23050000D03*
X32300000Y-23050000D03*
X31650000Y-23050000D03*
X31000000Y-23050000D03*
X30350000Y-23050000D03*
X29700000Y-23050000D03*
X29050000Y-23050000D03*
X29050000Y-40950000D03*
X29700000Y-40950000D03*
X30350000Y-40950000D03*
X31000000Y-40950000D03*
X31650000Y-40950000D03*
X32300000Y-40950000D03*
X32950000Y-40950000D03*
X32950000Y-35050000D03*
X32300000Y-35050000D03*
X31650000Y-35050000D03*
X31000000Y-35050000D03*
X30350000Y-35050000D03*
X29700000Y-35050000D03*
X29050000Y-35050000D03*
X29050000Y-64950000D03*
X29700000Y-64950000D03*
X30350000Y-64950000D03*
X31000000Y-64950000D03*
X31650000Y-64950000D03*
X32300000Y-64950000D03*
X32950000Y-64950000D03*
X32950000Y-59050000D03*
X32300000Y-59050000D03*
X31650000Y-59050000D03*
X31000000Y-59050000D03*
X30350000Y-59050000D03*
X29700000Y-59050000D03*
X29050000Y-59050000D03*
D17*
X11500000Y-25900000D03*
X11500000Y-22100000D03*
D18*
X7500000Y-26500000D03*
X7500000Y-21500000D03*
D19*
X4000000Y-27000000D03*
X4000000Y-21000000D03*
D17*
X11500000Y-37900000D03*
X11500000Y-34100000D03*
D18*
X7500000Y-38500000D03*
X7500000Y-33500000D03*
D19*
X4000000Y-39000000D03*
X4000000Y-33000000D03*
D17*
X11500000Y-49900000D03*
X11500000Y-46100000D03*
D18*
X7500000Y-50500000D03*
X7500000Y-45500000D03*
D19*
X4000000Y-51000000D03*
X4000000Y-45000000D03*
D17*
X11500000Y-61900000D03*
X11500000Y-58100000D03*
D18*
X7500000Y-62500000D03*
X7500000Y-57500000D03*
D19*
X4000000Y-63000000D03*
X4000000Y-57000000D03*
D20*
X21950000Y-22000000D03*
X20050000Y-22000000D03*
X20050000Y-30000000D03*
X21950000Y-30000000D03*
X21950000Y-34000000D03*
X20050000Y-34000000D03*
X20050000Y-42000000D03*
X21950000Y-42000000D03*
X21950000Y-46000000D03*
X20050000Y-46000000D03*
X20050000Y-54000000D03*
X21950000Y-54000000D03*
X21950000Y-58000000D03*
X20050000Y-58000000D03*
X20050000Y-66000000D03*
X21950000Y-66000000D03*
D21*
X36000000Y-64000000D03*
X36000000Y-52000000D03*
X36000000Y-40000000D03*
X36000000Y-28000000D03*
X38500000Y-28000000D03*
X38500000Y-40000000D03*
X38500000Y-52000000D03*
X38500000Y-64000000D03*
X32250000Y-32000000D03*
X31750000Y-67250000D03*
X31750000Y-55250000D03*
X31750000Y-43250000D03*
X32975010Y-31051873D03*
X32500000Y-68000000D03*
X32500000Y-56000000D03*
X32500000Y-44000000D03*
X33750000Y-59000000D03*
X33750000Y-47000000D03*
X33750000Y-35000000D03*
X33750000Y-23000000D03*
X43500000Y-57500000D03*
X42750000Y-45500000D03*
M02*
